<svg xmlns="http://www.w3.org/2000/svg" xmlns:xlink="http://www.w3.org/1999/xlink" viewBox="0 0 500 250" width="500" height="250"><circle r="1.5" cx="150.625" cy="106.0625" fill="black"></circle><path d="M 122.625,88.063 C 118.167,86.425 118.125,86.563 113.625,85.063" stroke-width="2.670" stroke="black" fill="none" stroke-linecap="round"></path><path d="M 113.625,85.063 C 103.247,81.490 103.167,81.925 92.625,79.063" stroke-width="2.775" stroke="black" fill="none" stroke-linecap="round"></path><path d="M 92.625,79.063 C 85.631,78.018 85.747,77.490 78.625,77.063" stroke-width="3.200" stroke="black" fill="none" stroke-linecap="round"></path><path d="M 78.625,77.063 C 69.587,75.197 74.631,76.518 70.625,76.063" stroke-width="3.560" stroke="black" fill="none" stroke-linecap="round"></path><path d="M 70.625,76.063 C 77.820,78.660 72.587,77.697 84.625,82.063" stroke-width="4.170" stroke="black" fill="none" stroke-linecap="round"></path><path d="M 84.625,82.063 C 96.881,88.137 96.820,88.160 108.625,95.063" stroke-width="2.851" stroke="black" fill="none" stroke-linecap="round"></path><path d="M 108.625,95.063 C 116.926,99.108 116.381,99.637 123.625,105.063" stroke-width="2.925" stroke="black" fill="none" stroke-linecap="round"></path><path d="M 123.625,105.063 C 133.878,116.315 134.926,115.108 144.625,127.063" stroke-width="2.287" stroke="black" fill="none" stroke-linecap="round"></path><path d="M 144.625,127.063 C 151.480,131.815 150.378,132.815 156.625,138.063" stroke-width="2.716" stroke="black" fill="none" stroke-linecap="round"></path><path d="M 156.625,138.063 C 166.783,148.582 165.480,148.815 172.625,161.063" stroke-width="2.333" stroke="black" fill="none" stroke-linecap="round"></path><path d="M 172.625,161.063 C 177.946,173.183 177.783,172.082 178.625,185.063" stroke-width="2.545" stroke="black" fill="none" stroke-linecap="round"></path><path d="M 178.625,185.063 C 178.261,192.427 178.946,190.683 174.625,196.063" stroke-width="3.563" stroke="black" fill="none" stroke-linecap="round"></path><path d="M 174.625,196.063 C 170.073,198.063 171.761,198.927 165.625,198.063" stroke-width="3.621" stroke="black" fill="none" stroke-linecap="round"></path><path d="M 165.625,198.063 C 160.486,198.473 162.573,198.063 159.625,196.063" stroke-width="4.375" stroke="black" fill="none" stroke-linecap="round"></path><path d="M 159.625,196.063 C 159.216,189.876 157.986,191.473 160.625,184.063" stroke-width="3.488" stroke="black" fill="none" stroke-linecap="round"></path><path d="M 160.625,184.063 C 163.980,173.512 163.216,173.376 167.625,163.063" stroke-width="2.685" stroke="black" fill="none" stroke-linecap="round"></path><path d="M 167.625,163.063 C 171.204,151.893 171.480,152.012 175.625,141.063" stroke-width="2.454" stroke="black" fill="none" stroke-linecap="round"></path><path d="M 175.625,141.063 C 180.585,127.006 181.204,127.393 187.625,114.063" stroke-width="2.160" stroke="black" fill="none" stroke-linecap="round"></path><path d="M 187.625,114.063 C 195.851,98.006 196.085,98.506 206.625,84.063" stroke-width="1.853" stroke="black" fill="none" stroke-linecap="round"></path><path d="M 206.625,84.063 C 213.747,76.570 212.851,76.006 221.625,70.063" stroke-width="2.291" stroke="black" fill="none" stroke-linecap="round"></path><path d="M 221.625,70.063 C 230.352,63.028 225.247,67.070 229.625,65.063" stroke-width="3.082" stroke="black" fill="none" stroke-linecap="round"></path><path d="M 229.625,65.063 C 225.006,76.612 227.852,70.028 216.625,84.063" stroke-width="3.731" stroke="black" fill="none" stroke-linecap="round"></path><path d="M 216.625,84.063 C 205.777,91.976 207.006,92.612 193.625,97.063" stroke-width="2.511" stroke="black" fill="none" stroke-linecap="round"></path><path d="M 193.625,97.063 C 162.623,110.397 162.777,109.976 130.625,120.063" stroke-width="1.512" stroke="black" fill="none" stroke-linecap="round"></path><path d="M 130.625,120.063 C 114.129,123.086 114.623,124.897 97.625,126.063" stroke-width="1.760" stroke="black" fill="none" stroke-linecap="round"></path><path d="M 97.625,126.063 C 67.488,134.364 83.629,128.586 69.625,131.063" stroke-width="1.987" stroke="black" fill="none" stroke-linecap="round"></path><path d="M 69.625,131.063 C 88.554,118.950 72.988,125.864 108.625,109.063" stroke-width="2.769" stroke="black" fill="none" stroke-linecap="round"></path><path d="M 108.625,109.063 C 156.732,85.666 156.554,85.450 205.625,64.063" stroke-width="1.194" stroke="black" fill="none" stroke-linecap="round"></path><path d="M 205.625,64.063 C 242.991,48.228 242.732,47.666 280.625,33.063" stroke-width="1.125" stroke="black" fill="none" stroke-linecap="round"></path><path d="M 280.625,33.063 C 310.133,21.583 309.991,21.228 339.625,10.063" stroke-width="1.265" stroke="black" fill="none" stroke-linecap="round"></path><path d="M 339.625,10.063 C 345.577,7.247 342.133,9.083 344.625,8.063" stroke-width="2.574" stroke="black" fill="none" stroke-linecap="round"></path><path d="M 344.625,8.063 C 338.933,12.582 342.077,10.247 332.625,16.063" stroke-width="3.024" stroke="black" fill="none" stroke-linecap="round"></path><path d="M 332.625,16.063 C 309.777,28.362 309.933,28.582 286.625,40.063" stroke-width="1.883" stroke="black" fill="none" stroke-linecap="round"></path><path d="M 286.625,40.063 C 262.327,50.164 263.277,51.862 239.625,63.063" stroke-width="1.684" stroke="black" fill="none" stroke-linecap="round"></path><path d="M 239.625,63.063 C 217.774,75.126 218.327,75.164 198.625,90.063" stroke-width="1.511" stroke="black" fill="none" stroke-linecap="round"></path><path d="M 198.625,90.063 C 188.440,101.351 192.774,94.626 189.625,102.063" stroke-width="2.428" stroke="black" fill="none" stroke-linecap="round"></path><path d="M 189.625,102.063 C 197.053,98.118 190.940,102.851 203.625,93.063" stroke-width="3.492" stroke="black" fill="none" stroke-linecap="round"></path><path d="M 203.625,93.063 C 209.644,87.583 210.053,88.118 215.625,82.063" stroke-width="3.155" stroke="black" fill="none" stroke-linecap="round"></path><path d="M 215.625,82.063 C 222.378,75.274 222.644,75.583 229.625,69.063" stroke-width="2.716" stroke="black" fill="none" stroke-linecap="round"></path><path d="M 229.625,69.063 C 240.404,60.210 236.378,63.274 243.625,58.063" stroke-width="2.738" stroke="black" fill="none" stroke-linecap="round"></path><path d="M 243.625,58.063 C 241.293,60.750 244.904,57.210 238.625,63.063" stroke-width="3.797" stroke="black" fill="none" stroke-linecap="round"></path><path d="M 238.625,63.063 C 233.727,67.193 233.793,67.250 228.625,71.063" stroke-width="3.898" stroke="black" fill="none" stroke-linecap="round"></path><path d="M 228.625,71.063 C 160.775,126.106 159.227,123.693 89.625,176.063" stroke-width="1.125" stroke="black" fill="none" stroke-linecap="round"></path><path d="M 89.625,176.063 C 65.463,190.267 66.775,192.106 40.625,203.063" stroke-width="1.244" stroke="black" fill="none" stroke-linecap="round"></path><path d="M 40.625,203.063 C 29.163,211.811 32.463,207.267 23.625,210.063" stroke-width="1.999" stroke="black" fill="none" stroke-linecap="round"></path><path d="M 23.625,210.063 C 20.633,203.441 19.663,208.811 21.625,197.063" stroke-width="3.199" stroke="black" fill="none" stroke-linecap="round"></path><path d="M 21.625,197.063 C 24.863,180.594 24.133,180.941 30.625,165.063" stroke-width="2.024" stroke="black" fill="none" stroke-linecap="round"></path><path d="M 30.625,165.063 C 36.151,149.237 36.363,149.594 44.625,135.063" stroke-width="1.886" stroke="black" fill="none" stroke-linecap="round"></path><path d="M 44.625,135.063 C 63.681,102.986 63.651,103.237 85.625,73.063" stroke-width="1.161" stroke="black" fill="none" stroke-linecap="round"></path><path d="M 85.625,73.063 C 102.642,50.650 102.181,50.486 121.625,30.063" stroke-width="1.366" stroke="black" fill="none" stroke-linecap="round"></path><path d="M 121.625,30.063 C 139.162,13.100 138.142,12.150 156.625,-3.938" stroke-width="1.579" stroke="black" fill="none" stroke-linecap="round"></path><path d="M 156.625,-3.938 C 162.088,-12.623 159.662,-6.900 162.625,-9.938" stroke-width="2.817" stroke="black" fill="none" stroke-linecap="round"></path><path d="M 162.625,-9.938 C 161.790,5.557 164.588,-0.123 161.625,21.063" stroke-width="3.097" stroke="black" fill="none" stroke-linecap="round"></path><path d="M 161.625,21.063 C 158.976,52.801 161.290,52.557 161.625,84.063" stroke-width="1.406" stroke="black" fill="none" stroke-linecap="round"></path><path d="M 161.625,84.063 C 161.685,113.300 163.976,111.801 171.625,139.063" stroke-width="1.421" stroke="black" fill="none" stroke-linecap="round"></path><path d="M 171.625,139.063 C 188.385,177.156 186.185,176.800 210.625,211.063" stroke-width="1.147" stroke="black" fill="none" stroke-linecap="round"></path><path d="M 210.625,211.063 C 220.732,222.700 218.885,223.656 232.625,232.063" stroke-width="1.738" stroke="black" fill="none" stroke-linecap="round"></path><path d="M 232.625,232.063 C 244.738,240.793 244.232,241.200 257.625,248.063" stroke-width="1.944" stroke="black" fill="none" stroke-linecap="round"></path><path d="M 257.625,248.063 C 265.814,255.383 264.238,251.793 271.625,254.063" stroke-width="2.741" stroke="black" fill="none" stroke-linecap="round"></path><path d="M 271.625,254.063 C 276.534,249.073 276.814,252.883 279.625,243.063" stroke-width="3.606" stroke="black" fill="none" stroke-linecap="round"></path><path d="M 279.625,243.063 C 286.043,231.495 285.534,231.573 289.625,219.063" stroke-width="2.871" stroke="black" fill="none" stroke-linecap="round"></path><path d="M 289.625,219.063 C 295.801,201.643 294.543,201.995 296.625,184.063" stroke-width="2.321" stroke="black" fill="none" stroke-linecap="round"></path><path d="M 296.625,184.063 C 296.103,168.974 297.301,169.643 292.625,155.063" stroke-width="2.385" stroke="black" fill="none" stroke-linecap="round"></path><path d="M 292.625,155.063 C 291.047,150.579 291.603,150.974 287.625,148.063" stroke-width="3.229" stroke="black" fill="none" stroke-linecap="round"></path><path d="M 287.625,148.063 C 274.140,136.837 274.047,138.079 258.625,130.063" stroke-width="2.327" stroke="black" fill="none" stroke-linecap="round"></path><path d="M 258.625,130.063 C 237.905,122.382 238.640,121.337 216.625,117.063" stroke-width="1.739" stroke="black" fill="none" stroke-linecap="round"></path><path d="M 216.625,117.063 C 201.752,113.308 201.905,113.382 186.625,112.063" stroke-width="1.924" stroke="black" fill="none" stroke-linecap="round"></path><path d="M 186.625,112.063 C 159.096,110.506 159.252,109.808 131.625,110.063" stroke-width="1.464" stroke="black" fill="none" stroke-linecap="round"></path><path d="M 131.625,110.063 C 128.031,110.166 128.096,110.006 124.625,111.063" stroke-width="2.720" stroke="black" fill="none" stroke-linecap="round"></path><path d="M 124.625,111.063 C 109.052,115.903 118.531,112.666 112.625,115.063" stroke-width="3.387" stroke="black" fill="none" stroke-linecap="round"></path><path d="M 112.625,115.063 C 135.578,108.878 126.052,111.903 158.625,103.063" stroke-width="2.549" stroke="black" fill="none" stroke-linecap="round"></path><path d="M 158.625,103.063 C 189.017,95.077 189.078,95.378 219.625,88.063" stroke-width="1.369" stroke="black" fill="none" stroke-linecap="round"></path><path d="M 219.625,88.063 C 237.038,84.039 237.017,84.077 254.625,81.063" stroke-width="1.694" stroke="black" fill="none" stroke-linecap="round"></path><path d="M 254.625,81.063 C 275.959,75.932 269.538,78.539 284.625,77.063" stroke-width="1.912" stroke="black" fill="none" stroke-linecap="round"></path><path d="M 284.625,77.063 C 281.867,81.606 287.459,77.432 277.625,84.063" stroke-width="3.203" stroke="black" fill="none" stroke-linecap="round"></path><path d="M 277.625,84.063 C 262.499,92.421 262.867,92.606 246.625,99.063" stroke-width="2.058" stroke="black" fill="none" stroke-linecap="round"></path><path d="M 246.625,99.063 C 213.479,113.043 213.499,112.921 179.625,125.063" stroke-width="1.437" stroke="black" fill="none" stroke-linecap="round"></path><path d="M 179.625,125.063 C 128.400,141.455 128.979,143.043 77.625,159.063" stroke-width="1.125" stroke="black" fill="none" stroke-linecap="round"></path><path d="M 77.625,159.063 C 55.386,168.780 66.400,162.955 55.625,168.063" stroke-width="1.663" stroke="black" fill="none" stroke-linecap="round"></path><path d="M 55.625,168.063 C 66.971,161.740 55.886,167.280 78.625,156.063" stroke-width="2.844" stroke="black" fill="none" stroke-linecap="round"></path><path d="M 78.625,156.063 C 86.227,151.001 86.471,152.240 94.625,149.063" stroke-width="2.852" stroke="black" fill="none" stroke-linecap="round"></path><path d="M 94.625,149.063 C 107.489,145.846 105.727,146.501 117.625,147.063" stroke-width="2.626" stroke="black" fill="none" stroke-linecap="round"></path><path d="M 117.625,147.063 C 119.296,149.433 119.989,147.346 119.625,152.063" stroke-width="3.715" stroke="black" fill="none" stroke-linecap="round"></path><path d="M 119.625,152.063 C 120.371,157.627 120.296,157.433 119.625,163.063" stroke-width="3.699" stroke="black" fill="none" stroke-linecap="round"></path><path d="M 119.625,163.063 C 118.714,184.120 116.871,183.127 112.625,203.063" stroke-width="1.989" stroke="black" fill="none" stroke-linecap="round"></path><path d="M 112.625,203.063 C 108.160,212.025 109.714,212.120 101.625,219.063" stroke-width="2.525" stroke="black" fill="none" stroke-linecap="round"></path><path d="M 101.625,219.063 C 95.015,227.003 95.160,226.025 86.625,231.063" stroke-width="2.547" stroke="black" fill="none" stroke-linecap="round"></path><path d="M 86.625,231.063 C 70.625,236.448 79.515,234.503 70.625,234.063" stroke-width="3.027" stroke="black" fill="none" stroke-linecap="round"></path><path d="M 70.625,234.063 C 77.598,225.592 70.625,230.948 86.625,220.063" stroke-width="3.775" stroke="black" fill="none" stroke-linecap="round"></path><path d="M 86.625,220.063 C 118.493,202.318 117.598,201.092 150.625,185.063" stroke-width="1.467" stroke="black" fill="none" stroke-linecap="round"></path><path d="M 150.625,185.063 C 199.654,159.117 199.493,158.818 248.625,133.063" stroke-width="1.125" stroke="black" fill="none" stroke-linecap="round"></path><path d="M 248.625,133.063 C 277.836,117.946 277.654,117.617 306.625,102.063" stroke-width="1.248" stroke="black" fill="none" stroke-linecap="round"></path><path d="M 306.625,102.063 C 335.683,85.662 335.836,85.946 364.625,69.063" stroke-width="1.131" stroke="black" fill="none" stroke-linecap="round"></path><path d="M 364.625,69.063 C 375.272,60.800 369.683,66.162 374.625,63.063" stroke-width="2.146" stroke="black" fill="none" stroke-linecap="round"></path><path d="M 374.625,63.063 C 368.024,73.367 373.272,67.800 360.625,83.063" stroke-width="3.077" stroke="black" fill="none" stroke-linecap="round"></path><path d="M 360.625,83.063 C 352.649,91.697 353.524,92.367 345.625,101.063" stroke-width="2.542" stroke="black" fill="none" stroke-linecap="round"></path><path d="M 345.625,101.063 C 333.018,117.673 333.149,117.697 321.625,135.063" stroke-width="1.828" stroke="black" fill="none" stroke-linecap="round"></path><path d="M 321.625,135.063 C 313.426,146.545 314.018,146.673 307.625,159.063" stroke-width="2.033" stroke="black" fill="none" stroke-linecap="round"></path><path d="M 307.625,159.063 C 298.483,176.063 303.926,167.045 302.625,176.063" stroke-width="2.489" stroke="black" fill="none" stroke-linecap="round"></path><path d="M 302.625,176.063 C 317.245,167.758 310.483,176.063 331.625,159.063" stroke-width="3.166" stroke="black" fill="none" stroke-linecap="round"></path><path d="M 331.625,159.063 C 338.701,154.678 338.745,154.758 345.625,150.063" stroke-width="3.191" stroke="black" fill="none" stroke-linecap="round"></path><path d="M 345.625,150.063 C 382.404,125.964 382.201,125.678 418.625,101.063" stroke-width="1.125" stroke="black" fill="none" stroke-linecap="round"></path><path d="M 418.625,101.063 C 438.389,87.413 438.404,87.464 457.625,73.063" stroke-width="1.409" stroke="black" fill="none" stroke-linecap="round"></path><path d="M 457.625,73.063 C 470.047,63.987 469.889,63.913 481.625,54.063" stroke-width="1.781" stroke="black" fill="none" stroke-linecap="round"></path><path d="M 481.625,54.063 C 486.406,48.867 484.047,51.987 485.625,49.063" stroke-width="2.918" stroke="black" fill="none" stroke-linecap="round"></path><path d="M 485.625,49.063 C 481.836,52.383 484.406,49.367 477.625,55.063" stroke-width="3.790" stroke="black" fill="none" stroke-linecap="round"></path><path d="M 477.625,55.063 C 470.589,59.000 470.836,59.383 463.625,63.063" stroke-width="3.109" stroke="black" fill="none" stroke-linecap="round"></path><path d="M 463.625,63.063 C 452.512,69.377 452.589,69.500 441.625,76.063" stroke-width="2.451" stroke="black" fill="none" stroke-linecap="round"></path><path d="M 441.625,76.063 C 424.218,87.214 424.012,86.877 406.625,98.063" stroke-width="1.820" stroke="black" fill="none" stroke-linecap="round"></path><path d="M 406.625,98.063 C 394.382,106.046 394.218,105.714 381.625,113.063" stroke-width="1.938" stroke="black" fill="none" stroke-linecap="round"></path><path d="M 381.625,113.063 C 374.222,116.807 374.382,117.046 366.625,120.063" stroke-width="2.497" stroke="black" fill="none" stroke-linecap="round"></path><path d="M 366.625,120.063 C 361.215,123.978 363.722,121.307 360.625,122.063" stroke-width="3.404" stroke="black" fill="none" stroke-linecap="round"></path><path d="M 360.625,122.063 C 359.586,113.816 359.215,117.478 362.625,107.063" stroke-width="3.833" stroke="black" fill="none" stroke-linecap="round"></path><path d="M 362.625,107.063 C 370.635,94.569 368.586,93.816 378.625,82.063" stroke-width="2.698" stroke="black" fill="none" stroke-linecap="round"></path><path d="M 378.625,82.063 C 387.103,68.845 382.135,76.569 385.625,71.063" stroke-width="3.712" stroke="black" fill="none" stroke-linecap="round"></path><path d="M 385.625,71.063 C 376.963,83.959 382.103,76.345 368.625,97.063" stroke-width="3.167" stroke="black" fill="none" stroke-linecap="round"></path><path d="M 368.625,97.063 C 359.404,111.432 359.463,111.459 350.625,126.063" stroke-width="2.426" stroke="black" fill="none" stroke-linecap="round"></path><path d="M 350.625,126.063 C 345.199,133.652 345.904,133.932 341.625,142.063" stroke-width="2.666" stroke="black" fill="none" stroke-linecap="round"></path><path d="M 341.625,142.063 C 335.181,154.390 336.699,153.652 333.625,166.063" stroke-width="2.369" stroke="black" fill="none" stroke-linecap="round"></path><path d="M 333.625,166.063 C 334.328,171.309 333.181,169.390 337.625,172.063" stroke-width="3.323" stroke="black" fill="none" stroke-linecap="round"></path><path d="M 337.625,172.063 C 353.110,173.518 351.828,175.309 368.625,174.063" stroke-width="2.561" stroke="black" fill="none" stroke-linecap="round"></path><path d="M 368.625,174.063 C 381.895,176.317 381.610,174.518 394.625,174.063" stroke-width="2.187" stroke="black" fill="none" stroke-linecap="round"></path><path d="M 394.625,174.063 C 429.873,166.404 429.895,167.817 464.625,157.063" stroke-width="1.535" stroke="black" fill="none" stroke-linecap="round"></path><path d="M 464.625,157.063 C 476.160,153.157 476.373,153.904 487.625,149.063" stroke-width="2.008" stroke="black" fill="none" stroke-linecap="round"></path><path d="M 487.625,149.063 C 493.322,145.669 490.160,148.157 492.625,147.063" stroke-width="3.167" stroke="black" fill="none" stroke-linecap="round"></path><path d="M 492.625,147.063 C 481.050,157.612 490.322,151.669 481.625,161.063" stroke-width="3.865" stroke="black" fill="none" stroke-linecap="round"></path><path d="M 481.625,161.063 C 488.681,161.160 482.050,163.612 494.625,159.063" stroke-width="4.194" stroke="black" fill="none" stroke-linecap="round"></path><path d="M 494.625,159.063 C 497.514,157.507 497.181,158.160 498.625,155.063" stroke-width="4.167" stroke="black" fill="none" stroke-linecap="round"></path></svg>