<svg xmlns="http://www.w3.org/2000/svg" xmlns:xlink="http://www.w3.org/1999/xlink" viewBox="0 0 500 250" width="500" height="250"><path d="M 112.000,140.063 C 112.140,136.976 113.000,137.563 114.000,135.063" stroke-width="5.491" stroke="black" fill="none" stroke-linecap="round"></path><path d="M 114.000,135.063 C 128.884,117.211 129.640,118.976 147.000,104.063" stroke-width="2.358" stroke="black" fill="none" stroke-linecap="round"></path><path d="M 147.000,104.063 C 161.310,96.626 159.884,94.711 176.000,90.063" stroke-width="2.108" stroke="black" fill="none" stroke-linecap="round"></path><path d="M 176.000,90.063 C 184.904,86.297 184.810,86.126 194.000,83.063" stroke-width="2.450" stroke="black" fill="none" stroke-linecap="round"></path><path d="M 194.000,83.063 C 207.438,78.363 207.404,78.297 221.000,74.063" stroke-width="2.197" stroke="black" fill="none" stroke-linecap="round"></path><path d="M 221.000,74.063 C 227.918,71.479 227.938,71.863 235.000,70.063" stroke-width="2.720" stroke="black" fill="none" stroke-linecap="round"></path><path d="M 235.000,70.063 C 241.000,68.457 237.918,69.479 241.000,70.063" stroke-width="3.589" stroke="black" fill="none" stroke-linecap="round"></path><path d="M 241.000,70.063 C 239.280,75.950 241.000,72.957 235.000,79.063" stroke-width="4.214" stroke="black" fill="none" stroke-linecap="round"></path><path d="M 235.000,79.063 C 221.665,86.888 222.780,87.950 208.000,94.063" stroke-width="2.579" stroke="black" fill="none" stroke-linecap="round"></path><path d="M 208.000,94.063 C 201.395,96.865 201.665,97.388 195.000,100.063" stroke-width="3.031" stroke="black" fill="none" stroke-linecap="round"></path><path d="M 195.000,100.063 C 189.796,103.673 192.395,101.365 190.000,103.063" stroke-width="4.175" stroke="black" fill="none" stroke-linecap="round"></path><path d="M 190.000,103.063 C 197.699,97.402 190.296,102.173 196.000,97.063" stroke-width="4.721" stroke="black" fill="none" stroke-linecap="round"></path><path d="M 196.000,97.063 C 188.057,99.336 192.699,96.402 180.000,101.063" stroke-width="4.738" stroke="black" fill="none" stroke-linecap="round"></path><path d="M 180.000,101.063 C 174.044,102.458 174.057,102.336 168.000,103.063" stroke-width="3.943" stroke="black" fill="none" stroke-linecap="round"></path><path d="M 168.000,103.063 C 158.260,105.499 159.044,103.958 150.000,104.063" stroke-width="3.306" stroke="black" fill="none" stroke-linecap="round"></path><path d="M 150.000,104.063 C 146.725,102.019 146.760,103.499 145.000,99.063" stroke-width="4.135" stroke="black" fill="none" stroke-linecap="round"></path><path d="M 145.000,99.063 C 143.668,95.628 143.225,96.019 143.000,92.063" stroke-width="3.995" stroke="black" fill="none" stroke-linecap="round"></path><path d="M 143.000,92.063 C 142.226,87.578 142.168,87.628 142.000,83.063" stroke-width="3.762" stroke="black" fill="none" stroke-linecap="round"></path><path d="M 142.000,83.063 C 141.525,77.523 141.726,77.578 142.000,72.063" stroke-width="3.451" stroke="black" fill="none" stroke-linecap="round"></path><path d="M 142.000,72.063 C 142.943,66.052 142.525,66.023 144.000,60.063" stroke-width="3.329" stroke="black" fill="none" stroke-linecap="round"></path><path d="M 144.000,60.063 C 143.703,54.576 144.443,57.552 145.000,55.063" stroke-width="3.970" stroke="black" fill="none" stroke-linecap="round"></path><path d="M 145.000,55.063 C 148.831,58.801 147.703,56.076 152.000,63.063" stroke-width="4.538" stroke="black" fill="none" stroke-linecap="round"></path><path d="M 152.000,63.063 C 162.718,78.777 163.331,78.301 174.000,94.063" stroke-width="2.133" stroke="black" fill="none" stroke-linecap="round"></path><path d="M 174.000,94.063 C 178.688,99.424 178.218,99.777 183.000,105.063" stroke-width="2.709" stroke="black" fill="none" stroke-linecap="round"></path><path d="M 183.000,105.063 C 184.869,108.157 185.188,107.924 187.000,111.063" stroke-width="3.473" stroke="black" fill="none" stroke-linecap="round"></path><path d="M 187.000,111.063 C 190.692,115.431 190.369,115.657 194.000,120.063" stroke-width="3.452" stroke="black" fill="none" stroke-linecap="round"></path><path d="M 194.000,120.063 C 196.021,122.371 195.692,122.431 197.000,125.063" stroke-width="4.366" stroke="black" fill="none" stroke-linecap="round"></path><path d="M 197.000,125.063 C 199.290,128.912 198.021,127.871 198.000,131.063" stroke-width="4.476" stroke="black" fill="none" stroke-linecap="round"></path><path d="M 198.000,131.063 C 194.597,133.264 196.290,133.912 191.000,135.063" stroke-width="4.507" stroke="black" fill="none" stroke-linecap="round"></path><path d="M 191.000,135.063 C 185.098,135.860 188.597,136.264 186.000,137.063" stroke-width="4.758" stroke="black" fill="none" stroke-linecap="round"></path><path d="M 186.000,137.063 C 191.336,140.397 188.098,139.860 197.000,143.063" stroke-width="4.546" stroke="black" fill="none" stroke-linecap="round"></path><path d="M 197.000,143.063 C 208.155,149.044 208.336,148.397 220.000,153.063" stroke-width="2.674" stroke="black" fill="none" stroke-linecap="round"></path><path d="M 220.000,153.063 C 236.385,158.075 236.155,158.544 253.000,162.063" stroke-width="2.053" stroke="black" fill="none" stroke-linecap="round"></path><path d="M 253.000,162.063 C 261.458,164.038 261.385,164.075 270.000,165.063" stroke-width="2.519" stroke="black" fill="none" stroke-linecap="round"></path><path d="M 270.000,165.063 C 278.556,163.581 273.958,165.538 278.000,165.063" stroke-width="3.310" stroke="black" fill="none" stroke-linecap="round"></path><path d="M 278.000,165.063 C 273.345,171.159 277.056,167.581 267.000,173.063" stroke-width="4.154" stroke="black" fill="none" stroke-linecap="round"></path><path d="M 267.000,173.063 C 252.432,174.657 253.345,177.159 238.000,177.063" stroke-width="2.506" stroke="black" fill="none" stroke-linecap="round"></path><path d="M 238.000,177.063 C 225.524,179.687 225.432,179.157 213.000,182.063" stroke-width="2.321" stroke="black" fill="none" stroke-linecap="round"></path><path d="M 213.000,182.063 C 196.186,184.229 196.524,185.187 180.000,188.063" stroke-width="1.943" stroke="black" fill="none" stroke-linecap="round"></path><path d="M 180.000,188.063 C 176.600,191.596 177.186,188.729 175.000,191.063" stroke-width="3.085" stroke="black" fill="none" stroke-linecap="round"></path><path d="M 175.000,191.063 C 174.181,188.594 173.600,190.596 174.000,186.063" stroke-width="4.262" stroke="black" fill="none" stroke-linecap="round"></path><path d="M 174.000,186.063 C 173.813,181.556 173.681,181.594 174.000,177.063" stroke-width="3.836" stroke="black" fill="none" stroke-linecap="round"></path><path d="M 174.000,177.063 C 174.700,169.569 174.313,169.556 175.000,162.063" stroke-width="3.262" stroke="black" fill="none" stroke-linecap="round"></path><path d="M 175.000,162.063 C 175.208,157.055 175.200,157.069 175.000,152.063" stroke-width="3.453" stroke="black" fill="none" stroke-linecap="round"></path><path d="M 175.000,152.063 C 175.588,144.732 174.708,145.055 174.000,138.063" stroke-width="3.184" stroke="black" fill="none" stroke-linecap="round"></path><path d="M 174.000,138.063 C 173.441,131.185 173.088,134.232 170.000,131.063" stroke-width="3.753" stroke="black" fill="none" stroke-linecap="round"></path><path d="M 170.000,131.063 C 157.012,131.923 159.441,130.685 146.000,137.063" stroke-width="3.666" stroke="black" fill="none" stroke-linecap="round"></path><path d="M 146.000,137.063 C 135.557,144.644 134.512,142.423 125.000,152.063" stroke-width="2.599" stroke="black" fill="none" stroke-linecap="round"></path><path d="M 125.000,152.063 C 117.028,157.604 117.057,157.644 109.000,163.063" stroke-width="2.558" stroke="black" fill="none" stroke-linecap="round"></path><path d="M 109.000,163.063 C 104.233,165.737 104.528,166.104 100.000,169.063" stroke-width="3.069" stroke="black" fill="none" stroke-linecap="round"></path><path d="M 100.000,169.063 C 94.783,171.458 97.233,171.237 95.000,174.063" stroke-width="3.650" stroke="black" fill="none" stroke-linecap="round"></path><path d="M 95.000,174.063 C 96.969,179.191 95.283,177.458 101.000,181.063" stroke-width="4.143" stroke="black" fill="none" stroke-linecap="round"></path><path d="M 101.000,181.063 C 111.760,185.682 110.969,185.691 123.000,187.063" stroke-width="2.749" stroke="black" fill="none" stroke-linecap="round"></path><path d="M 123.000,187.063 C 140.522,188.529 140.260,189.182 158.000,188.063" stroke-width="2.041" stroke="black" fill="none" stroke-linecap="round"></path><path d="M 158.000,188.063 C 178.148,187.777 178.022,187.529 198.000,185.063" stroke-width="1.714" stroke="black" fill="none" stroke-linecap="round"></path><path d="M 198.000,185.063 C 236.511,178.627 236.648,179.777 275.000,172.063" stroke-width="1.148" stroke="black" fill="none" stroke-linecap="round"></path><path d="M 275.000,172.063 C 301.076,167.959 301.011,167.627 327.000,163.063" stroke-width="1.295" stroke="black" fill="none" stroke-linecap="round"></path><path d="M 327.000,163.063 C 346.268,159.992 346.076,159.459 365.000,155.063" stroke-width="1.562" stroke="black" fill="none" stroke-linecap="round"></path><path d="M 365.000,155.063 C 378.682,152.241 374.768,152.492 384.000,148.063" stroke-width="2.152" stroke="black" fill="none" stroke-linecap="round"></path><path d="M 384.000,148.063 C 382.059,144.470 385.682,146.741 379.000,144.063" stroke-width="3.624" stroke="black" fill="none" stroke-linecap="round"></path><path d="M 379.000,144.063 C 366.472,143.379 367.059,142.470 354.000,144.063" stroke-width="2.631" stroke="black" fill="none" stroke-linecap="round"></path><path d="M 354.000,144.063 C 329.930,145.475 329.972,145.379 306.000,148.063" stroke-width="1.858" stroke="black" fill="none" stroke-linecap="round"></path><path d="M 306.000,148.063 C 292.908,149.591 292.930,149.475 280.000,152.063" stroke-width="2.264" stroke="black" fill="none" stroke-linecap="round"></path><path d="M 280.000,152.063 C 269.567,154.949 269.408,154.091 259.000,157.063" stroke-width="2.744" stroke="black" fill="none" stroke-linecap="round"></path><path d="M 259.000,157.063 C 250.443,159.833 254.567,157.949 250.000,158.063" stroke-width="3.333" stroke="black" fill="none" stroke-linecap="round"></path><path d="M 250.000,158.063 C 252.987,153.076 249.443,155.833 257.000,149.063" stroke-width="3.864" stroke="black" fill="none" stroke-linecap="round"></path><path d="M 257.000,149.063 C 264.877,142.956 263.987,142.076 272.000,136.063" stroke-width="2.879" stroke="black" fill="none" stroke-linecap="round"></path><path d="M 272.000,136.063 C 279.985,127.549 280.377,127.956 288.000,119.063" stroke-width="2.564" stroke="black" fill="none" stroke-linecap="round"></path><path d="M 288.000,119.063 C 297.446,109.933 296.985,109.549 306.000,100.063" stroke-width="2.247" stroke="black" fill="none" stroke-linecap="round"></path><path d="M 306.000,100.063 C 314.849,88.426 310.446,94.933 314.000,89.063" stroke-width="2.797" stroke="black" fill="none" stroke-linecap="round"></path><path d="M 314.000,89.063 C 308.210,96.252 312.849,89.926 302.000,103.063" stroke-width="3.861" stroke="black" fill="none" stroke-linecap="round"></path><path d="M 302.000,103.063 C 292.877,113.452 292.710,113.252 283.000,123.063" stroke-width="2.400" stroke="black" fill="none" stroke-linecap="round"></path><path d="M 283.000,123.063 C 274.344,131.487 274.377,131.452 265.000,139.063" stroke-width="2.349" stroke="black" fill="none" stroke-linecap="round"></path><path d="M 265.000,139.063 C 256.170,147.485 255.844,146.487 246.000,153.063" stroke-width="2.506" stroke="black" fill="none" stroke-linecap="round"></path><path d="M 246.000,153.063 C 238.763,157.968 240.670,155.985 234.000,156.063" stroke-width="3.385" stroke="black" fill="none" stroke-linecap="round"></path><path d="M 234.000,156.063 C 228.472,151.242 228.763,153.968 226.000,145.063" stroke-width="4.168" stroke="black" fill="none" stroke-linecap="round"></path><path d="M 226.000,145.063 C 222.288,135.559 222.472,136.242 222.000,126.063" stroke-width="3.152" stroke="black" fill="none" stroke-linecap="round"></path><path d="M 222.000,126.063 C 221.193,117.392 221.788,119.059 225.000,112.063" stroke-width="3.082" stroke="black" fill="none" stroke-linecap="round"></path><path d="M 225.000,112.063 C 230.540,107.485 228.693,106.892 237.000,105.063" stroke-width="3.091" stroke="black" fill="none" stroke-linecap="round"></path><path d="M 237.000,105.063 C 250.880,100.592 250.540,99.985 265.000,97.063" stroke-width="2.232" stroke="black" fill="none" stroke-linecap="round"></path><path d="M 265.000,97.063 C 284.726,90.460 284.880,92.092 305.000,88.063" stroke-width="1.789" stroke="black" fill="none" stroke-linecap="round"></path><path d="M 305.000,88.063 C 331.543,86.063 331.226,84.960 358.000,86.063" stroke-width="1.470" stroke="black" fill="none" stroke-linecap="round"></path><path d="M 358.000,86.063 C 366.484,85.915 366.043,86.063 374.000,88.063" stroke-width="2.203" stroke="black" fill="none" stroke-linecap="round"></path><path d="M 374.000,88.063 C 377.239,89.547 376.984,88.915 379.000,92.063" stroke-width="3.252" stroke="black" fill="none" stroke-linecap="round"></path><path d="M 379.000,92.063 C 380.487,94.983 380.739,94.547 381.000,98.063" stroke-width="3.802" stroke="black" fill="none" stroke-linecap="round"></path><path d="M 381.000,98.063 C 382.628,101.737 381.487,100.983 381.000,104.063" stroke-width="4.000" stroke="black" fill="none" stroke-linecap="round"></path><path d="M 381.000,104.063 C 375.248,113.022 375.628,111.737 367.000,118.063" stroke-width="2.904" stroke="black" fill="none" stroke-linecap="round"></path><path d="M 367.000,118.063 C 356.299,123.140 357.248,124.022 345.000,126.063" stroke-width="2.440" stroke="black" fill="none" stroke-linecap="round"></path><path d="M 345.000,126.063 C 327.137,130.626 327.299,130.640 309.000,133.063" stroke-width="1.939" stroke="black" fill="none" stroke-linecap="round"></path><path d="M 309.000,133.063 C 293.520,134.693 293.637,135.126 278.000,135.063" stroke-width="1.974" stroke="black" fill="none" stroke-linecap="round"></path><path d="M 278.000,135.063 C 251.432,136.106 251.520,135.693 225.000,135.063" stroke-width="1.556" stroke="black" fill="none" stroke-linecap="round"></path><path d="M 225.000,135.063 C 213.188,134.460 213.432,134.606 202.000,132.063" stroke-width="2.009" stroke="black" fill="none" stroke-linecap="round"></path><path d="M 202.000,132.063 C 197.983,131.421 199.188,131.460 197.000,129.063" stroke-width="3.160" stroke="black" fill="none" stroke-linecap="round"></path><path d="M 197.000,129.063 C 195.784,124.317 195.483,125.421 197.000,120.063" stroke-width="3.931" stroke="black" fill="none" stroke-linecap="round"></path><path d="M 197.000,120.063 C 199.857,109.837 199.784,110.317 205.000,101.063" stroke-width="2.844" stroke="black" fill="none" stroke-linecap="round"></path><path d="M 205.000,101.063 C 209.347,95.918 208.357,95.337 214.000,91.063" stroke-width="3.045" stroke="black" fill="none" stroke-linecap="round"></path><path d="M 214.000,91.063 C 220.822,83.863 220.847,83.918 228.000,77.063" stroke-width="2.653" stroke="black" fill="none" stroke-linecap="round"></path><path d="M 228.000,77.063 C 234.061,73.063 230.322,74.863 233.000,73.063" stroke-width="3.516" stroke="black" fill="none" stroke-linecap="round"></path><path d="M 233.000,73.063 C 227.599,75.370 231.061,73.063 222.000,77.063" stroke-width="3.959" stroke="black" fill="none" stroke-linecap="round"></path><path d="M 222.000,77.063 C 206.155,82.216 206.099,81.870 190.000,86.063" stroke-width="2.325" stroke="black" fill="none" stroke-linecap="round"></path><path d="M 190.000,86.063 C 174.528,89.216 174.655,89.716 159.000,92.063" stroke-width="2.004" stroke="black" fill="none" stroke-linecap="round"></path><path d="M 159.000,92.063 C 134.124,99.714 144.528,94.716 130.000,97.063" stroke-width="1.988" stroke="black" fill="none" stroke-linecap="round"></path><path d="M 130.000,97.063 C 136.698,88.874 127.124,95.214 145.000,83.063" stroke-width="3.271" stroke="black" fill="none" stroke-linecap="round"></path><path d="M 145.000,83.063 C 152.354,79.211 151.698,78.374 160.000,76.063" stroke-width="2.964" stroke="black" fill="none" stroke-linecap="round"></path><path d="M 160.000,76.063 C 169.358,72.120 169.354,72.211 179.000,69.063" stroke-width="2.675" stroke="black" fill="none" stroke-linecap="round"></path><path d="M 179.000,69.063 C 189.808,64.843 189.858,65.620 201.000,63.063" stroke-width="2.416" stroke="black" fill="none" stroke-linecap="round"></path><path d="M 201.000,63.063 C 212.024,62.063 211.808,61.343 223.000,62.063" stroke-width="2.494" stroke="black" fill="none" stroke-linecap="round"></path><path d="M 223.000,62.063 C 227.293,61.258 226.524,62.063 230.000,63.063" stroke-width="3.373" stroke="black" fill="none" stroke-linecap="round"></path><path d="M 230.000,63.063 C 233.908,66.059 233.293,65.258 235.000,70.063" stroke-width="3.568" stroke="black" fill="none" stroke-linecap="round"></path><path d="M 235.000,70.063 C 237.509,77.820 236.908,77.059 236.000,85.063" stroke-width="3.073" stroke="black" fill="none" stroke-linecap="round"></path><path d="M 236.000,85.063 C 232.302,102.507 232.509,101.820 225.000,118.063" stroke-width="2.098" stroke="black" fill="none" stroke-linecap="round"></path><path d="M 225.000,118.063 C 219.988,127.074 220.802,127.007 213.000,134.063" stroke-width="2.364" stroke="black" fill="none" stroke-linecap="round"></path><path d="M 213.000,134.063 C 206.104,139.219 206.988,140.074 199.000,144.063" stroke-width="2.650" stroke="black" fill="none" stroke-linecap="round"></path><path d="M 199.000,144.063 C 195.314,147.445 195.104,146.719 191.000,149.063" stroke-width="3.215" stroke="black" fill="none" stroke-linecap="round"></path><path d="M 191.000,149.063 C 185.250,151.813 187.314,150.445 183.000,150.063" stroke-width="4.044" stroke="black" fill="none" stroke-linecap="round"></path><path d="M 183.000,150.063 C 182.175,146.083 180.750,148.313 182.000,142.063" stroke-width="4.400" stroke="black" fill="none" stroke-linecap="round"></path><path d="M 182.000,142.063 C 180.895,134.432 181.675,134.583 182.000,127.063" stroke-width="3.233" stroke="black" fill="none" stroke-linecap="round"></path><path d="M 182.000,127.063 C 184.029,114.240 183.895,114.432 188.000,102.063" stroke-width="2.397" stroke="black" fill="none" stroke-linecap="round"></path><path d="M 188.000,102.063 C 191.380,90.898 191.529,91.240 197.000,81.063" stroke-width="2.340" stroke="black" fill="none" stroke-linecap="round"></path><path d="M 197.000,81.063 C 202.005,73.602 201.380,73.398 208.000,67.063" stroke-width="2.611" stroke="black" fill="none" stroke-linecap="round"></path><path d="M 208.000,67.063 C 213.299,61.813 213.005,61.602 219.000,57.063" stroke-width="2.872" stroke="black" fill="none" stroke-linecap="round"></path><path d="M 219.000,57.063 C 222.065,53.512 222.299,54.313 226.000,52.063" stroke-width="3.426" stroke="black" fill="none" stroke-linecap="round"></path><path d="M 226.000,52.063 C 232.047,49.652 231.565,50.012 238.000,50.063" stroke-width="3.261" stroke="black" fill="none" stroke-linecap="round"></path><path d="M 238.000,50.063 C 246.852,51.061 246.547,50.652 255.000,54.063" stroke-width="2.905" stroke="black" fill="none" stroke-linecap="round"></path><path d="M 255.000,54.063 C 265.307,59.512 265.852,58.061 276.000,64.063" stroke-width="2.513" stroke="black" fill="none" stroke-linecap="round"></path><path d="M 276.000,64.063 C 288.778,69.735 288.807,69.512 302.000,74.063" stroke-width="2.233" stroke="black" fill="none" stroke-linecap="round"></path><path d="M 302.000,74.063 C 316.457,78.235 316.278,78.735 331.000,82.063" stroke-width="2.029" stroke="black" fill="none" stroke-linecap="round"></path><path d="M 331.000,82.063 C 336.325,81.918 335.457,83.235 340.000,84.063" stroke-width="2.907" stroke="black" fill="none" stroke-linecap="round"></path><path d="M 340.000,84.063 C 342.760,86.424 342.325,85.418 343.000,89.063" stroke-width="4.016" stroke="black" fill="none" stroke-linecap="round"></path><path d="M 343.000,89.063 C 343.306,93.086 343.260,91.924 341.000,95.063" stroke-width="4.118" stroke="black" fill="none" stroke-linecap="round"></path><path d="M 341.000,95.063 C 332.375,103.010 332.806,102.086 322.000,107.063" stroke-width="2.966" stroke="black" fill="none" stroke-linecap="round"></path><path d="M 322.000,107.063 C 299.664,114.235 300.375,115.510 277.000,120.063" stroke-width="2.382" stroke="black" fill="none" stroke-linecap="round"></path><path d="M 277.000,120.063 C 257.341,128.327 264.664,123.235 252.000,125.063" stroke-width="2.229" stroke="black" fill="none" stroke-linecap="round"></path><path d="M 252.000,125.063 C 254.390,116.397 248.341,122.827 259.000,109.063" stroke-width="3.400" stroke="black" fill="none" stroke-linecap="round"></path><path d="M 259.000,109.063 C 265.956,99.097 265.390,98.897 274.000,90.063" stroke-width="2.494" stroke="black" fill="none" stroke-linecap="round"></path><path d="M 274.000,90.063 C 299.025,63.085 298.456,62.597 324.000,36.063" stroke-width="1.513" stroke="black" fill="none" stroke-linecap="round"></path><path d="M 324.000,36.063 C 329.525,30.085 329.525,30.085 335.000,24.063" stroke-width="2.263" stroke="black" fill="none" stroke-linecap="round"></path><path d="M 335.000,24.063 C 344.250,14.313 339.525,19.085 344.000,14.063" stroke-width="2.765" stroke="black" fill="none" stroke-linecap="round"></path><path d="M 344.000,14.063 C 339.038,18.606 343.750,13.813 334.000,23.063" stroke-width="3.763" stroke="black" fill="none" stroke-linecap="round"></path><path d="M 334.000,23.063 C 326.147,30.237 326.038,30.106 318.000,37.063" stroke-width="2.779" stroke="black" fill="none" stroke-linecap="round"></path><path d="M 318.000,37.063 C 308.500,47.057 307.647,45.737 297.000,54.063" stroke-width="2.325" stroke="black" fill="none" stroke-linecap="round"></path><path d="M 297.000,54.063 C 264.874,73.907 265.000,73.557 231.000,90.063" stroke-width="1.193" stroke="black" fill="none" stroke-linecap="round"></path><path d="M 231.000,90.063 C 199.278,103.809 199.874,104.907 167.000,116.063" stroke-width="1.125" stroke="black" fill="none" stroke-linecap="round"></path><path d="M 167.000,116.063 C 144.776,122.974 145.278,124.309 123.000,131.063" stroke-width="1.389" stroke="black" fill="none" stroke-linecap="round"></path><path d="M 123.000,131.063 C 109.655,135.906 109.776,135.974 97.000,142.063" stroke-width="1.786" stroke="black" fill="none" stroke-linecap="round"></path><path d="M 97.000,142.063 C 86.283,147.082 91.155,144.906 86.000,149.063" stroke-width="2.539" stroke="black" fill="none" stroke-linecap="round"></path><path d="M 86.000,149.063 C 91.003,149.214 85.783,150.582 96.000,149.063" stroke-width="3.829" stroke="black" fill="none" stroke-linecap="round"></path><path d="M 96.000,149.063 C 107.627,147.074 107.503,148.714 119.000,148.063" stroke-width="2.693" stroke="black" fill="none" stroke-linecap="round"></path><path d="M 119.000,148.063 C 130.858,149.420 130.627,149.074 142.000,153.063" stroke-width="2.387" stroke="black" fill="none" stroke-linecap="round"></path><path d="M 142.000,153.063 C 157.124,157.823 156.858,157.920 171.000,165.063" stroke-width="2.141" stroke="black" fill="none" stroke-linecap="round"></path><path d="M 171.000,165.063 C 191.463,176.381 191.624,175.823 211.000,189.063" stroke-width="1.594" stroke="black" fill="none" stroke-linecap="round"></path><path d="M 211.000,189.063 C 220.242,194.761 219.963,194.881 228.000,202.063" stroke-width="2.171" stroke="black" fill="none" stroke-linecap="round"></path><path d="M 228.000,202.063 C 238.023,210.781 237.242,210.761 245.000,221.063" stroke-width="2.170" stroke="black" fill="none" stroke-linecap="round"></path><path d="M 245.000,221.063 C 245.768,225.627 247.523,224.781 247.000,230.063" stroke-width="2.990" stroke="black" fill="none" stroke-linecap="round"></path><path d="M 247.000,230.063 C 246.821,236.338 248.268,234.627 250.000,239.063" stroke-width="3.854" stroke="black" fill="none" stroke-linecap="round"></path><path d="M 250.000,239.063 C 255.413,241.047 253.821,242.338 261.000,242.063" stroke-width="3.437" stroke="black" fill="none" stroke-linecap="round"></path><path d="M 261.000,242.063 C 266.544,243.558 266.413,243.047 272.000,243.063" stroke-width="3.418" stroke="black" fill="none" stroke-linecap="round"></path><path d="M 272.000,243.063 C 283.366,242.278 283.044,242.058 294.000,239.063" stroke-width="2.660" stroke="black" fill="none" stroke-linecap="round"></path><path d="M 294.000,239.063 C 304.580,234.741 304.866,235.778 315.000,230.063" stroke-width="2.472" stroke="black" fill="none" stroke-linecap="round"></path><path d="M 315.000,230.063 C 329.144,223.855 329.080,223.741 343.000,217.063" stroke-width="2.058" stroke="black" fill="none" stroke-linecap="round"></path><path d="M 343.000,217.063 C 354.522,211.104 354.644,211.355 366.000,205.063" stroke-width="2.173" stroke="black" fill="none" stroke-linecap="round"></path><path d="M 366.000,205.063 C 373.778,201.507 373.522,201.104 381.000,197.063" stroke-width="2.584" stroke="black" fill="none" stroke-linecap="round"></path><path d="M 381.000,197.063 C 387.099,193.637 386.778,193.507 392.000,189.063" stroke-width="2.888" stroke="black" fill="none" stroke-linecap="round"></path><path d="M 392.000,189.063 C 394.738,186.344 394.599,186.637 396.000,183.063" stroke-width="3.557" stroke="black" fill="none" stroke-linecap="round"></path><path d="M 396.000,183.063 C 398.378,178.991 397.238,179.844 397.000,176.063" stroke-width="3.791" stroke="black" fill="none" stroke-linecap="round"></path><path d="M 397.000,176.063 C 393.380,169.874 394.378,170.491 388.000,166.063" stroke-width="3.955" stroke="black" fill="none" stroke-linecap="round"></path><path d="M 388.000,166.063 C 380.817,161.668 381.380,161.374 373.000,159.063" stroke-width="3.111" stroke="black" fill="none" stroke-linecap="round"></path><path d="M 373.000,159.063 C 361.133,154.978 361.317,155.168 349.000,153.063" stroke-width="2.420" stroke="black" fill="none" stroke-linecap="round"></path><path d="M 349.000,153.063 C 341.905,152.199 342.133,151.978 335.000,153.063" stroke-width="2.850" stroke="black" fill="none" stroke-linecap="round"></path><path d="M 335.000,153.063 C 325.941,154.827 325.905,154.199 317.000,157.063" stroke-width="2.800" stroke="black" fill="none" stroke-linecap="round"></path><path d="M 317.000,157.063 C 307.990,159.527 307.941,159.327 299.000,162.063" stroke-width="2.653" stroke="black" fill="none" stroke-linecap="round"></path><path d="M 299.000,162.063 C 288.540,165.208 288.490,165.027 278.000,168.063" stroke-width="2.516" stroke="black" fill="none" stroke-linecap="round"></path><path d="M 278.000,168.063 C 247.897,178.683 264.540,171.708 251.000,175.063" stroke-width="2.171" stroke="black" fill="none" stroke-linecap="round"></path><path d="M 251.000,175.063 C 272.903,159.931 256.897,168.183 296.000,147.063" stroke-width="2.923" stroke="black" fill="none" stroke-linecap="round"></path><path d="M 296.000,147.063 C 308.350,141.183 307.903,140.431 321.000,136.063" stroke-width="2.275" stroke="black" fill="none" stroke-linecap="round"></path><path d="M 321.000,136.063 C 329.618,133.355 329.350,132.683 338.000,130.063" stroke-width="2.625" stroke="black" fill="none" stroke-linecap="round"></path><path d="M 338.000,130.063 C 349.233,124.597 343.618,127.855 349.000,125.063" stroke-width="3.006" stroke="black" fill="none" stroke-linecap="round"></path><path d="M 349.000,125.063 C 343.199,128.963 348.733,125.597 337.000,132.063" stroke-width="3.883" stroke="black" fill="none" stroke-linecap="round"></path><path d="M 337.000,132.063 C 331.239,135.280 331.199,134.963 325.000,137.063" stroke-width="3.302" stroke="black" fill="none" stroke-linecap="round"></path><path d="M 325.000,137.063 C 299.470,143.447 299.739,144.280 274.000,150.063" stroke-width="1.601" stroke="black" fill="none" stroke-linecap="round"></path><path d="M 274.000,150.063 C 261.032,153.684 260.970,153.447 248.000,157.063" stroke-width="1.965" stroke="black" fill="none" stroke-linecap="round"></path><path d="M 248.000,157.063 C 226.234,164.409 234.032,160.684 220.000,164.063" stroke-width="2.047" stroke="black" fill="none" stroke-linecap="round"></path><path d="M 220.000,164.063 C 224.634,159.524 217.234,163.909 230.000,156.063" stroke-width="3.302" stroke="black" fill="none" stroke-linecap="round"></path><path d="M 230.000,156.063 C 240.631,150.284 240.134,149.524 251.000,144.063" stroke-width="2.549" stroke="black" fill="none" stroke-linecap="round"></path><path d="M 251.000,144.063 C 270.027,131.241 270.631,132.284 290.000,120.063" stroke-width="1.671" stroke="black" fill="none" stroke-linecap="round"></path><path d="M 290.000,120.063 C 337.134,93.807 337.027,93.741 385.000,69.063" stroke-width="1.304" stroke="black" fill="none" stroke-linecap="round"></path><path d="M 385.000,69.063 C 396.749,64.578 396.134,63.307 408.000,59.063" stroke-width="1.988" stroke="black" fill="none" stroke-linecap="round"></path><path d="M 408.000,59.063 C 421.862,51.288 422.249,52.078 436.000,44.063" stroke-width="1.914" stroke="black" fill="none" stroke-linecap="round"></path></svg>