<svg xmlns="http://www.w3.org/2000/svg" xmlns:xlink="http://www.w3.org/1999/xlink" viewBox="0 0 500 250" width="500" height="250"><path d="M 95.000,103.063 C 101.053,100.522 101.000,102.063 107.000,101.063" stroke-width="5.102" stroke="black" fill="none" stroke-linecap="round"></path><path d="M 107.000,101.063 C 117.711,102.878 117.553,102.022 128.000,106.063" stroke-width="2.848" stroke="black" fill="none" stroke-linecap="round"></path><path d="M 128.000,106.063 C 139.255,108.648 138.711,109.378 149.000,114.063" stroke-width="2.536" stroke="black" fill="none" stroke-linecap="round"></path><path d="M 149.000,114.063 C 162.269,121.307 161.755,121.148 173.000,131.063" stroke-width="2.121" stroke="black" fill="none" stroke-linecap="round"></path><path d="M 173.000,131.063 C 179.436,136.838 178.769,136.307 182.000,144.063" stroke-width="2.620" stroke="black" fill="none" stroke-linecap="round"></path><path d="M 182.000,144.063 C 185.057,153.342 184.936,152.338 184.000,162.063" stroke-width="2.692" stroke="black" fill="none" stroke-linecap="round"></path><path d="M 184.000,162.063 C 183.492,172.010 183.057,169.842 178.000,177.063" stroke-width="2.824" stroke="black" fill="none" stroke-linecap="round"></path><path d="M 178.000,177.063 C 168.877,182.927 170.992,183.510 159.000,185.063" stroke-width="2.557" stroke="black" fill="none" stroke-linecap="round"></path><path d="M 159.000,185.063 C 149.956,185.640 150.377,186.927 141.000,185.063" stroke-width="2.677" stroke="black" fill="none" stroke-linecap="round"></path><path d="M 141.000,185.063 C 134.486,184.143 134.456,184.640 128.000,183.063" stroke-width="3.005" stroke="black" fill="none" stroke-linecap="round"></path><path d="M 128.000,183.063 C 122.472,183.647 125.486,182.643 123.000,182.063" stroke-width="3.881" stroke="black" fill="none" stroke-linecap="round"></path><path d="M 123.000,182.063 C 127.921,176.877 124.472,177.647 132.000,171.063" stroke-width="4.101" stroke="black" fill="none" stroke-linecap="round"></path><path d="M 132.000,171.063 C 150.741,142.881 151.421,143.377 170.000,115.063" stroke-width="1.774" stroke="black" fill="none" stroke-linecap="round"></path><path d="M 170.000,115.063 C 178.139,104.161 177.741,103.881 186.000,93.063" stroke-width="1.980" stroke="black" fill="none" stroke-linecap="round"></path><path d="M 186.000,93.063 C 198.793,65.575 195.139,80.161 204.000,67.063" stroke-width="1.971" stroke="black" fill="none" stroke-linecap="round"></path><path d="M 204.000,67.063 C 205.300,83.085 209.293,68.575 207.000,99.063" stroke-width="2.965" stroke="black" fill="none" stroke-linecap="round"></path><path d="M 207.000,99.063 C 207.705,106.619 207.800,106.585 209.000,114.063" stroke-width="3.028" stroke="black" fill="none" stroke-linecap="round"></path><path d="M 209.000,114.063 C 209.790,118.130 209.705,118.119 211.000,122.063" stroke-width="3.476" stroke="black" fill="none" stroke-linecap="round"></path><path d="M 211.000,122.063 C 213.920,125.453 211.790,124.630 213.000,127.063" stroke-width="4.328" stroke="black" fill="none" stroke-linecap="round"></path><path d="M 213.000,127.063 C 210.122,128.716 211.920,128.953 207.000,129.063" stroke-width="4.610" stroke="black" fill="none" stroke-linecap="round"></path><path d="M 207.000,129.063 C 196.507,129.771 196.622,130.216 186.000,130.063" stroke-width="2.912" stroke="black" fill="none" stroke-linecap="round"></path><path d="M 186.000,130.063 C 160.482,130.059 160.507,130.771 135.000,131.063" stroke-width="1.602" stroke="black" fill="none" stroke-linecap="round"></path><path d="M 135.000,131.063 C 96.646,131.298 96.982,132.559 59.000,135.063" stroke-width="1.151" stroke="black" fill="none" stroke-linecap="round"></path><path d="M 59.000,135.063 C 43.249,139.868 51.646,135.798 45.000,140.063" stroke-width="1.997" stroke="black" fill="none" stroke-linecap="round"></path><path d="M 45.000,140.063 C 56.826,139.356 47.749,140.368 68.000,136.063" stroke-width="3.045" stroke="black" fill="none" stroke-linecap="round"></path><path d="M 68.000,136.063 C 104.290,124.859 104.326,125.356 140.000,112.063" stroke-width="1.389" stroke="black" fill="none" stroke-linecap="round"></path><path d="M 140.000,112.063 C 163.629,101.499 164.290,103.359 188.000,93.063" stroke-width="1.755" stroke="black" fill="none" stroke-linecap="round"></path><path d="M 188.000,93.063 C 220.335,80.007 215.629,83.499 244.000,76.063" stroke-width="1.382" stroke="black" fill="none" stroke-linecap="round"></path><path d="M 244.000,76.063 C 243.570,80.267 247.335,75.507 242.000,84.063" stroke-width="2.683" stroke="black" fill="none" stroke-linecap="round"></path><path d="M 242.000,84.063 C 237.498,94.824 237.570,94.767 232.000,105.063" stroke-width="2.460" stroke="black" fill="none" stroke-linecap="round"></path><path d="M 232.000,105.063 C 222.890,121.798 222.998,121.824 213.000,138.063" stroke-width="1.904" stroke="black" fill="none" stroke-linecap="round"></path><path d="M 213.000,138.063 C 200.283,158.748 200.390,158.798 187.000,179.063" stroke-width="1.516" stroke="black" fill="none" stroke-linecap="round"></path><path d="M 187.000,179.063 C 173.355,196.921 174.783,197.748 162.000,216.063" stroke-width="1.493" stroke="black" fill="none" stroke-linecap="round"></path><path d="M 162.000,216.063 C 155.716,226.915 155.855,226.421 152.000,238.063" stroke-width="1.991" stroke="black" fill="none" stroke-linecap="round"></path><path d="M 152.000,238.063 C 150.777,242.586 151.216,240.415 153.000,243.063" stroke-width="3.201" stroke="black" fill="none" stroke-linecap="round"></path><path d="M 153.000,243.063 C 167.010,246.807 164.777,245.586 180.000,244.063" stroke-width="2.404" stroke="black" fill="none" stroke-linecap="round"></path><path d="M 180.000,244.063 C 202.617,237.496 202.510,239.307 224.000,228.063" stroke-width="1.630" stroke="black" fill="none" stroke-linecap="round"></path><path d="M 224.000,228.063 C 253.172,213.896 253.617,214.996 282.000,199.063" stroke-width="1.277" stroke="black" fill="none" stroke-linecap="round"></path><path d="M 282.000,199.063 C 304.560,187.173 304.672,187.396 327.000,175.063" stroke-width="1.365" stroke="black" fill="none" stroke-linecap="round"></path><path d="M 327.000,175.063 C 342.629,165.063 336.060,170.173 345.000,165.063" stroke-width="2.020" stroke="black" fill="none" stroke-linecap="round"></path><path d="M 345.000,165.063 C 340.970,171.480 346.629,165.063 335.000,175.063" stroke-width="3.238" stroke="black" fill="none" stroke-linecap="round"></path><path d="M 335.000,175.063 C 322.918,181.839 323.470,181.980 310.000,186.063" stroke-width="2.398" stroke="black" fill="none" stroke-linecap="round"></path><path d="M 310.000,186.063 C 296.661,190.083 296.918,190.339 283.000,192.063" stroke-width="2.212" stroke="black" fill="none" stroke-linecap="round"></path><path d="M 283.000,192.063 C 262.015,194.976 262.161,195.083 241.000,196.063" stroke-width="1.758" stroke="black" fill="none" stroke-linecap="round"></path><path d="M 241.000,196.063 C 224.253,198.609 233.015,196.476 225.000,195.063" stroke-width="2.382" stroke="black" fill="none" stroke-linecap="round"></path><path d="M 225.000,195.063 C 232.965,182.832 226.253,189.109 245.000,177.063" stroke-width="2.866" stroke="black" fill="none" stroke-linecap="round"></path><path d="M 245.000,177.063 C 306.558,146.635 305.965,147.832 371.000,125.063" stroke-width="1.125" stroke="black" fill="none" stroke-linecap="round"></path><path d="M 371.000,125.063 C 424.081,109.903 423.058,107.635 478.000,99.063" stroke-width="1.125" stroke="black" fill="none" stroke-linecap="round"></path><path d="M 478.000,99.063 C 518.939,92.537 518.581,90.903 560.000,87.063" stroke-width="1.125" stroke="black" fill="none" stroke-linecap="round"></path><path d="M 560.000,87.063 C 580.053,81.312 571.439,85.537 583.000,85.063" stroke-width="1.915" stroke="black" fill="none" stroke-linecap="round"></path><path d="M 583.000,85.063 C 578.198,94.253 585.553,88.312 571.000,101.063" stroke-width="2.339" stroke="black" fill="none" stroke-linecap="round"></path><path d="M 571.000,101.063 C 559.597,112.337 559.698,111.753 546.000,120.063" stroke-width="2.072" stroke="black" fill="none" stroke-linecap="round"></path><path d="M 546.000,120.063 C 515.111,136.979 515.597,137.337 483.000,151.063" stroke-width="1.227" stroke="black" fill="none" stroke-linecap="round"></path><path d="M 483.000,151.063 C 458.089,162.460 458.111,161.979 432.000,170.063" stroke-width="1.303" stroke="black" fill="none" stroke-linecap="round"></path><path d="M 432.000,170.063 C 382.183,183.580 382.589,184.460 332.000,195.063" stroke-width="1.125" stroke="black" fill="none" stroke-linecap="round"></path><path d="M 332.000,195.063 C 317.784,199.973 323.183,197.080 314.000,197.063" stroke-width="1.696" stroke="black" fill="none" stroke-linecap="round"></path><path d="M 314.000,197.063 C 314.275,189.305 311.284,194.973 319.000,185.063" stroke-width="2.854" stroke="black" fill="none" stroke-linecap="round"></path><path d="M 319.000,185.063 C 340.191,167.768 338.775,167.305 363.000,153.063" stroke-width="1.593" stroke="black" fill="none" stroke-linecap="round"></path><path d="M 363.000,153.063 C 378.802,144.161 378.191,143.268 395.000,136.063" stroke-width="1.682" stroke="black" fill="none" stroke-linecap="round"></path><path d="M 395.000,136.063 C 411.791,126.757 405.802,130.661 417.000,126.063" stroke-width="2.084" stroke="black" fill="none" stroke-linecap="round"></path><path d="M 417.000,126.063 C 414.262,130.944 419.291,125.757 410.000,134.063" stroke-width="3.254" stroke="black" fill="none" stroke-linecap="round"></path><path d="M 410.000,134.063 C 394.197,147.359 393.762,145.944 376.000,156.063" stroke-width="1.881" stroke="black" fill="none" stroke-linecap="round"></path><path d="M 376.000,156.063 C 336.446,175.636 336.697,174.859 295.000,189.063" stroke-width="1.125" stroke="black" fill="none" stroke-linecap="round"></path><path d="M 295.000,189.063 C 264.728,197.261 265.446,198.636 234.000,202.063" stroke-width="1.165" stroke="black" fill="none" stroke-linecap="round"></path><path d="M 234.000,202.063 C 215.911,204.908 216.728,204.761 199.000,204.063" stroke-width="1.528" stroke="black" fill="none" stroke-linecap="round"></path><path d="M 199.000,204.063 C 193.492,202.808 195.911,203.908 194.000,200.063" stroke-width="2.720" stroke="black" fill="none" stroke-linecap="round"></path><path d="M 194.000,200.063 C 196.829,187.140 195.992,189.308 204.000,177.063" stroke-width="2.390" stroke="black" fill="none" stroke-linecap="round"></path><path d="M 204.000,177.063 C 215.729,160.506 215.329,161.140 231.000,148.063" stroke-width="1.852" stroke="black" fill="none" stroke-linecap="round"></path><path d="M 231.000,148.063 C 256.070,125.874 256.229,127.506 285.000,111.063" stroke-width="1.306" stroke="black" fill="none" stroke-linecap="round"></path><path d="M 285.000,111.063 C 320.067,95.771 318.570,93.874 356.000,84.063" stroke-width="1.125" stroke="black" fill="none" stroke-linecap="round"></path><path d="M 356.000,84.063 C 364.986,82.814 364.567,81.271 374.000,82.063" stroke-width="1.850" stroke="black" fill="none" stroke-linecap="round"></path><path d="M 374.000,82.063 C 378.108,80.711 376.986,81.814 380.000,82.063" stroke-width="3.001" stroke="black" fill="none" stroke-linecap="round"></path><path d="M 380.000,82.063 C 381.569,84.623 381.608,83.211 381.000,87.063" stroke-width="3.851" stroke="black" fill="none" stroke-linecap="round"></path><path d="M 381.000,87.063 C 379.509,100.835 378.069,99.623 373.000,112.063" stroke-width="2.460" stroke="black" fill="none" stroke-linecap="round"></path><path d="M 373.000,112.063 C 358.797,135.682 359.509,135.335 341.000,156.063" stroke-width="1.551" stroke="black" fill="none" stroke-linecap="round"></path><path d="M 341.000,156.063 C 327.128,171.096 327.797,171.182 311.000,183.063" stroke-width="1.631" stroke="black" fill="none" stroke-linecap="round"></path><path d="M 311.000,183.063 C 295.240,193.088 296.128,194.096 279.000,202.063" stroke-width="1.673" stroke="black" fill="none" stroke-linecap="round"></path><path d="M 279.000,202.063 C 271.382,205.425 276.240,203.588 273.000,204.063" stroke-width="2.856" stroke="black" fill="none" stroke-linecap="round"></path><path d="M 273.000,204.063 C 284.403,193.157 280.882,197.425 298.000,186.063" stroke-width="2.893" stroke="black" fill="none" stroke-linecap="round"></path><path d="M 298.000,186.063 C 330.795,169.268 330.403,169.157 365.000,156.063" stroke-width="1.306" stroke="black" fill="none" stroke-linecap="round"></path><path d="M 365.000,156.063 C 410.183,139.558 409.795,138.768 456.000,125.063" stroke-width="1.125" stroke="black" fill="none" stroke-linecap="round"></path><path d="M 456.000,125.063 C 508.993,102.951 498.683,111.558 542.000,100.063" stroke-width="1.125" stroke="black" fill="none" stroke-linecap="round"></path><path d="M 542.000,100.063 C 541.626,110.803 548.993,99.451 536.000,118.063" stroke-width="2.162" stroke="black" fill="none" stroke-linecap="round"></path><path d="M 536.000,118.063 C 525.032,131.292 526.126,130.803 511.000,140.063" stroke-width="1.972" stroke="black" fill="none" stroke-linecap="round"></path><path d="M 511.000,140.063 C 480.847,160.148 481.032,158.792 448.000,173.063" stroke-width="1.254" stroke="black" fill="none" stroke-linecap="round"></path><path d="M 448.000,173.063 C 421.329,181.638 422.347,183.148 394.000,186.063" stroke-width="1.257" stroke="black" fill="none" stroke-linecap="round"></path><path d="M 394.000,186.063 C 368.307,189.641 368.829,190.138 343.000,190.063" stroke-width="1.356" stroke="black" fill="none" stroke-linecap="round"></path><path d="M 343.000,190.063 C 333.073,189.844 338.307,190.141 334.000,187.063" stroke-width="2.409" stroke="black" fill="none" stroke-linecap="round"></path><path d="M 334.000,187.063 C 340.726,178.651 336.073,180.844 349.000,172.063" stroke-width="2.416" stroke="black" fill="none" stroke-linecap="round"></path><path d="M 349.000,172.063 C 367.521,156.480 367.726,157.151 388.000,144.063" stroke-width="1.666" stroke="black" fill="none" stroke-linecap="round"></path><path d="M 388.000,144.063 C 415.147,128.829 414.521,127.980 443.000,115.063" stroke-width="1.316" stroke="black" fill="none" stroke-linecap="round"></path><path d="M 443.000,115.063 C 458.913,107.836 458.647,107.329 475.000,101.063" stroke-width="1.645" stroke="black" fill="none" stroke-linecap="round"></path><path d="M 475.000,101.063 C 483.190,97.913 477.913,99.836 481.000,99.063" stroke-width="2.809" stroke="black" fill="none" stroke-linecap="round"></path><path d="M 481.000,99.063 C 459.089,113.390 463.190,108.413 435.000,122.063" stroke-width="2.352" stroke="black" fill="none" stroke-linecap="round"></path><path d="M 435.000,122.063 C 396.193,136.653 396.589,135.890 356.000,144.063" stroke-width="1.221" stroke="black" fill="none" stroke-linecap="round"></path><path d="M 356.000,144.063 C 306.125,152.528 306.693,153.153 256.000,155.063" stroke-width="1.125" stroke="black" fill="none" stroke-linecap="round"></path><path d="M 256.000,155.063 C 210.169,159.835 217.125,157.028 178.000,153.063" stroke-width="1.125" stroke="black" fill="none" stroke-linecap="round"></path><path d="M 178.000,153.063 C 177.261,145.384 172.169,151.835 180.000,139.063" stroke-width="2.040" stroke="black" fill="none" stroke-linecap="round"></path><path d="M 180.000,139.063 C 184.454,130.155 183.761,130.384 191.000,123.063" stroke-width="2.418" stroke="black" fill="none" stroke-linecap="round"></path><path d="M 191.000,123.063 C 203.291,111.319 202.454,110.655 216.000,100.063" stroke-width="2.011" stroke="black" fill="none" stroke-linecap="round"></path><path d="M 216.000,100.063 C 223.364,91.770 220.791,95.819 226.000,92.063" stroke-width="2.722" stroke="black" fill="none" stroke-linecap="round"></path><path d="M 226.000,92.063 C 227.781,97.575 227.864,92.270 225.000,101.063" stroke-width="3.960" stroke="black" fill="none" stroke-linecap="round"></path><path d="M 225.000,101.063 C 196.371,138.654 196.281,137.075 163.000,171.063" stroke-width="1.279" stroke="black" fill="none" stroke-linecap="round"></path><path d="M 163.000,171.063 C 143.224,188.579 144.371,189.154 121.000,202.063" stroke-width="1.349" stroke="black" fill="none" stroke-linecap="round"></path><path d="M 121.000,202.063 C 98.348,215.865 98.724,215.579 74.000,225.063" stroke-width="1.327" stroke="black" fill="none" stroke-linecap="round"></path><path d="M 74.000,225.063 C 52.614,233.228 53.348,232.865 31.000,236.063" stroke-width="1.480" stroke="black" fill="none" stroke-linecap="round"></path><path d="M 31.000,236.063 C 20.721,236.151 22.114,237.228 13.000,233.063" stroke-width="2.171" stroke="black" fill="none" stroke-linecap="round"></path><path d="M 13.000,233.063 C 11.000,230.671 10.721,232.151 11.000,228.063" stroke-width="3.284" stroke="black" fill="none" stroke-linecap="round"></path><path d="M 11.000,228.063 C 9.425,220.799 11.000,222.171 13.000,216.063" stroke-width="3.280" stroke="black" fill="none" stroke-linecap="round"></path><path d="M 13.000,216.063 C 30.114,193.301 29.425,194.299 51.000,175.063" stroke-width="1.600" stroke="black" fill="none" stroke-linecap="round"></path><path d="M 51.000,175.063 C 67.353,164.324 65.614,162.301 84.000,154.063" stroke-width="1.623" stroke="black" fill="none" stroke-linecap="round"></path><path d="M 84.000,154.063 C 103.777,141.666 103.853,141.824 124.000,130.063" stroke-width="1.583" stroke="black" fill="none" stroke-linecap="round"></path><path d="M 124.000,130.063 C 138.657,120.555 134.277,124.166 145.000,119.063" stroke-width="2.007" stroke="black" fill="none" stroke-linecap="round"></path><path d="M 145.000,119.063 C 144.224,123.772 147.157,118.555 141.000,126.063" stroke-width="3.453" stroke="black" fill="none" stroke-linecap="round"></path><path d="M 141.000,126.063 C 124.382,136.792 125.224,137.272 107.000,146.063" stroke-width="2.129" stroke="black" fill="none" stroke-linecap="round"></path><path d="M 107.000,146.063 C 94.155,152.481 94.382,152.792 81.000,158.063" stroke-width="2.158" stroke="black" fill="none" stroke-linecap="round"></path><path d="M 81.000,158.063 C 73.140,160.922 77.655,159.481 74.000,160.063" stroke-width="3.124" stroke="black" fill="none" stroke-linecap="round"></path><path d="M 74.000,160.063 C 79.502,155.402 75.640,158.422 86.000,153.063" stroke-width="3.921" stroke="black" fill="none" stroke-linecap="round"></path><path d="M 86.000,153.063 C 104.857,146.993 104.502,146.402 124.000,142.063" stroke-width="2.039" stroke="black" fill="none" stroke-linecap="round"></path><path d="M 124.000,142.063 C 137.841,137.771 137.857,138.493 152.000,136.063" stroke-width="2.078" stroke="black" fill="none" stroke-linecap="round"></path><path d="M 152.000,136.063 C 167.007,135.063 166.841,134.271 182.000,135.063" stroke-width="1.991" stroke="black" fill="none" stroke-linecap="round"></path><path d="M 182.000,135.063 C 191.346,133.401 190.007,135.063 198.000,136.063" stroke-width="2.548" stroke="black" fill="none" stroke-linecap="round"></path><path d="M 198.000,136.063 C 201.332,139.279 201.346,137.401 202.000,143.063" stroke-width="3.320" stroke="black" fill="none" stroke-linecap="round"></path><path d="M 202.000,143.063 C 202.936,148.545 202.832,147.779 201.000,153.063" stroke-width="3.413" stroke="black" fill="none" stroke-linecap="round"></path><path d="M 201.000,153.063 C 196.889,163.255 196.936,162.545 190.000,171.063" stroke-width="2.727" stroke="black" fill="none" stroke-linecap="round"></path><path d="M 190.000,171.063 C 181.161,179.994 181.889,180.255 171.000,187.063" stroke-width="2.402" stroke="black" fill="none" stroke-linecap="round"></path><path d="M 171.000,187.063 C 158.444,197.245 158.161,195.994 144.000,203.063" stroke-width="2.027" stroke="black" fill="none" stroke-linecap="round"></path><path d="M 144.000,203.063 C 121.685,210.587 122.444,211.745 99.000,216.063" stroke-width="1.625" stroke="black" fill="none" stroke-linecap="round"></path><path d="M 99.000,216.063 C 87.483,217.952 92.685,217.587 86.000,217.063" stroke-width="2.436" stroke="black" fill="none" stroke-linecap="round"></path><path d="M 86.000,217.063 C 90.035,215.131 84.983,216.452 94.000,213.063" stroke-width="3.622" stroke="black" fill="none" stroke-linecap="round"></path><path d="M 94.000,213.063 C 112.401,201.751 113.035,203.131 132.000,193.063" stroke-width="1.983" stroke="black" fill="none" stroke-linecap="round"></path><path d="M 132.000,193.063 C 161.125,180.508 160.901,180.251 191.000,170.063" stroke-width="1.762" stroke="black" fill="none" stroke-linecap="round"></path><path d="M 191.000,170.063 C 232.883,156.181 232.625,155.508 275.000,143.063" stroke-width="1.125" stroke="black" fill="none" stroke-linecap="round"></path><path d="M 275.000,143.063 C 293.847,135.377 293.883,137.181 313.000,132.063" stroke-width="1.445" stroke="black" fill="none" stroke-linecap="round"></path><path d="M 313.000,132.063 C 327.587,130.934 319.847,130.877 327.000,134.063" stroke-width="2.262" stroke="black" fill="none" stroke-linecap="round"></path><path d="M 327.000,134.063 C 319.265,142.222 326.087,138.934 310.000,148.063" stroke-width="2.443" stroke="black" fill="none" stroke-linecap="round"></path><path d="M 310.000,148.063 C 295.839,156.317 296.265,156.722 281.000,163.063" stroke-width="1.995" stroke="black" fill="none" stroke-linecap="round"></path><path d="M 281.000,163.063 C 268.272,168.891 268.339,168.817 255.000,173.063" stroke-width="2.089" stroke="black" fill="none" stroke-linecap="round"></path><path d="M 255.000,173.063 C 227.406,182.959 233.272,179.891 211.000,185.063" stroke-width="1.606" stroke="black" fill="none" stroke-linecap="round"></path><path d="M 211.000,185.063 C 212.261,180.010 207.906,185.459 216.000,178.063" stroke-width="3.023" stroke="black" fill="none" stroke-linecap="round"></path><path d="M 216.000,178.063 C 237.328,168.466 236.261,167.510 259.000,160.063" stroke-width="2.360" stroke="black" fill="none" stroke-linecap="round"></path><path d="M 259.000,160.063 C 265.471,157.177 261.828,158.966 265.000,159.063" stroke-width="3.377" stroke="black" fill="none" stroke-linecap="round"></path><path d="M 265.000,159.063 C 260.291,167.748 263.471,165.177 255.000,176.063" stroke-width="3.812" stroke="black" fill="none" stroke-linecap="round"></path><path d="M 255.000,176.063 C 249.642,184.164 249.791,184.248 244.000,192.063" stroke-width="3.027" stroke="black" fill="none" stroke-linecap="round"></path><path d="M 244.000,192.063 C 237.125,201.658 237.142,201.664 230.000,211.063" stroke-width="2.456" stroke="black" fill="none" stroke-linecap="round"></path><path d="M 230.000,211.063 C 224.516,218.075 224.625,218.158 219.000,225.063" stroke-width="3.014" stroke="black" fill="none" stroke-linecap="round"></path><path d="M 219.000,225.063 C 214.487,229.037 217.016,227.575 215.000,230.063" stroke-width="3.843" stroke="black" fill="none" stroke-linecap="round"></path><path d="M 215.000,230.063 C 217.977,229.365 215.487,231.037 221.000,229.063" stroke-width="4.048" stroke="black" fill="none" stroke-linecap="round"></path><path d="M 221.000,229.063 C 227.987,228.209 227.977,228.365 235.000,228.063" stroke-width="3.319" stroke="black" fill="none" stroke-linecap="round"></path><path d="M 235.000,228.063 C 252.000,228.063 251.987,227.709 269.000,228.063" stroke-width="2.086" stroke="black" fill="none" stroke-linecap="round"></path><path d="M 269.000,228.063 C 287.500,228.063 287.500,228.063 306.000,228.063" stroke-width="1.855" stroke="black" fill="none" stroke-linecap="round"></path><path d="M 306.000,228.063 C 323.500,228.063 323.500,228.063 341.000,228.063" stroke-width="1.844" stroke="black" fill="none" stroke-linecap="round"></path><path d="M 341.000,228.063 C 356.002,227.875 356.000,228.063 371.000,228.063" stroke-width="1.973" stroke="black" fill="none" stroke-linecap="round"></path><path d="M 371.000,228.063 C 395.998,228.772 396.002,228.375 421.000,229.063" stroke-width="1.503" stroke="black" fill="none" stroke-linecap="round"></path><path d="M 421.000,229.063 C 439.000,229.063 438.998,229.272 457.000,229.063" stroke-width="1.702" stroke="black" fill="none" stroke-linecap="round"></path><path d="M 457.000,229.063 C 466.500,229.063 466.500,229.063 476.000,229.063" stroke-width="2.274" stroke="black" fill="none" stroke-linecap="round"></path><path d="M 476.000,229.063 C 480.000,229.063 480.000,229.063 484.000,229.063" stroke-width="3.139" stroke="black" fill="none" stroke-linecap="round"></path></svg>