<svg xmlns="http://www.w3.org/2000/svg" xmlns:xlink="http://www.w3.org/1999/xlink" viewBox="0 0 500 250" width="500" height="250"><path d="M 103.000,123.063 C 112.379,119.195 112.500,119.563 122.000,116.063" stroke-width="5.217" stroke="black" fill="none" stroke-linecap="round"></path><path d="M 122.000,116.063 C 133.902,112.164 133.879,112.195 146.000,109.063" stroke-width="2.740" stroke="black" fill="none" stroke-linecap="round"></path><path d="M 146.000,109.063 C 153.462,107.319 153.402,107.164 161.000,106.063" stroke-width="2.891" stroke="black" fill="none" stroke-linecap="round"></path><path d="M 161.000,106.063 C 165.500,105.563 165.462,105.319 170.000,105.063" stroke-width="3.348" stroke="black" fill="none" stroke-linecap="round"></path><path d="M 170.000,105.063 C 175.951,102.399 174.500,104.563 179.000,104.063" stroke-width="3.567" stroke="black" fill="none" stroke-linecap="round"></path><path d="M 179.000,104.063 C 181.161,107.516 181.451,105.399 181.000,111.063" stroke-width="4.237" stroke="black" fill="none" stroke-linecap="round"></path><path d="M 181.000,111.063 C 181.079,119.179 180.661,118.516 178.000,126.063" stroke-width="3.255" stroke="black" fill="none" stroke-linecap="round"></path><path d="M 178.000,126.063 C 172.555,138.903 172.579,138.179 164.000,149.063" stroke-width="2.417" stroke="black" fill="none" stroke-linecap="round"></path><path d="M 164.000,149.063 C 155.669,157.616 156.555,157.903 146.000,164.063" stroke-width="2.381" stroke="black" fill="none" stroke-linecap="round"></path><path d="M 146.000,164.063 C 135.899,172.503 139.169,168.616 131.000,171.063" stroke-width="2.637" stroke="black" fill="none" stroke-linecap="round"></path><path d="M 131.000,171.063 C 129.164,165.115 127.399,170.003 129.000,159.063" stroke-width="3.834" stroke="black" fill="none" stroke-linecap="round"></path><path d="M 129.000,159.063 C 129.023,146.525 128.664,146.615 130.000,134.063" stroke-width="2.517" stroke="black" fill="none" stroke-linecap="round"></path><path d="M 130.000,134.063 C 130.484,120.870 131.023,121.025 133.000,108.063" stroke-width="2.298" stroke="black" fill="none" stroke-linecap="round"></path><path d="M 133.000,108.063 C 136.376,92.859 135.984,92.870 141.000,78.063" stroke-width="2.014" stroke="black" fill="none" stroke-linecap="round"></path><path d="M 141.000,78.063 C 144.144,68.909 143.876,68.859 148.000,60.063" stroke-width="2.411" stroke="black" fill="none" stroke-linecap="round"></path><path d="M 148.000,60.063 C 152.511,49.256 152.644,49.409 158.000,39.063" stroke-width="2.327" stroke="black" fill="none" stroke-linecap="round"></path><path d="M 158.000,39.063 C 160.933,31.786 159.511,36.256 162.000,34.063" stroke-width="3.621" stroke="black" fill="none" stroke-linecap="round"></path><path d="M 162.000,34.063 C 167.898,52.456 168.433,47.786 173.000,71.063" stroke-width="3.296" stroke="black" fill="none" stroke-linecap="round"></path><path d="M 173.000,71.063 C 176.481,83.469 176.398,83.456 179.000,96.063" stroke-width="2.477" stroke="black" fill="none" stroke-linecap="round"></path><path d="M 179.000,96.063 C 180.819,106.027 180.981,105.969 182.000,116.063" stroke-width="2.482" stroke="black" fill="none" stroke-linecap="round"></path><path d="M 182.000,116.063 C 182.695,123.056 182.819,123.027 183.000,130.063" stroke-width="2.873" stroke="black" fill="none" stroke-linecap="round"></path><path d="M 183.000,130.063 C 184.400,135.142 183.195,134.556 183.000,139.063" stroke-width="3.346" stroke="black" fill="none" stroke-linecap="round"></path><path d="M 183.000,139.063 C 180.956,142.338 181.900,142.142 178.000,144.063" stroke-width="3.802" stroke="black" fill="none" stroke-linecap="round"></path><path d="M 178.000,144.063 C 174.583,145.525 174.956,145.838 171.000,146.063" stroke-width="3.897" stroke="black" fill="none" stroke-linecap="round"></path><path d="M 171.000,146.063 C 164.442,147.523 164.583,147.025 158.000,147.063" stroke-width="3.368" stroke="black" fill="none" stroke-linecap="round"></path><path d="M 158.000,147.063 C 150.173,146.453 150.442,146.523 143.000,144.063" stroke-width="3.288" stroke="black" fill="none" stroke-linecap="round"></path><path d="M 143.000,144.063 C 134.818,142.950 138.173,142.453 134.000,139.063" stroke-width="3.614" stroke="black" fill="none" stroke-linecap="round"></path><path d="M 134.000,139.063 C 135.421,131.453 132.818,133.450 139.000,125.063" stroke-width="4.168" stroke="black" fill="none" stroke-linecap="round"></path><path d="M 139.000,125.063 C 143.519,119.578 142.421,118.953 148.000,114.063" stroke-width="3.328" stroke="black" fill="none" stroke-linecap="round"></path><path d="M 148.000,114.063 C 149.519,111.012 150.019,111.578 152.000,109.063" stroke-width="3.825" stroke="black" fill="none" stroke-linecap="round"></path><path d="M 152.000,109.063 C 159.175,101.779 156.519,105.512 162.000,103.063" stroke-width="3.469" stroke="black" fill="none" stroke-linecap="round"></path><path d="M 162.000,103.063 C 165.101,109.083 164.675,104.279 163.000,114.063" stroke-width="4.309" stroke="black" fill="none" stroke-linecap="round"></path><path d="M 163.000,114.063 C 150.645,141.733 151.601,141.083 135.000,167.063" stroke-width="1.580" stroke="black" fill="none" stroke-linecap="round"></path><path d="M 135.000,167.063 C 128.517,175.147 129.645,175.733 121.000,182.063" stroke-width="2.153" stroke="black" fill="none" stroke-linecap="round"></path><path d="M 121.000,182.063 C 115.898,187.287 116.017,186.647 110.000,190.063" stroke-width="2.752" stroke="black" fill="none" stroke-linecap="round"></path><path d="M 110.000,190.063 C 105.395,191.856 107.398,191.287 104.000,190.063" stroke-width="3.905" stroke="black" fill="none" stroke-linecap="round"></path><path d="M 104.000,190.063 C 104.414,185.306 101.895,187.356 103.000,181.063" stroke-width="4.248" stroke="black" fill="none" stroke-linecap="round"></path><path d="M 103.000,181.063 C 99.198,173.689 100.414,173.306 96.000,166.063" stroke-width="3.231" stroke="black" fill="none" stroke-linecap="round"></path><path d="M 96.000,166.063 C 92.430,158.236 92.698,158.189 90.000,150.063" stroke-width="2.855" stroke="black" fill="none" stroke-linecap="round"></path><path d="M 90.000,150.063 C 86.956,139.626 86.930,139.736 85.000,129.063" stroke-width="2.516" stroke="black" fill="none" stroke-linecap="round"></path><path d="M 85.000,129.063 C 84.197,125.873 84.456,126.126 85.000,123.063" stroke-width="3.507" stroke="black" fill="none" stroke-linecap="round"></path><path d="M 85.000,123.063 C 86.167,118.367 86.197,118.873 89.000,115.063" stroke-width="3.577" stroke="black" fill="none" stroke-linecap="round"></path><path d="M 89.000,115.063 C 92.686,111.489 92.167,111.367 97.000,109.063" stroke-width="3.604" stroke="black" fill="none" stroke-linecap="round"></path><path d="M 97.000,109.063 C 100.848,106.985 100.686,106.989 105.000,106.063" stroke-width="3.648" stroke="black" fill="none" stroke-linecap="round"></path><path d="M 105.000,106.063 C 114.458,103.624 114.348,103.985 124.000,103.063" stroke-width="2.807" stroke="black" fill="none" stroke-linecap="round"></path><path d="M 124.000,103.063 C 131.634,102.793 131.458,102.624 139.000,104.063" stroke-width="2.871" stroke="black" fill="none" stroke-linecap="round"></path><path d="M 139.000,104.063 C 146.169,105.603 146.134,105.293 153.000,108.063" stroke-width="3.034" stroke="black" fill="none" stroke-linecap="round"></path><path d="M 153.000,108.063 C 159.268,109.514 158.669,110.103 164.000,113.063" stroke-width="3.207" stroke="black" fill="none" stroke-linecap="round"></path><path d="M 164.000,113.063 C 169.096,117.657 169.268,117.014 173.000,123.063" stroke-width="3.160" stroke="black" fill="none" stroke-linecap="round"></path><path d="M 173.000,123.063 C 176.067,126.773 175.596,126.657 177.000,131.063" stroke-width="3.598" stroke="black" fill="none" stroke-linecap="round"></path><path d="M 177.000,131.063 C 181.920,140.485 178.567,138.273 178.000,146.063" stroke-width="3.208" stroke="black" fill="none" stroke-linecap="round"></path><path d="M 178.000,146.063 C 165.732,160.525 168.920,158.985 151.000,168.063" stroke-width="2.722" stroke="black" fill="none" stroke-linecap="round"></path><path d="M 151.000,168.063 C 142.951,168.725 144.232,171.525 135.000,168.063" stroke-width="2.843" stroke="black" fill="none" stroke-linecap="round"></path><path d="M 135.000,168.063 C 124.623,167.812 124.951,167.225 115.000,165.063" stroke-width="2.645" stroke="black" fill="none" stroke-linecap="round"></path><path d="M 115.000,165.063 C 107.134,162.139 107.123,162.812 100.000,158.063" stroke-width="2.785" stroke="black" fill="none" stroke-linecap="round"></path><path d="M 100.000,158.063 C 96.102,156.215 96.634,156.139 94.000,153.063" stroke-width="3.456" stroke="black" fill="none" stroke-linecap="round"></path><path d="M 94.000,153.063 C 91.700,148.163 91.102,148.715 90.000,143.063" stroke-width="3.390" stroke="black" fill="none" stroke-linecap="round"></path><path d="M 90.000,143.063 C 87.644,137.695 88.200,137.663 87.000,132.063" stroke-width="3.315" stroke="black" fill="none" stroke-linecap="round"></path><path d="M 87.000,132.063 C 86.000,120.062 85.644,120.195 86.000,108.063" stroke-width="2.559" stroke="black" fill="none" stroke-linecap="round"></path><path d="M 86.000,108.063 C 82.316,95.217 86.000,97.062 87.000,86.063" stroke-width="2.482" stroke="black" fill="none" stroke-linecap="round"></path><path d="M 87.000,86.063 C 96.030,73.142 93.316,73.717 108.000,65.063" stroke-width="2.100" stroke="black" fill="none" stroke-linecap="round"></path><path d="M 108.000,65.063 C 117.281,60.853 116.030,59.642 127.000,59.063" stroke-width="2.420" stroke="black" fill="none" stroke-linecap="round"></path><path d="M 127.000,59.063 C 136.494,58.319 136.281,57.353 146.000,58.063" stroke-width="2.523" stroke="black" fill="none" stroke-linecap="round"></path><path d="M 146.000,58.063 C 155.700,55.621 154.994,57.819 164.000,58.063" stroke-width="2.719" stroke="black" fill="none" stroke-linecap="round"></path><path d="M 164.000,58.063 C 173.783,61.550 172.700,60.621 180.000,68.063" stroke-width="2.682" stroke="black" fill="none" stroke-linecap="round"></path><path d="M 180.000,68.063 C 183.892,73.732 184.283,72.550 185.000,80.063" stroke-width="3.111" stroke="black" fill="none" stroke-linecap="round"></path><path d="M 185.000,80.063 C 187.254,94.087 187.392,93.732 187.000,108.063" stroke-width="2.345" stroke="black" fill="none" stroke-linecap="round"></path><path d="M 187.000,108.063 C 191.448,124.700 186.754,121.587 184.000,135.063" stroke-width="2.711" stroke="black" fill="none" stroke-linecap="round"></path><path d="M 184.000,135.063 C 163.698,156.793 168.448,156.700 141.000,172.063" stroke-width="1.538" stroke="black" fill="none" stroke-linecap="round"></path><path d="M 141.000,172.063 C 135.000,172.063 136.198,175.293 129.000,172.063" stroke-width="2.455" stroke="black" fill="none" stroke-linecap="round"></path><path d="M 129.000,172.063 C 121.595,173.074 125.500,172.063 122.000,172.063" stroke-width="3.357" stroke="black" fill="none" stroke-linecap="round"></path><path d="M 122.000,172.063 C 126.340,169.237 122.595,170.574 131.000,167.063" stroke-width="4.185" stroke="black" fill="none" stroke-linecap="round"></path><path d="M 131.000,167.063 C 141.273,161.943 141.340,162.237 152.000,158.063" stroke-width="2.675" stroke="black" fill="none" stroke-linecap="round"></path><path d="M 152.000,158.063 C 165.100,154.363 164.773,153.443 178.000,150.063" stroke-width="2.295" stroke="black" fill="none" stroke-linecap="round"></path><path d="M 178.000,150.063 C 192.055,145.212 192.100,145.363 206.000,140.063" stroke-width="2.171" stroke="black" fill="none" stroke-linecap="round"></path><path d="M 206.000,140.063 C 224.321,132.515 224.555,133.212 243.000,126.063" stroke-width="1.917" stroke="black" fill="none" stroke-linecap="round"></path><path d="M 243.000,126.063 C 251.988,123.520 251.821,123.015 261.000,121.063" stroke-width="2.346" stroke="black" fill="none" stroke-linecap="round"></path><path d="M 261.000,121.063 C 273.916,116.925 273.988,117.520 287.000,114.063" stroke-width="2.775" stroke="black" fill="none" stroke-linecap="round"></path><path d="M 287.000,114.063 C 292.746,113.302 289.916,113.425 293.000,114.063" stroke-width="3.581" stroke="black" fill="none" stroke-linecap="round"></path><path d="M 293.000,114.063 C 290.646,115.850 293.246,114.802 288.000,117.063" stroke-width="4.458" stroke="black" fill="none" stroke-linecap="round"></path><path d="M 288.000,117.063 C 278.770,121.887 278.646,121.350 269.000,125.063" stroke-width="3.711" stroke="black" fill="none" stroke-linecap="round"></path><path d="M 269.000,125.063 C 256.765,131.686 258.770,128.387 248.000,130.063" stroke-width="3.054" stroke="black" fill="none" stroke-linecap="round"></path><path d="M 248.000,130.063 C 244.418,125.338 243.265,129.186 242.000,120.063" stroke-width="3.973" stroke="black" fill="none" stroke-linecap="round"></path><path d="M 242.000,120.063 C 238.734,113.248 238.918,113.338 237.000,106.063" stroke-width="3.169" stroke="black" fill="none" stroke-linecap="round"></path><path d="M 237.000,106.063 C 233.972,98.256 235.234,98.748 235.000,91.063" stroke-width="3.089" stroke="black" fill="none" stroke-linecap="round"></path><path d="M 235.000,91.063 C 235.665,82.299 235.972,84.256 241.000,78.063" stroke-width="3.004" stroke="black" fill="none" stroke-linecap="round"></path><path d="M 241.000,78.063 C 254.255,68.732 252.665,68.799 269.000,64.063" stroke-width="2.205" stroke="black" fill="none" stroke-linecap="round"></path><path d="M 269.000,64.063 C 284.941,61.070 284.255,59.232 301.000,59.063" stroke-width="2.010" stroke="black" fill="none" stroke-linecap="round"></path><path d="M 301.000,59.063 C 313.004,58.106 312.941,57.570 325.000,57.063" stroke-width="2.169" stroke="black" fill="none" stroke-linecap="round"></path><path d="M 325.000,57.063 C 336.047,56.432 336.004,56.106 347.000,55.063" stroke-width="2.356" stroke="black" fill="none" stroke-linecap="round"></path><path d="M 347.000,55.063 C 355.946,52.911 356.047,53.932 365.000,52.063" stroke-width="2.595" stroke="black" fill="none" stroke-linecap="round"></path><path d="M 365.000,52.063 C 373.502,50.230 371.946,51.411 379.000,52.063" stroke-width="2.866" stroke="black" fill="none" stroke-linecap="round"></path><path d="M 379.000,52.063 C 380.838,54.968 381.002,52.730 380.000,57.063" stroke-width="4.053" stroke="black" fill="none" stroke-linecap="round"></path><path d="M 380.000,57.063 C 378.004,60.242 378.838,59.968 375.000,62.063" stroke-width="4.253" stroke="black" fill="none" stroke-linecap="round"></path><path d="M 375.000,62.063 C 361.984,72.321 361.504,70.242 347.000,77.063" stroke-width="2.262" stroke="black" fill="none" stroke-linecap="round"></path><path d="M 347.000,77.063 C 321.628,82.890 322.484,84.821 296.000,87.063" stroke-width="1.899" stroke="black" fill="none" stroke-linecap="round"></path><path d="M 296.000,87.063 C 278.536,89.468 278.628,89.890 261.000,91.063" stroke-width="1.851" stroke="black" fill="none" stroke-linecap="round"></path><path d="M 261.000,91.063 C 245.441,91.492 245.536,92.468 230.000,93.063" stroke-width="1.946" stroke="black" fill="none" stroke-linecap="round"></path><path d="M 230.000,93.063 C 208.094,99.949 215.941,94.492 202.000,97.063" stroke-width="2.059" stroke="black" fill="none" stroke-linecap="round"></path><path d="M 202.000,97.063 C 204.977,88.946 198.594,95.449 211.000,84.063" stroke-width="3.239" stroke="black" fill="none" stroke-linecap="round"></path><path d="M 211.000,84.063 C 224.181,73.649 223.477,73.946 239.000,67.063" stroke-width="2.119" stroke="black" fill="none" stroke-linecap="round"></path><path d="M 239.000,67.063 C 251.852,62.880 251.181,61.649 265.000,60.063" stroke-width="2.307" stroke="black" fill="none" stroke-linecap="round"></path><path d="M 265.000,60.063 C 279.852,55.315 279.852,56.880 295.000,55.063" stroke-width="2.534" stroke="black" fill="none" stroke-linecap="round"></path><path d="M 295.000,55.063 C 340.386,54.149 339.852,54.315 385.000,58.063" stroke-width="1.245" stroke="black" fill="none" stroke-linecap="round"></path><path d="M 385.000,58.063 C 397.812,59.878 397.386,59.149 409.000,65.063" stroke-width="1.823" stroke="black" fill="none" stroke-linecap="round"></path><path d="M 409.000,65.063 C 419.187,69.658 418.312,69.378 426.000,77.063" stroke-width="2.266" stroke="black" fill="none" stroke-linecap="round"></path><path d="M 426.000,77.063 C 429.915,83.287 430.687,82.158 432.000,90.063" stroke-width="2.716" stroke="black" fill="none" stroke-linecap="round"></path><path d="M 432.000,90.063 C 435.211,96.740 433.915,96.287 434.000,103.063" stroke-width="3.019" stroke="black" fill="none" stroke-linecap="round"></path><path d="M 434.000,103.063 C 431.345,121.565 430.711,120.240 423.000,137.063" stroke-width="1.993" stroke="black" fill="none" stroke-linecap="round"></path><path d="M 423.000,137.063 C 412.161,153.677 413.845,154.065 399.000,168.063" stroke-width="1.780" stroke="black" fill="none" stroke-linecap="round"></path><path d="M 399.000,168.063 C 389.769,176.401 390.661,177.177 380.000,184.063" stroke-width="2.106" stroke="black" fill="none" stroke-linecap="round"></path><path d="M 380.000,184.063 C 363.609,195.575 364.269,196.401 348.000,208.063" stroke-width="1.787" stroke="black" fill="none" stroke-linecap="round"></path><path d="M 348.000,208.063 C 332.929,219.134 333.609,219.575 320.000,232.063" stroke-width="1.727" stroke="black" fill="none" stroke-linecap="round"></path><path d="M 320.000,232.063 C 314.500,243.563 315.429,236.634 313.000,243.063" stroke-width="2.502" stroke="black" fill="none" stroke-linecap="round"></path><path d="M 313.000,243.063 C 313.034,236.502 311.500,242.563 314.000,230.063" stroke-width="3.729" stroke="black" fill="none" stroke-linecap="round"></path><path d="M 314.000,230.063 C 316.779,216.609 316.034,216.502 319.000,203.063" stroke-width="2.390" stroke="black" fill="none" stroke-linecap="round"></path><path d="M 319.000,203.063 C 322.373,186.142 321.779,186.109 324.000,169.063" stroke-width="1.994" stroke="black" fill="none" stroke-linecap="round"></path><path d="M 324.000,169.063 C 325.942,154.508 325.373,154.642 325.000,140.063" stroke-width="2.052" stroke="black" fill="none" stroke-linecap="round"></path><path d="M 325.000,140.063 C 324.138,107.750 322.942,108.508 318.000,77.063" stroke-width="1.361" stroke="black" fill="none" stroke-linecap="round"></path><path d="M 318.000,77.063 C 314.361,68.004 316.138,67.750 309.000,60.063" stroke-width="2.059" stroke="black" fill="none" stroke-linecap="round"></path><path d="M 309.000,60.063 C 301.024,47.587 300.861,48.004 291.000,37.063" stroke-width="2.011" stroke="black" fill="none" stroke-linecap="round"></path><path d="M 291.000,37.063 C 280.453,26.992 281.024,26.587 269.000,18.063" stroke-width="2.056" stroke="black" fill="none" stroke-linecap="round"></path><path d="M 269.000,18.063 C 251.486,2.686 250.953,3.992 232.000,-8.938" stroke-width="2.007" stroke="black" fill="none" stroke-linecap="round"></path><path d="M 232.000,-8.938 C 222.230,-15.224 222.986,-14.314 212.000,-15.938" stroke-width="2.636" stroke="black" fill="none" stroke-linecap="round"></path><path d="M 212.000,-15.938 C 197.979,-17.325 200.730,-16.724 189.000,-11.938" stroke-width="2.444" stroke="black" fill="none" stroke-linecap="round"></path><path d="M 189.000,-11.938 C 182.838,-5.476 182.979,-8.325 182.000,2.063" stroke-width="2.764" stroke="black" fill="none" stroke-linecap="round"></path><path d="M 182.000,2.063 C 180.313,18.316 180.338,17.024 184.000,33.063" stroke-width="2.346" stroke="black" fill="none" stroke-linecap="round"></path><path d="M 184.000,33.063 C 188.228,44.418 186.813,44.316 195.000,54.063" stroke-width="2.734" stroke="black" fill="none" stroke-linecap="round"></path><path d="M 195.000,54.063 C 205.879,67.166 204.728,67.918 217.000,80.063" stroke-width="2.004" stroke="black" fill="none" stroke-linecap="round"></path><path d="M 217.000,80.063 C 253.370,121.252 252.879,121.666 289.000,163.063" stroke-width="1.125" stroke="black" fill="none" stroke-linecap="round"></path><path d="M 289.000,163.063 C 302.090,178.990 302.370,178.752 315.000,195.063" stroke-width="1.384" stroke="black" fill="none" stroke-linecap="round"></path><path d="M 315.000,195.063 C 326.730,209.386 326.590,209.490 338.000,224.063" stroke-width="1.589" stroke="black" fill="none" stroke-linecap="round"></path><path d="M 338.000,224.063 C 347.487,237.967 348.230,237.386 358.000,251.063" stroke-width="1.788" stroke="black" fill="none" stroke-linecap="round"></path><path d="M 358.000,251.063 C 376.324,273.215 375.987,273.467 395.000,295.063" stroke-width="1.694" stroke="black" fill="none" stroke-linecap="round"></path><path d="M 395.000,295.063 C 402.822,304.230 402.824,304.215 411.000,313.063" stroke-width="2.046" stroke="black" fill="none" stroke-linecap="round"></path><path d="M 411.000,313.063 C 421.391,324.567 415.322,317.730 420.000,322.063" stroke-width="3.032" stroke="black" fill="none" stroke-linecap="round"></path><path d="M 420.000,322.063 C 412.711,306.295 416.391,315.567 401.000,295.063" stroke-width="3.273" stroke="black" fill="none" stroke-linecap="round"></path><path d="M 401.000,295.063 C 386.878,283.521 388.211,282.795 371.000,275.063" stroke-width="2.149" stroke="black" fill="none" stroke-linecap="round"></path><path d="M 371.000,275.063 C 333.600,253.903 333.378,255.021 294.000,238.063" stroke-width="1.125" stroke="black" fill="none" stroke-linecap="round"></path><path d="M 294.000,238.063 C 232.824,215.565 233.600,213.903 171.000,195.063" stroke-width="1.125" stroke="black" fill="none" stroke-linecap="round"></path><path d="M 171.000,195.063 C 134.110,185.198 134.824,183.065 98.000,173.063" stroke-width="1.125" stroke="black" fill="none" stroke-linecap="round"></path><path d="M 98.000,173.063 C 72.187,165.453 73.110,164.698 49.000,154.063" stroke-width="1.420" stroke="black" fill="none" stroke-linecap="round"></path><path d="M 49.000,154.063 C 44.636,149.847 43.687,151.453 41.000,145.063" stroke-width="2.387" stroke="black" fill="none" stroke-linecap="round"></path><path d="M 41.000,145.063 C 34.240,137.542 35.136,137.347 30.000,129.063" stroke-width="2.493" stroke="black" fill="none" stroke-linecap="round"></path><path d="M 30.000,129.063 C 28.420,124.834 28.240,125.542 29.000,121.063" stroke-width="3.252" stroke="black" fill="none" stroke-linecap="round"></path><path d="M 29.000,121.063 C 29.769,117.736 29.420,118.334 32.000,116.063" stroke-width="3.855" stroke="black" fill="none" stroke-linecap="round"></path><path d="M 32.000,116.063 C 36.268,113.289 35.769,113.236 41.000,112.063" stroke-width="3.699" stroke="black" fill="none" stroke-linecap="round"></path><path d="M 41.000,112.063 C 49.932,109.743 49.768,109.789 59.000,109.063" stroke-width="2.878" stroke="black" fill="none" stroke-linecap="round"></path><path d="M 59.000,109.063 C 70.000,109.063 69.932,108.243 81.000,109.063" stroke-width="2.566" stroke="black" fill="none" stroke-linecap="round"></path><path d="M 81.000,109.063 C 93.500,109.063 93.500,109.063 106.000,109.063" stroke-width="2.295" stroke="black" fill="none" stroke-linecap="round"></path><path d="M 106.000,109.063 C 122.139,107.499 122.000,109.063 138.000,109.063" stroke-width="2.043" stroke="black" fill="none" stroke-linecap="round"></path><path d="M 138.000,109.063 C 157.681,111.806 157.639,110.999 177.000,116.063" stroke-width="1.834" stroke="black" fill="none" stroke-linecap="round"></path><path d="M 177.000,116.063 C 188.296,117.521 187.181,118.306 197.000,122.063" stroke-width="2.393" stroke="black" fill="none" stroke-linecap="round"></path><path d="M 197.000,122.063 C 202.208,126.431 199.796,123.521 200.000,128.063" stroke-width="3.732" stroke="black" fill="none" stroke-linecap="round"></path><path d="M 200.000,128.063 C 187.695,136.811 190.708,134.931 174.000,139.063" stroke-width="2.356" stroke="black" fill="none" stroke-linecap="round"></path><path d="M 174.000,139.063 C 150.397,141.670 151.195,142.811 127.000,140.063" stroke-width="1.620" stroke="black" fill="none" stroke-linecap="round"></path><path d="M 127.000,140.063 C 84.926,135.619 84.897,137.170 43.000,130.063" stroke-width="1.125" stroke="black" fill="none" stroke-linecap="round"></path><path d="M 43.000,130.063 C 2.020,123.923 1.926,124.619 -39.000,118.063" stroke-width="1.201" stroke="black" fill="none" stroke-linecap="round"></path><path d="M -39.000,118.063 C -109.831,106.512 -109.980,107.923 -181.000,98.063" stroke-width="1.125" stroke="black" fill="none" stroke-linecap="round"></path><path d="M -181.000,98.063 C -225.187,95.760 -219.331,93.512 -258.000,92.063" stroke-width="1.125" stroke="black" fill="none" stroke-linecap="round"></path><path d="M -258.000,92.063 C -255.152,90.201 -260.687,91.760 -252.000,90.063" stroke-width="2.404" stroke="black" fill="none" stroke-linecap="round"></path><path d="M -252.000,90.063 C -197.998,87.063 -198.152,87.701 -144.000,87.063" stroke-width="1.125" stroke="black" fill="none" stroke-linecap="round"></path><path d="M -144.000,87.063 C -94.910,87.006 -94.998,87.063 -46.000,90.063" stroke-width="1.125" stroke="black" fill="none" stroke-linecap="round"></path><path d="M -46.000,90.063 C 25.138,94.685 25.090,94.506 96.000,102.063" stroke-width="1.125" stroke="black" fill="none" stroke-linecap="round"></path><path d="M 96.000,102.063 C 207.613,114.179 207.638,113.685 319.000,128.063" stroke-width="1.125" stroke="black" fill="none" stroke-linecap="round"></path><path d="M 319.000,128.063 C 384.070,136.588 384.113,136.179 449.000,146.063" stroke-width="1.125" stroke="black" fill="none" stroke-linecap="round"></path><path d="M 449.000,146.063 C 500.698,152.975 500.570,153.588 552.000,162.063" stroke-width="1.125" stroke="black" fill="none" stroke-linecap="round"></path><path d="M 552.000,162.063 C 588.379,168.157 588.198,168.475 624.000,177.063" stroke-width="1.228" stroke="black" fill="none" stroke-linecap="round"></path></svg>