<svg xmlns="http://www.w3.org/2000/svg" xmlns:xlink="http://www.w3.org/1999/xlink" viewBox="0 0 500 250" width="500" height="250"><path d="M 135.000,121.063 C 130.011,120.002 130.000,120.063 125.000,119.063" stroke-width="4.247" stroke="black" fill="none" stroke-linecap="round"></path><path d="M 125.000,119.063 C 117.485,118.189 122.011,118.502 119.000,118.063" stroke-width="4.173" stroke="black" fill="none" stroke-linecap="round"></path><path d="M 119.000,118.063 C 128.003,118.274 123.485,117.689 137.000,118.063" stroke-width="4.352" stroke="black" fill="none" stroke-linecap="round"></path><path d="M 137.000,118.063 C 170.621,118.490 170.503,117.274 204.000,116.063" stroke-width="1.399" stroke="black" fill="none" stroke-linecap="round"></path><path d="M 204.000,116.063 C 225.660,113.885 225.621,114.490 247.000,110.063" stroke-width="1.523" stroke="black" fill="none" stroke-linecap="round"></path><path d="M 247.000,110.063 C 260.647,104.063 259.160,107.885 271.000,104.063" stroke-width="1.946" stroke="black" fill="none" stroke-linecap="round"></path><path d="M 271.000,104.063 C 274.649,107.906 273.647,104.063 273.000,110.063" stroke-width="3.401" stroke="black" fill="none" stroke-linecap="round"></path><path d="M 273.000,110.063 C 266.122,116.672 268.149,116.406 258.000,121.063" stroke-width="2.799" stroke="black" fill="none" stroke-linecap="round"></path><path d="M 258.000,121.063 C 247.186,126.085 247.622,126.672 236.000,130.063" stroke-width="2.465" stroke="black" fill="none" stroke-linecap="round"></path><path d="M 236.000,130.063 C 224.542,133.705 224.686,134.085 213.000,137.063" stroke-width="2.369" stroke="black" fill="none" stroke-linecap="round"></path><path d="M 213.000,137.063 C 185.723,151.532 197.042,141.705 181.000,146.063" stroke-width="2.023" stroke="black" fill="none" stroke-linecap="round"></path><path d="M 181.000,146.063 C 186.825,130.239 176.223,140.532 194.000,115.063" stroke-width="2.975" stroke="black" fill="none" stroke-linecap="round"></path><path d="M 194.000,115.063 C 200.353,102.981 199.825,102.739 207.000,91.063" stroke-width="2.352" stroke="black" fill="none" stroke-linecap="round"></path><path d="M 207.000,91.063 C 215.066,77.100 214.853,76.981 223.000,63.063" stroke-width="2.049" stroke="black" fill="none" stroke-linecap="round"></path><path d="M 223.000,63.063 C 228.156,54.145 228.066,54.100 233.000,45.063" stroke-width="2.372" stroke="black" fill="none" stroke-linecap="round"></path><path d="M 233.000,45.063 C 239.000,37.535 236.156,39.145 239.000,33.063" stroke-width="2.815" stroke="black" fill="none" stroke-linecap="round"></path><path d="M 239.000,33.063 C 235.799,31.223 239.000,31.035 233.000,32.063" stroke-width="3.938" stroke="black" fill="none" stroke-linecap="round"></path><path d="M 233.000,32.063 C 225.717,35.074 225.799,34.223 219.000,39.063" stroke-width="3.172" stroke="black" fill="none" stroke-linecap="round"></path><path d="M 219.000,39.063 C 209.392,44.278 209.717,44.574 201.000,51.063" stroke-width="2.650" stroke="black" fill="none" stroke-linecap="round"></path><path d="M 201.000,51.063 C 185.536,63.188 185.892,63.278 172.000,77.063" stroke-width="1.913" stroke="black" fill="none" stroke-linecap="round"></path><path d="M 172.000,77.063 C 165.005,83.818 165.536,83.688 161.000,92.063" stroke-width="2.348" stroke="black" fill="none" stroke-linecap="round"></path><path d="M 161.000,92.063 C 155.641,102.130 156.505,101.318 155.000,112.063" stroke-width="2.469" stroke="black" fill="none" stroke-linecap="round"></path><path d="M 155.000,112.063 C 155.119,119.410 154.641,117.630 159.000,123.063" stroke-width="3.015" stroke="black" fill="none" stroke-linecap="round"></path><path d="M 159.000,123.063 C 165.211,127.120 163.619,127.410 172.000,128.063" stroke-width="3.010" stroke="black" fill="none" stroke-linecap="round"></path><path d="M 172.000,128.063 C 183.792,129.931 183.211,129.620 195.000,128.063" stroke-width="2.548" stroke="black" fill="none" stroke-linecap="round"></path><path d="M 195.000,128.063 C 207.590,124.328 207.792,125.931 220.000,120.063" stroke-width="2.302" stroke="black" fill="none" stroke-linecap="round"></path><path d="M 220.000,120.063 C 239.448,112.916 239.590,113.328 259.000,106.063" stroke-width="1.792" stroke="black" fill="none" stroke-linecap="round"></path><path d="M 259.000,106.063 C 287.744,95.002 287.948,95.916 317.000,86.063" stroke-width="1.350" stroke="black" fill="none" stroke-linecap="round"></path><path d="M 317.000,86.063 C 326.655,82.976 323.744,84.002 331.000,84.063" stroke-width="2.189" stroke="black" fill="none" stroke-linecap="round"></path><path d="M 331.000,84.063 C 331.050,87.423 332.655,84.476 329.000,89.063" stroke-width="3.557" stroke="black" fill="none" stroke-linecap="round"></path><path d="M 329.000,89.063 C 317.850,97.150 318.550,97.423 306.000,104.063" stroke-width="2.368" stroke="black" fill="none" stroke-linecap="round"></path><path d="M 306.000,104.063 C 287.036,113.299 287.850,114.650 269.000,124.063" stroke-width="1.789" stroke="black" fill="none" stroke-linecap="round"></path><path d="M 269.000,124.063 C 256.208,132.184 256.036,131.799 244.000,141.063" stroke-width="1.948" stroke="black" fill="none" stroke-linecap="round"></path><path d="M 244.000,141.063 C 232.842,147.950 239.708,144.184 236.000,148.063" stroke-width="2.769" stroke="black" fill="none" stroke-linecap="round"></path><path d="M 236.000,148.063 C 254.678,147.438 246.842,148.450 272.000,142.063" stroke-width="3.090" stroke="black" fill="none" stroke-linecap="round"></path><path d="M 272.000,142.063 C 297.376,131.246 298.178,133.938 323.000,121.063" stroke-width="1.659" stroke="black" fill="none" stroke-linecap="round"></path><path d="M 323.000,121.063 C 336.521,116.117 336.376,115.746 350.000,111.063" stroke-width="1.890" stroke="black" fill="none" stroke-linecap="round"></path><path d="M 350.000,111.063 C 369.624,102.787 360.521,107.117 371.000,103.063" stroke-width="2.234" stroke="black" fill="none" stroke-linecap="round"></path><path d="M 371.000,103.063 C 363.463,108.587 372.124,103.287 355.000,112.063" stroke-width="3.275" stroke="black" fill="none" stroke-linecap="round"></path><path d="M 355.000,112.063 C 335.327,120.134 335.463,120.087 315.000,126.063" stroke-width="2.084" stroke="black" fill="none" stroke-linecap="round"></path><path d="M 315.000,126.063 C 275.206,137.436 275.327,137.634 235.000,147.063" stroke-width="1.318" stroke="black" fill="none" stroke-linecap="round"></path><path d="M 235.000,147.063 C 204.123,154.227 204.206,154.436 173.000,160.063" stroke-width="1.226" stroke="black" fill="none" stroke-linecap="round"></path><path d="M 173.000,160.063 C 140.031,172.048 148.123,164.727 123.000,168.063" stroke-width="1.311" stroke="black" fill="none" stroke-linecap="round"></path><path d="M 123.000,168.063 C 123.489,158.271 116.531,166.548 126.000,149.063" stroke-width="2.445" stroke="black" fill="none" stroke-linecap="round"></path><path d="M 126.000,149.063 C 128.598,141.867 127.989,141.771 132.000,135.063" stroke-width="2.788" stroke="black" fill="none" stroke-linecap="round"></path><path d="M 132.000,135.063 C 138.022,124.074 137.598,123.867 144.000,113.063" stroke-width="2.407" stroke="black" fill="none" stroke-linecap="round"></path><path d="M 144.000,113.063 C 147.701,106.660 147.522,106.574 151.000,100.063" stroke-width="2.800" stroke="black" fill="none" stroke-linecap="round"></path><path d="M 151.000,100.063 C 155.664,92.896 152.701,96.660 154.000,93.063" stroke-width="3.438" stroke="black" fill="none" stroke-linecap="round"></path><path d="M 154.000,93.063 C 147.544,97.136 150.664,93.396 141.000,101.063" stroke-width="3.967" stroke="black" fill="none" stroke-linecap="round"></path><path d="M 141.000,101.063 C 132.562,106.170 132.544,106.136 124.000,111.063" stroke-width="2.829" stroke="black" fill="none" stroke-linecap="round"></path><path d="M 124.000,111.063 C 97.706,126.438 97.562,126.170 71.000,141.063" stroke-width="1.691" stroke="black" fill="none" stroke-linecap="round"></path><path d="M 71.000,141.063 C 17.088,171.829 34.706,160.938 -2.000,180.063" stroke-width="1.299" stroke="black" fill="none" stroke-linecap="round"></path><path d="M -2.000,180.063 C 8.162,170.243 -8.412,182.829 20.000,163.063" stroke-width="2.313" stroke="black" fill="none" stroke-linecap="round"></path><path d="M 20.000,163.063 C 38.969,151.857 38.662,151.743 59.000,143.063" stroke-width="1.681" stroke="black" fill="none" stroke-linecap="round"></path><path d="M 59.000,143.063 C 80.076,133.685 79.969,133.857 102.000,127.063" stroke-width="1.565" stroke="black" fill="none" stroke-linecap="round"></path><path d="M 102.000,127.063 C 128.197,118.327 128.076,119.185 155.000,114.063" stroke-width="1.398" stroke="black" fill="none" stroke-linecap="round"></path><path d="M 155.000,114.063 C 172.946,111.547 172.197,111.327 190.000,113.063" stroke-width="1.635" stroke="black" fill="none" stroke-linecap="round"></path><path d="M 190.000,113.063 C 196.631,114.387 195.446,113.547 200.000,118.063" stroke-width="2.566" stroke="black" fill="none" stroke-linecap="round"></path><path d="M 200.000,118.063 C 200.749,121.545 202.131,120.387 201.000,125.063" stroke-width="3.412" stroke="black" fill="none" stroke-linecap="round"></path><path d="M 201.000,125.063 C 201.622,128.644 201.249,128.545 201.000,132.063" stroke-width="3.793" stroke="black" fill="none" stroke-linecap="round"></path><path d="M 201.000,132.063 C 201.125,140.662 199.622,139.644 197.000,147.063" stroke-width="3.153" stroke="black" fill="none" stroke-linecap="round"></path><path d="M 197.000,147.063 C 185.723,163.340 186.625,163.162 172.000,177.063" stroke-width="1.911" stroke="black" fill="none" stroke-linecap="round"></path><path d="M 172.000,177.063 C 162.392,186.585 162.723,186.340 151.000,193.063" stroke-width="2.107" stroke="black" fill="none" stroke-linecap="round"></path><path d="M 151.000,193.063 C 136.124,199.876 136.892,201.085 121.000,206.063" stroke-width="1.919" stroke="black" fill="none" stroke-linecap="round"></path><path d="M 121.000,206.063 C 108.543,210.137 114.124,208.876 107.000,211.063" stroke-width="2.567" stroke="black" fill="none" stroke-linecap="round"></path><path d="M 107.000,211.063 C 111.487,210.003 106.043,211.637 116.000,209.063" stroke-width="3.238" stroke="black" fill="none" stroke-linecap="round"></path><path d="M 116.000,209.063 C 123.548,207.782 123.487,207.503 131.000,206.063" stroke-width="3.039" stroke="black" fill="none" stroke-linecap="round"></path><path d="M 131.000,206.063 C 175.375,195.005 175.548,195.782 220.000,185.063" stroke-width="1.125" stroke="black" fill="none" stroke-linecap="round"></path><path d="M 220.000,185.063 C 272.238,175.095 271.875,173.505 324.000,163.063" stroke-width="1.125" stroke="black" fill="none" stroke-linecap="round"></path><path d="M 324.000,163.063 C 386.000,147.563 386.238,148.595 448.000,132.063" stroke-width="1.125" stroke="black" fill="none" stroke-linecap="round"></path><path d="M 448.000,132.063 C 467.608,126.726 456.000,130.063 464.000,128.063" stroke-width="1.463" stroke="black" fill="none" stroke-linecap="round"></path><path d="M 464.000,128.063 C 443.109,137.588 454.108,131.726 421.000,142.063" stroke-width="2.262" stroke="black" fill="none" stroke-linecap="round"></path><path d="M 421.000,142.063 C 358.586,152.644 359.109,154.588 296.000,162.063" stroke-width="1.125" stroke="black" fill="none" stroke-linecap="round"></path><path d="M 296.000,162.063 C 255.499,167.555 255.586,168.144 215.000,173.063" stroke-width="1.125" stroke="black" fill="none" stroke-linecap="round"></path><path d="M 215.000,173.063 C 193.018,176.203 192.999,176.055 171.000,179.063" stroke-width="1.285" stroke="black" fill="none" stroke-linecap="round"></path><path d="M 171.000,179.063 C 143.955,184.386 154.518,181.203 138.000,183.063" stroke-width="1.663" stroke="black" fill="none" stroke-linecap="round"></path><path d="M 138.000,183.063 C 145.622,179.278 134.955,182.386 153.000,175.063" stroke-width="2.711" stroke="black" fill="none" stroke-linecap="round"></path><path d="M 153.000,175.063 C 162.603,168.261 163.122,169.278 173.000,163.063" stroke-width="2.401" stroke="black" fill="none" stroke-linecap="round"></path><path d="M 173.000,163.063 C 182.821,158.538 182.603,158.261 193.000,155.063" stroke-width="2.456" stroke="black" fill="none" stroke-linecap="round"></path><path d="M 193.000,155.063 C 203.327,149.264 203.321,151.538 214.000,149.063" stroke-width="2.460" stroke="black" fill="none" stroke-linecap="round"></path><path d="M 214.000,149.063 C 233.336,147.912 229.827,148.764 246.000,154.063" stroke-width="2.068" stroke="black" fill="none" stroke-linecap="round"></path><path d="M 246.000,154.063 C 249.698,160.132 250.836,156.412 249.000,166.063" stroke-width="2.735" stroke="black" fill="none" stroke-linecap="round"></path><path d="M 249.000,166.063 C 247.973,178.376 247.698,177.132 242.000,188.063" stroke-width="2.480" stroke="black" fill="none" stroke-linecap="round"></path><path d="M 242.000,188.063 C 230.177,210.482 229.473,208.376 212.000,226.063" stroke-width="1.667" stroke="black" fill="none" stroke-linecap="round"></path><path d="M 212.000,226.063 C 179.235,251.604 181.177,252.482 144.000,272.063" stroke-width="1.301" stroke="black" fill="none" stroke-linecap="round"></path><path d="M 144.000,272.063 C 131.446,277.573 132.735,278.604 119.000,280.063" stroke-width="2.036" stroke="black" fill="none" stroke-linecap="round"></path><path d="M 119.000,280.063 C 113.135,280.108 116.446,280.573 114.000,278.063" stroke-width="3.293" stroke="black" fill="none" stroke-linecap="round"></path><path d="M 114.000,278.063 C 121.510,265.706 118.635,267.108 130.000,254.063" stroke-width="2.273" stroke="black" fill="none" stroke-linecap="round"></path><path d="M 130.000,254.063 C 138.819,241.466 139.010,241.706 149.000,230.063" stroke-width="2.081" stroke="black" fill="none" stroke-linecap="round"></path><path d="M 149.000,230.063 C 163.329,212.772 163.819,213.466 180.000,198.063" stroke-width="1.681" stroke="black" fill="none" stroke-linecap="round"></path><path d="M 180.000,198.063 C 206.850,176.370 205.829,175.272 234.000,155.063" stroke-width="1.237" stroke="black" fill="none" stroke-linecap="round"></path><path d="M 234.000,155.063 C 245.981,144.807 246.350,145.370 259.000,136.063" stroke-width="1.636" stroke="black" fill="none" stroke-linecap="round"></path><path d="M 259.000,136.063 C 285.159,117.149 279.481,122.307 301.000,110.063" stroke-width="1.494" stroke="black" fill="none" stroke-linecap="round"></path><path d="M 301.000,110.063 C 300.816,116.087 304.159,108.649 297.000,119.063" stroke-width="2.867" stroke="black" fill="none" stroke-linecap="round"></path><path d="M 297.000,119.063 C 271.126,140.628 271.316,139.087 242.000,156.063" stroke-width="1.608" stroke="black" fill="none" stroke-linecap="round"></path><path d="M 242.000,156.063 C 212.474,173.876 212.626,171.628 180.000,181.063" stroke-width="1.585" stroke="black" fill="none" stroke-linecap="round"></path><path d="M 180.000,181.063 C 88.934,207.325 90.474,200.876 -2.000,210.063" stroke-width="1.125" stroke="black" fill="none" stroke-linecap="round"></path><path d="M -2.000,210.063 C -68.174,204.130 -60.566,211.825 -119.000,190.063" stroke-width="1.125" stroke="black" fill="none" stroke-linecap="round"></path><path d="M -119.000,190.063 C -118.032,183.440 -124.174,188.630 -114.000,179.063" stroke-width="1.965" stroke="black" fill="none" stroke-linecap="round"></path><path d="M -114.000,179.063 C -101.390,162.095 -100.532,164.440 -84.000,152.063" stroke-width="1.937" stroke="black" fill="none" stroke-linecap="round"></path><path d="M -84.000,152.063 C -8.724,111.515 -10.390,109.595 68.000,74.063" stroke-width="1.125" stroke="black" fill="none" stroke-linecap="round"></path><path d="M 68.000,74.063 C 97.055,60.362 96.776,60.015 127.000,49.063" stroke-width="1.125" stroke="black" fill="none" stroke-linecap="round"></path><path d="M 127.000,49.063 C 150.198,39.922 150.055,40.362 174.000,34.063" stroke-width="1.292" stroke="black" fill="none" stroke-linecap="round"></path><path d="M 174.000,34.063 C 186.870,28.959 182.698,31.922 192.000,33.063" stroke-width="2.046" stroke="black" fill="none" stroke-linecap="round"></path><path d="M 192.000,33.063 C 194.837,41.690 196.870,36.959 194.000,50.063" stroke-width="2.980" stroke="black" fill="none" stroke-linecap="round"></path><path d="M 194.000,50.063 C 192.334,62.048 192.837,61.690 188.000,73.063" stroke-width="2.506" stroke="black" fill="none" stroke-linecap="round"></path><path d="M 188.000,73.063 C 180.009,92.602 180.334,92.548 170.000,111.063" stroke-width="1.812" stroke="black" fill="none" stroke-linecap="round"></path><path d="M 170.000,111.063 C 155.871,133.206 157.509,134.102 143.000,156.063" stroke-width="1.483" stroke="black" fill="none" stroke-linecap="round"></path><path d="M 143.000,156.063 C 123.576,183.674 126.871,184.706 112.000,214.063" stroke-width="1.193" stroke="black" fill="none" stroke-linecap="round"></path><path d="M 112.000,214.063 C 104.805,237.602 103.576,236.174 103.000,261.063" stroke-width="1.653" stroke="black" fill="none" stroke-linecap="round"></path><path d="M 103.000,261.063 C 100.498,274.023 102.305,270.102 107.000,279.063" stroke-width="2.268" stroke="black" fill="none" stroke-linecap="round"></path><path d="M 107.000,279.063 C 124.994,289.181 120.498,289.523 143.000,292.063" stroke-width="2.197" stroke="black" fill="none" stroke-linecap="round"></path><path d="M 143.000,292.063 C 150.431,290.447 149.994,293.181 157.000,287.063" stroke-width="2.704" stroke="black" fill="none" stroke-linecap="round"></path><path d="M 157.000,287.063 C 166.818,281.515 166.931,281.947 176.000,275.063" stroke-width="2.438" stroke="black" fill="none" stroke-linecap="round"></path><path d="M 176.000,275.063 C 185.858,268.933 185.318,268.515 194.000,261.063" stroke-width="2.413" stroke="black" fill="none" stroke-linecap="round"></path><path d="M 194.000,261.063 C 201.472,254.363 200.858,254.433 206.000,246.063" stroke-width="2.568" stroke="black" fill="none" stroke-linecap="round"></path><path d="M 206.000,246.063 C 210.501,237.306 210.472,237.863 212.000,228.063" stroke-width="2.572" stroke="black" fill="none" stroke-linecap="round"></path><path d="M 212.000,228.063 C 214.347,217.982 213.501,218.806 212.000,209.063" stroke-width="2.630" stroke="black" fill="none" stroke-linecap="round"></path><path d="M 212.000,209.063 C 208.213,198.717 209.347,198.982 202.000,190.063" stroke-width="2.527" stroke="black" fill="none" stroke-linecap="round"></path><path d="M 202.000,190.063 C 194.083,178.858 194.213,179.217 184.000,170.063" stroke-width="2.272" stroke="black" fill="none" stroke-linecap="round"></path><path d="M 184.000,170.063 C 170.192,158.249 170.583,158.358 155.000,149.063" stroke-width="1.869" stroke="black" fill="none" stroke-linecap="round"></path><path d="M 155.000,149.063 C 148.048,146.412 148.692,145.249 141.000,144.063" stroke-width="2.540" stroke="black" fill="none" stroke-linecap="round"></path><path d="M 141.000,144.063 C 134.251,141.560 137.548,142.912 134.000,142.063" stroke-width="3.380" stroke="black" fill="none" stroke-linecap="round"></path><path d="M 134.000,142.063 C 136.699,144.666 133.751,142.560 140.000,146.063" stroke-width="4.160" stroke="black" fill="none" stroke-linecap="round"></path><path d="M 140.000,146.063 C 149.707,150.715 149.699,150.166 160.000,153.063" stroke-width="2.844" stroke="black" fill="none" stroke-linecap="round"></path><path d="M 160.000,153.063 C 178.402,156.889 178.207,157.215 197.000,159.063" stroke-width="1.983" stroke="black" fill="none" stroke-linecap="round"></path><path d="M 197.000,159.063 C 216.983,161.009 216.902,161.389 237.000,162.063" stroke-width="1.701" stroke="black" fill="none" stroke-linecap="round"></path><path d="M 237.000,162.063 C 245.510,162.336 245.483,162.509 254.000,162.063" stroke-width="2.391" stroke="black" fill="none" stroke-linecap="round"></path><path d="M 254.000,162.063 C 270.743,161.367 261.010,161.836 268.000,161.063" stroke-width="2.785" stroke="black" fill="none" stroke-linecap="round"></path><path d="M 268.000,161.063 C 251.859,158.804 261.743,160.367 236.000,160.063" stroke-width="3.418" stroke="black" fill="none" stroke-linecap="round"></path><path d="M 236.000,160.063 C 219.641,160.970 220.359,161.304 205.000,166.063" stroke-width="2.256" stroke="black" fill="none" stroke-linecap="round"></path><path d="M 205.000,166.063 C 197.140,170.623 196.641,168.970 190.000,176.063" stroke-width="2.568" stroke="black" fill="none" stroke-linecap="round"></path><path d="M 190.000,176.063 C 182.914,180.542 186.640,178.623 184.000,182.063" stroke-width="3.255" stroke="black" fill="none" stroke-linecap="round"></path><path d="M 184.000,182.063 C 189.650,183.954 185.414,184.042 195.000,183.063" stroke-width="3.890" stroke="black" fill="none" stroke-linecap="round"></path><path d="M 195.000,183.063 C 204.912,181.024 204.650,181.454 214.000,177.063" stroke-width="2.878" stroke="black" fill="none" stroke-linecap="round"></path><path d="M 214.000,177.063 C 224.222,171.929 224.412,172.524 234.000,166.063" stroke-width="2.462" stroke="black" fill="none" stroke-linecap="round"></path><path d="M 234.000,166.063 C 241.102,160.294 241.722,161.429 249.000,156.063" stroke-width="2.644" stroke="black" fill="none" stroke-linecap="round"></path><path d="M 249.000,156.063 C 255.433,152.048 255.102,152.794 262.000,151.063" stroke-width="2.942" stroke="black" fill="none" stroke-linecap="round"></path><path d="M 262.000,151.063 C 266.648,151.004 265.433,150.548 269.000,153.063" stroke-width="3.575" stroke="black" fill="none" stroke-linecap="round"></path><path d="M 269.000,153.063 C 269.789,155.534 270.648,154.504 270.000,158.063" stroke-width="4.032" stroke="black" fill="none" stroke-linecap="round"></path><path d="M 270.000,158.063 C 271.040,161.793 270.289,161.534 270.000,165.063" stroke-width="3.999" stroke="black" fill="none" stroke-linecap="round"></path><path d="M 270.000,165.063 C 268.149,173.933 267.540,172.793 263.000,180.063" stroke-width="3.119" stroke="black" fill="none" stroke-linecap="round"></path><path d="M 263.000,180.063 C 256.493,185.953 257.649,186.433 249.000,190.063" stroke-width="2.821" stroke="black" fill="none" stroke-linecap="round"></path><path d="M 249.000,190.063 C 240.656,194.007 240.993,194.453 232.000,197.063" stroke-width="2.737" stroke="black" fill="none" stroke-linecap="round"></path><path d="M 232.000,197.063 C 223.680,200.505 223.656,200.007 215.000,202.063" stroke-width="2.749" stroke="black" fill="none" stroke-linecap="round"></path><path d="M 215.000,202.063 C 203.989,202.964 204.180,204.005 193.000,204.063" stroke-width="2.530" stroke="black" fill="none" stroke-linecap="round"></path><path d="M 193.000,204.063 C 185.573,204.776 188.989,204.464 185.000,205.063" stroke-width="3.271" stroke="black" fill="none" stroke-linecap="round"></path><path d="M 185.000,205.063 C 188.039,205.507 184.573,205.276 191.000,205.063" stroke-width="3.845" stroke="black" fill="none" stroke-linecap="round"></path><path d="M 191.000,205.063 C 208.144,202.744 208.039,202.507 225.000,199.063" stroke-width="2.197" stroke="black" fill="none" stroke-linecap="round"></path><path d="M 225.000,199.063 C 251.581,192.880 251.644,193.244 278.000,186.063" stroke-width="1.514" stroke="black" fill="none" stroke-linecap="round"></path><path d="M 278.000,186.063 C 313.579,176.834 313.581,176.880 349.000,167.063" stroke-width="1.162" stroke="black" fill="none" stroke-linecap="round"></path><path d="M 349.000,167.063 C 366.035,158.958 357.079,164.834 365.000,162.063" stroke-width="1.949" stroke="black" fill="none" stroke-linecap="round"></path><path d="M 365.000,162.063 C 354.105,173.665 363.035,167.958 343.000,185.063" stroke-width="3.000" stroke="black" fill="none" stroke-linecap="round"></path><path d="M 343.000,185.063 C 335.235,193.312 335.105,193.165 327.000,201.063" stroke-width="3.042" stroke="black" fill="none" stroke-linecap="round"></path><path d="M 327.000,201.063 C 318.246,209.358 318.235,209.312 309.000,217.063" stroke-width="2.437" stroke="black" fill="none" stroke-linecap="round"></path><path d="M 309.000,217.063 C 294.000,228.729 300.246,224.358 291.000,231.063" stroke-width="2.519" stroke="black" fill="none" stroke-linecap="round"></path><path d="M 291.000,231.063 C 295.331,227.331 289.500,232.229 300.000,224.063" stroke-width="3.490" stroke="black" fill="none" stroke-linecap="round"></path><path d="M 300.000,224.063 C 319.653,208.690 320.331,209.831 341.000,196.063" stroke-width="1.743" stroke="black" fill="none" stroke-linecap="round"></path><path d="M 341.000,196.063 C 391.116,167.334 390.653,166.690 442.000,140.063" stroke-width="1.125" stroke="black" fill="none" stroke-linecap="round"></path><path d="M 442.000,140.063 C 467.670,126.300 467.616,126.334 494.000,114.063" stroke-width="1.125" stroke="black" fill="none" stroke-linecap="round"></path><path d="M 494.000,114.063 C 514.510,107.278 503.170,109.800 513.000,107.063" stroke-width="2.025" stroke="black" fill="none" stroke-linecap="round"></path><path d="M 513.000,107.063 C 500.150,110.942 511.010,106.778 487.000,113.063" stroke-width="2.828" stroke="black" fill="none" stroke-linecap="round"></path><path d="M 487.000,113.063 C 469.049,115.952 469.150,115.942 451.000,117.063" stroke-width="2.017" stroke="black" fill="none" stroke-linecap="round"></path><path d="M 451.000,117.063 C 436.466,116.649 436.549,117.952 422.000,117.063" stroke-width="2.005" stroke="black" fill="none" stroke-linecap="round"></path><path d="M 422.000,117.063 C 415.414,118.453 418.966,117.149 416.000,118.063" stroke-width="3.139" stroke="black" fill="none" stroke-linecap="round"></path><path d="M 416.000,118.063 C 420.697,117.018 416.914,117.453 425.000,115.063" stroke-width="3.685" stroke="black" fill="none" stroke-linecap="round"></path><path d="M 425.000,115.063 C 431.737,111.962 431.697,112.018 438.000,108.063" stroke-width="3.500" stroke="black" fill="none" stroke-linecap="round"></path><path d="M 438.000,108.063 C 458.538,95.727 458.237,95.462 478.000,82.063" stroke-width="2.029" stroke="black" fill="none" stroke-linecap="round"></path></svg>