<svg xmlns="http://www.w3.org/2000/svg" xmlns:xlink="http://www.w3.org/1999/xlink" viewBox="0 0 500 250" width="500" height="250"><circle r="1.5" cx="75" cy="134.0625" fill="black"></circle><path d="M 75.000,133.063 C 83.914,130.600 84.000,131.063 93.000,129.063" stroke-width="4.303" stroke="black" fill="none" stroke-linecap="round"></path><path d="M 93.000,129.063 C 116.501,125.570 116.414,125.100 140.000,122.063" stroke-width="1.774" stroke="black" fill="none" stroke-linecap="round"></path><path d="M 140.000,122.063 C 183.418,114.964 183.501,115.570 227.000,109.063" stroke-width="1.125" stroke="black" fill="none" stroke-linecap="round"></path><path d="M 227.000,109.063 C 279.548,102.934 279.418,101.964 332.000,96.063" stroke-width="1.125" stroke="black" fill="none" stroke-linecap="round"></path><path d="M 332.000,96.063 C 393.786,84.431 394.048,87.934 456.000,79.063" stroke-width="1.125" stroke="black" fill="none" stroke-linecap="round"></path><path d="M 456.000,79.063 C 492.978,77.261 492.286,75.931 529.000,79.063" stroke-width="1.125" stroke="black" fill="none" stroke-linecap="round"></path><path d="M 529.000,79.063 C 535.575,79.663 532.978,79.261 536.000,83.063" stroke-width="2.122" stroke="black" fill="none" stroke-linecap="round"></path><path d="M 536.000,83.063 C 538.604,96.458 537.075,91.663 532.000,103.063" stroke-width="2.658" stroke="black" fill="none" stroke-linecap="round"></path><path d="M 532.000,103.063 C 515.381,114.930 519.104,115.958 497.000,122.063" stroke-width="1.828" stroke="black" fill="none" stroke-linecap="round"></path><path d="M 497.000,122.063 C 481.180,127.008 481.881,127.930 465.000,129.063" stroke-width="1.893" stroke="black" fill="none" stroke-linecap="round"></path><path d="M 465.000,129.063 C 449.503,129.746 449.680,131.008 434.000,130.063" stroke-width="1.961" stroke="black" fill="none" stroke-linecap="round"></path><path d="M 434.000,130.063 C 423.649,132.248 425.003,130.246 416.000,130.063" stroke-width="2.488" stroke="black" fill="none" stroke-linecap="round"></path><path d="M 416.000,130.063 C 413.277,127.113 413.149,129.248 413.000,124.063" stroke-width="3.689" stroke="black" fill="none" stroke-linecap="round"></path><path d="M 413.000,124.063 C 413.455,121.226 412.777,121.613 415.000,119.063" stroke-width="4.078" stroke="black" fill="none" stroke-linecap="round"></path><path d="M 415.000,119.063 C 427.685,109.688 418.455,114.226 423.000,110.063" stroke-width="4.153" stroke="black" fill="none" stroke-linecap="round"></path><path d="M 423.000,110.063 C 381.845,120.436 390.185,112.688 340.000,125.063" stroke-width="2.811" stroke="black" fill="none" stroke-linecap="round"></path><path d="M 340.000,125.063 C 282.040,129.890 282.345,131.436 224.000,132.063" stroke-width="1.125" stroke="black" fill="none" stroke-linecap="round"></path><path d="M 224.000,132.063 C 188.486,132.475 188.540,133.390 153.000,132.063" stroke-width="1.125" stroke="black" fill="none" stroke-linecap="round"></path><path d="M 153.000,132.063 C 145.260,132.445 145.486,131.975 138.000,131.063" stroke-width="1.846" stroke="black" fill="none" stroke-linecap="round"></path><path d="M 138.000,131.063 C 132.897,130.530 134.760,130.445 132.000,128.063" stroke-width="2.976" stroke="black" fill="none" stroke-linecap="round"></path><path d="M 132.000,128.063 C 131.292,123.033 130.897,125.030 134.000,120.063" stroke-width="3.543" stroke="black" fill="none" stroke-linecap="round"></path><path d="M 134.000,120.063 C 147.000,105.054 146.792,106.033 163.000,94.063" stroke-width="2.215" stroke="black" fill="none" stroke-linecap="round"></path><path d="M 163.000,94.063 C 205.516,66.707 204.500,65.554 249.000,41.063" stroke-width="1.473" stroke="black" fill="none" stroke-linecap="round"></path><path d="M 249.000,41.063 C 264.177,32.315 264.016,32.207 280.000,25.063" stroke-width="1.668" stroke="black" fill="none" stroke-linecap="round"></path><path d="M 280.000,25.063 C 292.204,19.431 288.177,21.315 297.000,19.063" stroke-width="2.292" stroke="black" fill="none" stroke-linecap="round"></path><path d="M 297.000,19.063 C 295.206,21.747 298.704,18.931 293.000,24.063" stroke-width="3.309" stroke="black" fill="none" stroke-linecap="round"></path><path d="M 293.000,24.063 C 285.076,32.139 285.206,32.247 277.000,40.063" stroke-width="2.557" stroke="black" fill="none" stroke-linecap="round"></path><path d="M 277.000,40.063 C 259.046,58.655 258.576,58.139 240.000,76.063" stroke-width="1.614" stroke="black" fill="none" stroke-linecap="round"></path><path d="M 240.000,76.063 C 211.412,99.934 212.546,101.155 184.000,125.063" stroke-width="1.125" stroke="black" fill="none" stroke-linecap="round"></path><path d="M 184.000,125.063 C 169.588,138.698 169.412,138.434 156.000,153.063" stroke-width="1.430" stroke="black" fill="none" stroke-linecap="round"></path><path d="M 156.000,153.063 C 146.500,161.563 152.088,157.198 149.000,162.063" stroke-width="2.421" stroke="black" fill="none" stroke-linecap="round"></path><path d="M 149.000,162.063 C 160.556,160.576 154.000,163.063 171.000,156.063" stroke-width="3.114" stroke="black" fill="none" stroke-linecap="round"></path><path d="M 171.000,156.063 C 219.235,134.052 219.556,135.076 267.000,111.063" stroke-width="1.125" stroke="black" fill="none" stroke-linecap="round"></path><path d="M 267.000,111.063 C 326.203,82.461 326.235,82.552 385.000,53.063" stroke-width="1.125" stroke="black" fill="none" stroke-linecap="round"></path><path d="M 385.000,53.063 C 419.891,33.345 404.203,43.461 423.000,33.063" stroke-width="1.338" stroke="black" fill="none" stroke-linecap="round"></path><path d="M 423.000,33.063 C 410.295,43.926 425.391,32.845 396.000,52.063" stroke-width="2.329" stroke="black" fill="none" stroke-linecap="round"></path><path d="M 396.000,52.063 C 377.419,62.055 377.795,62.426 358.000,70.063" stroke-width="1.782" stroke="black" fill="none" stroke-linecap="round"></path><path d="M 358.000,70.063 C 329.071,83.200 328.919,82.055 299.000,92.063" stroke-width="1.278" stroke="black" fill="none" stroke-linecap="round"></path><path d="M 299.000,92.063 C 267.011,100.927 281.571,97.200 263.000,98.063" stroke-width="1.555" stroke="black" fill="none" stroke-linecap="round"></path><path d="M 263.000,98.063 C 273.054,88.350 260.011,95.927 285.000,82.063" stroke-width="2.606" stroke="black" fill="none" stroke-linecap="round"></path><path d="M 285.000,82.063 C 302.404,74.801 301.554,73.350 320.000,68.063" stroke-width="1.877" stroke="black" fill="none" stroke-linecap="round"></path><path d="M 320.000,68.063 C 334.660,61.624 325.904,65.801 332.000,64.063" stroke-width="2.613" stroke="black" fill="none" stroke-linecap="round"></path><path d="M 332.000,64.063 C 315.522,79.682 322.660,72.624 296.000,90.063" stroke-width="2.894" stroke="black" fill="none" stroke-linecap="round"></path><path d="M 296.000,90.063 C 251.702,112.381 252.522,113.182 206.000,131.063" stroke-width="1.186" stroke="black" fill="none" stroke-linecap="round"></path><path d="M 206.000,131.063 C 182.608,138.943 183.202,140.381 159.000,146.063" stroke-width="1.653" stroke="black" fill="none" stroke-linecap="round"></path><path d="M 159.000,146.063 C 145.957,150.391 151.108,148.443 143.000,150.063" stroke-width="2.416" stroke="black" fill="none" stroke-linecap="round"></path><path d="M 143.000,150.063 C 146.500,147.563 141.457,149.891 150.000,145.063" stroke-width="3.169" stroke="black" fill="none" stroke-linecap="round"></path><path d="M 150.000,145.063 C 160.545,137.625 160.500,137.563 171.000,130.063" stroke-width="2.451" stroke="black" fill="none" stroke-linecap="round"></path><path d="M 171.000,130.063 C 184.635,121.323 184.045,120.625 197.000,111.063" stroke-width="2.011" stroke="black" fill="none" stroke-linecap="round"></path><path d="M 197.000,111.063 C 207.934,101.465 208.135,101.823 218.000,91.063" stroke-width="2.058" stroke="black" fill="none" stroke-linecap="round"></path><path d="M 218.000,91.063 C 229.496,81.022 222.934,85.965 227.000,80.063" stroke-width="2.672" stroke="black" fill="none" stroke-linecap="round"></path><path d="M 227.000,80.063 C 215.368,81.555 222.996,78.522 205.000,86.063" stroke-width="3.420" stroke="black" fill="none" stroke-linecap="round"></path><path d="M 205.000,86.063 C 192.602,92.438 192.368,91.555 181.000,100.063" stroke-width="2.406" stroke="black" fill="none" stroke-linecap="round"></path><path d="M 181.000,100.063 C 157.175,115.029 157.602,115.438 135.000,132.063" stroke-width="1.517" stroke="black" fill="none" stroke-linecap="round"></path><path d="M 135.000,132.063 C 123.347,142.403 122.675,141.529 112.000,153.063" stroke-width="1.772" stroke="black" fill="none" stroke-linecap="round"></path><path d="M 112.000,153.063 C 104.143,158.063 106.847,157.903 102.000,163.063" stroke-width="2.477" stroke="black" fill="none" stroke-linecap="round"></path><path d="M 102.000,163.063 C 103.254,166.598 101.143,165.063 106.000,167.063" stroke-width="3.484" stroke="black" fill="none" stroke-linecap="round"></path><path d="M 106.000,167.063 C 139.361,174.107 138.754,172.598 173.000,175.063" stroke-width="1.360" stroke="black" fill="none" stroke-linecap="round"></path><path d="M 173.000,175.063 C 227.992,178.090 227.361,176.607 282.000,172.063" stroke-width="1.125" stroke="black" fill="none" stroke-linecap="round"></path><path d="M 282.000,172.063 C 340.043,163.352 339.992,165.590 397.000,150.063" stroke-width="1.125" stroke="black" fill="none" stroke-linecap="round"></path><path d="M 397.000,150.063 C 444.383,136.119 445.043,138.852 492.000,123.063" stroke-width="1.125" stroke="black" fill="none" stroke-linecap="round"></path><path d="M 492.000,123.063 C 524.772,116.440 506.383,119.119 521.000,116.063" stroke-width="1.462" stroke="black" fill="none" stroke-linecap="round"></path><path d="M 521.000,116.063 C 496.562,119.574 514.772,115.440 472.000,121.063" stroke-width="2.161" stroke="black" fill="none" stroke-linecap="round"></path><path d="M 472.000,121.063 C 447.003,122.063 447.062,122.574 422.000,122.063" stroke-width="1.533" stroke="black" fill="none" stroke-linecap="round"></path><path d="M 422.000,122.063 C 356.984,122.289 357.003,122.063 292.000,121.063" stroke-width="1.125" stroke="black" fill="none" stroke-linecap="round"></path><path d="M 292.000,121.063 C 250.942,120.503 250.984,120.289 210.000,118.063" stroke-width="1.125" stroke="black" fill="none" stroke-linecap="round"></path><path d="M 210.000,118.063 C 175.440,115.625 175.442,116.003 141.000,112.063" stroke-width="1.125" stroke="black" fill="none" stroke-linecap="round"></path><path d="M 141.000,112.063 C 116.992,111.351 117.440,109.625 94.000,106.063" stroke-width="1.290" stroke="black" fill="none" stroke-linecap="round"></path><path d="M 94.000,106.063 C 66.255,99.717 66.992,99.851 41.000,89.063" stroke-width="1.266" stroke="black" fill="none" stroke-linecap="round"></path><path d="M 41.000,89.063 C 34.894,84.568 34.255,86.217 30.000,79.063" stroke-width="2.154" stroke="black" fill="none" stroke-linecap="round"></path><path d="M 30.000,79.063 C 23.970,74.566 26.894,75.568 25.000,71.063" stroke-width="2.967" stroke="black" fill="none" stroke-linecap="round"></path><path d="M 25.000,71.063 C 28.745,63.150 26.470,66.066 35.000,62.063" stroke-width="3.639" stroke="black" fill="none" stroke-linecap="round"></path><path d="M 35.000,62.063 C 53.139,61.182 51.745,59.150 71.000,63.063" stroke-width="2.053" stroke="black" fill="none" stroke-linecap="round"></path><path d="M 71.000,63.063 C 90.960,66.806 91.139,65.182 111.000,70.063" stroke-width="1.705" stroke="black" fill="none" stroke-linecap="round"></path><path d="M 111.000,70.063 C 131.123,72.401 130.960,73.306 151.000,76.063" stroke-width="1.724" stroke="black" fill="none" stroke-linecap="round"></path><path d="M 151.000,76.063 C 169.034,79.917 169.123,79.401 187.000,84.063" stroke-width="1.759" stroke="black" fill="none" stroke-linecap="round"></path><path d="M 187.000,84.063 C 194.937,86.344 195.034,85.917 203.000,88.063" stroke-width="2.363" stroke="black" fill="none" stroke-linecap="round"></path><path d="M 203.000,88.063 C 225.743,91.678 225.437,92.844 248.000,97.063" stroke-width="1.758" stroke="black" fill="none" stroke-linecap="round"></path><path d="M 248.000,97.063 C 263.290,97.688 256.743,99.178 265.000,103.063" stroke-width="2.297" stroke="black" fill="none" stroke-linecap="round"></path><path d="M 265.000,103.063 C 262.322,113.806 266.790,108.688 255.000,119.063" stroke-width="3.086" stroke="black" fill="none" stroke-linecap="round"></path><path d="M 255.000,119.063 C 241.027,126.700 242.822,127.806 226.000,131.063" stroke-width="2.147" stroke="black" fill="none" stroke-linecap="round"></path><path d="M 226.000,131.063 C 194.121,139.124 194.527,140.200 162.000,146.063" stroke-width="1.290" stroke="black" fill="none" stroke-linecap="round"></path><path d="M 162.000,146.063 C 131.535,152.246 131.621,152.624 101.000,158.063" stroke-width="1.231" stroke="black" fill="none" stroke-linecap="round"></path><path d="M 101.000,158.063 C 69.384,166.813 79.035,162.246 57.000,166.063" stroke-width="1.438" stroke="black" fill="none" stroke-linecap="round"></path><path d="M 57.000,166.063 C 61.786,160.083 52.884,165.813 68.000,156.063" stroke-width="2.229" stroke="black" fill="none" stroke-linecap="round"></path><path d="M 68.000,156.063 C 87.384,143.370 87.286,143.583 108.000,133.063" stroke-width="1.676" stroke="black" fill="none" stroke-linecap="round"></path><path d="M 108.000,133.063 C 145.687,114.842 145.384,114.370 184.000,98.063" stroke-width="1.134" stroke="black" fill="none" stroke-linecap="round"></path><path d="M 184.000,98.063 C 213.910,83.854 214.187,84.842 245.000,73.063" stroke-width="1.125" stroke="black" fill="none" stroke-linecap="round"></path><path d="M 245.000,73.063 C 281.681,59.030 274.410,62.854 305.000,56.063" stroke-width="1.136" stroke="black" fill="none" stroke-linecap="round"></path><path d="M 305.000,56.063 C 304.112,62.408 309.181,55.530 300.000,66.063" stroke-width="2.341" stroke="black" fill="none" stroke-linecap="round"></path><path d="M 300.000,66.063 C 281.156,82.866 281.612,82.408 260.000,96.063" stroke-width="1.559" stroke="black" fill="none" stroke-linecap="round"></path><path d="M 260.000,96.063 C 230.007,113.559 230.656,114.366 199.000,129.063" stroke-width="1.168" stroke="black" fill="none" stroke-linecap="round"></path><path d="M 199.000,129.063 C 142.892,156.932 143.007,157.059 86.000,183.063" stroke-width="1.125" stroke="black" fill="none" stroke-linecap="round"></path><path d="M 86.000,183.063 C 56.495,195.550 56.892,196.432 27.000,208.063" stroke-width="1.237" stroke="black" fill="none" stroke-linecap="round"></path><path d="M 27.000,208.063 C 16.783,211.937 23.495,209.550 20.000,211.063" stroke-width="2.347" stroke="black" fill="none" stroke-linecap="round"></path><path d="M 20.000,211.063 C 75.107,195.928 68.283,197.937 130.000,180.063" stroke-width="1.621" stroke="black" fill="none" stroke-linecap="round"></path><path d="M 130.000,180.063 C 161.368,170.100 161.607,170.928 193.000,161.063" stroke-width="1.308" stroke="black" fill="none" stroke-linecap="round"></path><path d="M 193.000,161.063 C 220.811,152.746 220.868,153.100 249.000,146.063" stroke-width="1.243" stroke="black" fill="none" stroke-linecap="round"></path><path d="M 249.000,146.063 C 275.664,138.472 269.311,141.246 290.000,138.063" stroke-width="1.489" stroke="black" fill="none" stroke-linecap="round"></path><path d="M 290.000,138.063 C 287.755,142.509 293.164,137.972 284.000,145.063" stroke-width="2.764" stroke="black" fill="none" stroke-linecap="round"></path><path d="M 284.000,145.063 C 274.677,150.426 275.255,151.009 265.000,155.063" stroke-width="2.622" stroke="black" fill="none" stroke-linecap="round"></path><path d="M 265.000,155.063 C 250.630,161.873 250.677,161.926 236.000,168.063" stroke-width="2.121" stroke="black" fill="none" stroke-linecap="round"></path><path d="M 236.000,168.063 C 215.030,176.773 224.630,172.873 213.000,177.063" stroke-width="2.239" stroke="black" fill="none" stroke-linecap="round"></path><path d="M 213.000,177.063 C 221.000,173.063 211.530,177.273 229.000,169.063" stroke-width="3.236" stroke="black" fill="none" stroke-linecap="round"></path><path d="M 229.000,169.063 C 241.800,162.142 242.000,162.563 255.000,156.063" stroke-width="2.256" stroke="black" fill="none" stroke-linecap="round"></path><path d="M 255.000,156.063 C 317.992,127.545 317.800,127.142 381.000,99.063" stroke-width="1.125" stroke="black" fill="none" stroke-linecap="round"></path><path d="M 381.000,99.063 C 390.791,93.935 390.992,94.545 401.000,90.063" stroke-width="1.648" stroke="black" fill="none" stroke-linecap="round"></path><path d="M 401.000,90.063 C 411.888,85.703 405.291,88.435 410.000,88.063" stroke-width="2.674" stroke="black" fill="none" stroke-linecap="round"></path><path d="M 410.000,88.063 C 396.600,102.985 401.888,98.203 381.000,115.063" stroke-width="2.703" stroke="black" fill="none" stroke-linecap="round"></path><path d="M 381.000,115.063 C 364.536,125.619 365.600,126.985 348.000,136.063" stroke-width="1.917" stroke="black" fill="none" stroke-linecap="round"></path><path d="M 348.000,136.063 C 336.578,144.667 336.036,143.619 324.000,151.063" stroke-width="2.458" stroke="black" fill="none" stroke-linecap="round"></path><path d="M 324.000,151.063 C 306.344,160.859 307.078,159.667 289.000,166.063" stroke-width="2.069" stroke="black" fill="none" stroke-linecap="round"></path><path d="M 289.000,166.063 C 285.833,165.229 286.344,166.859 284.000,163.063" stroke-width="3.431" stroke="black" fill="none" stroke-linecap="round"></path><path d="M 284.000,163.063 C 280.921,158.108 280.333,158.729 278.000,153.063" stroke-width="3.364" stroke="black" fill="none" stroke-linecap="round"></path><path d="M 278.000,153.063 C 275.881,148.321 275.421,148.608 273.000,144.063" stroke-width="3.460" stroke="black" fill="none" stroke-linecap="round"></path><path d="M 273.000,144.063 C 264.814,130.839 264.381,131.321 255.000,119.063" stroke-width="2.482" stroke="black" fill="none" stroke-linecap="round"></path><path d="M 255.000,119.063 C 248.886,113.681 249.814,112.839 243.000,108.063" stroke-width="2.795" stroke="black" fill="none" stroke-linecap="round"></path><path d="M 243.000,108.063 C 238.000,103.063 237.886,103.181 233.000,98.063" stroke-width="2.926" stroke="black" fill="none" stroke-linecap="round"></path><path d="M 233.000,98.063 C 228.447,90.822 230.000,95.063 227.000,92.063" stroke-width="3.778" stroke="black" fill="none" stroke-linecap="round"></path><path d="M 227.000,92.063 C 226.120,98.047 224.947,93.822 226.000,104.063" stroke-width="4.427" stroke="black" fill="none" stroke-linecap="round"></path><path d="M 226.000,104.063 C 226.000,123.063 225.620,123.047 226.000,142.063" stroke-width="2.333" stroke="black" fill="none" stroke-linecap="round"></path><path d="M 226.000,142.063 C 226.000,156.063 226.000,156.063 226.000,170.063" stroke-width="2.511" stroke="black" fill="none" stroke-linecap="round"></path><path d="M 226.000,170.063 C 222.706,195.169 226.000,184.563 226.000,199.063" stroke-width="2.536" stroke="black" fill="none" stroke-linecap="round"></path><path d="M 226.000,199.063 C 234.002,192.058 228.206,201.669 237.000,183.063" stroke-width="3.573" stroke="black" fill="none" stroke-linecap="round"></path><path d="M 237.000,183.063 C 239.788,167.102 242.002,168.058 242.000,151.063" stroke-width="2.245" stroke="black" fill="none" stroke-linecap="round"></path><path d="M 242.000,151.063 C 244.248,138.105 243.788,138.102 245.000,125.063" stroke-width="2.224" stroke="black" fill="none" stroke-linecap="round"></path><path d="M 245.000,125.063 C 246.252,111.898 245.748,112.105 245.000,99.063" stroke-width="2.167" stroke="black" fill="none" stroke-linecap="round"></path><path d="M 245.000,99.063 C 243.524,91.381 244.252,91.398 241.000,84.063" stroke-width="2.606" stroke="black" fill="none" stroke-linecap="round"></path><path d="M 241.000,84.063 C 235.961,71.984 238.524,76.881 235.000,70.063" stroke-width="2.849" stroke="black" fill="none" stroke-linecap="round"></path><path d="M 235.000,70.063 C 236.302,74.144 234.461,68.984 238.000,78.063" stroke-width="3.984" stroke="black" fill="none" stroke-linecap="round"></path><path d="M 238.000,78.063 C 243.168,88.989 242.802,89.144 248.000,100.063" stroke-width="2.655" stroke="black" fill="none" stroke-linecap="round"></path><path d="M 248.000,100.063 C 253.765,117.309 255.168,116.489 262.000,133.063" stroke-width="1.937" stroke="black" fill="none" stroke-linecap="round"></path><path d="M 262.000,133.063 C 265.444,140.022 265.265,139.309 271.000,144.063" stroke-width="2.648" stroke="black" fill="none" stroke-linecap="round"></path><path d="M 271.000,144.063 C 277.388,146.974 276.444,148.022 284.000,149.063" stroke-width="2.890" stroke="black" fill="none" stroke-linecap="round"></path><path d="M 284.000,149.063 C 287.850,148.342 286.888,149.974 290.000,150.063" stroke-width="3.666" stroke="black" fill="none" stroke-linecap="round"></path></svg>