<svg xmlns="http://www.w3.org/2000/svg" xmlns:xlink="http://www.w3.org/1999/xlink" viewBox="0 0 500 250" width="500" height="250"><path d="M 175.000,70.063 C 178.005,69.920 178.000,70.063 181.000,70.063" stroke-width="5.330" stroke="black" fill="none" stroke-linecap="round"></path><path d="M 181.000,70.063 C 188.524,70.300 188.505,70.420 196.000,71.063" stroke-width="3.360" stroke="black" fill="none" stroke-linecap="round"></path><path d="M 196.000,71.063 C 212.985,73.206 213.024,72.800 230.000,75.063" stroke-width="2.343" stroke="black" fill="none" stroke-linecap="round"></path><path d="M 230.000,75.063 C 241.263,73.450 240.485,76.206 251.000,77.063" stroke-width="2.829" stroke="black" fill="none" stroke-linecap="round"></path><path d="M 251.000,77.063 C 275.744,84.393 272.263,84.950 292.000,98.063" stroke-width="1.986" stroke="black" fill="none" stroke-linecap="round"></path><path d="M 292.000,98.063 C 295.000,106.035 297.744,102.893 295.000,114.063" stroke-width="2.487" stroke="black" fill="none" stroke-linecap="round"></path><path d="M 295.000,114.063 C 297.818,126.582 295.000,124.035 292.000,134.063" stroke-width="2.598" stroke="black" fill="none" stroke-linecap="round"></path><path d="M 292.000,134.063 C 277.962,151.556 280.318,149.082 260.000,159.063" stroke-width="1.862" stroke="black" fill="none" stroke-linecap="round"></path><path d="M 260.000,159.063 C 242.043,164.984 244.462,165.556 225.000,162.063" stroke-width="1.983" stroke="black" fill="none" stroke-linecap="round"></path><path d="M 225.000,162.063 C 188.761,154.288 189.543,155.984 155.000,141.063" stroke-width="1.697" stroke="black" fill="none" stroke-linecap="round"></path><path d="M 155.000,141.063 C 140.029,134.342 140.261,135.288 128.000,124.063" stroke-width="1.916" stroke="black" fill="none" stroke-linecap="round"></path><path d="M 128.000,124.063 C 112.903,109.788 112.529,110.842 100.000,94.063" stroke-width="1.908" stroke="black" fill="none" stroke-linecap="round"></path><path d="M 100.000,94.063 C 96.707,89.776 96.903,90.288 96.000,85.063" stroke-width="3.024" stroke="black" fill="none" stroke-linecap="round"></path><path d="M 96.000,85.063 C 93.205,77.541 95.207,79.776 97.000,74.063" stroke-width="3.230" stroke="black" fill="none" stroke-linecap="round"></path><path d="M 97.000,74.063 C 113.495,60.323 111.205,61.041 132.000,52.063" stroke-width="2.107" stroke="black" fill="none" stroke-linecap="round"></path><path d="M 132.000,52.063 C 142.458,49.966 141.495,47.823 153.000,49.063" stroke-width="2.369" stroke="black" fill="none" stroke-linecap="round"></path><path d="M 153.000,49.063 C 163.156,45.458 159.958,48.466 167.000,49.063" stroke-width="2.778" stroke="black" fill="none" stroke-linecap="round"></path><path d="M 167.000,49.063 C 172.848,58.291 171.156,52.958 169.000,64.063" stroke-width="3.474" stroke="black" fill="none" stroke-linecap="round"></path><path d="M 169.000,64.063 C 154.513,81.118 157.848,80.791 137.000,94.063" stroke-width="1.812" stroke="black" fill="none" stroke-linecap="round"></path><path d="M 137.000,94.063 C 119.635,107.295 120.013,106.618 100.000,115.063" stroke-width="1.663" stroke="black" fill="none" stroke-linecap="round"></path><path d="M 100.000,115.063 C 73.343,124.792 74.135,125.295 46.000,130.063" stroke-width="1.398" stroke="black" fill="none" stroke-linecap="round"></path><path d="M 46.000,130.063 C 31.503,130.717 31.843,132.792 17.000,131.063" stroke-width="1.814" stroke="black" fill="none" stroke-linecap="round"></path><path d="M 17.000,131.063 C 6.309,132.052 10.503,131.217 4.000,131.063" stroke-width="2.558" stroke="black" fill="none" stroke-linecap="round"></path><path d="M 4.000,131.063 C 6.921,129.382 2.809,130.552 10.000,128.063" stroke-width="3.575" stroke="black" fill="none" stroke-linecap="round"></path><path d="M 10.000,128.063 C 13.887,126.213 13.921,126.382 18.000,125.063" stroke-width="4.037" stroke="black" fill="none" stroke-linecap="round"></path><path d="M 18.000,125.063 C 72.649,108.448 72.887,109.713 128.000,95.063" stroke-width="1.125" stroke="black" fill="none" stroke-linecap="round"></path><path d="M 128.000,95.063 C 149.395,90.497 149.149,89.948 171.000,88.063" stroke-width="1.339" stroke="black" fill="none" stroke-linecap="round"></path><path d="M 171.000,88.063 C 185.070,86.696 184.895,86.497 199.000,87.063" stroke-width="1.806" stroke="black" fill="none" stroke-linecap="round"></path><path d="M 199.000,87.063 C 206.000,86.063 204.070,87.196 209.000,89.063" stroke-width="2.704" stroke="black" fill="none" stroke-linecap="round"></path><path d="M 209.000,89.063 C 213.011,95.040 212.000,92.063 211.000,99.063" stroke-width="3.225" stroke="black" fill="none" stroke-linecap="round"></path><path d="M 211.000,99.063 C 205.402,106.368 207.511,106.040 198.000,111.063" stroke-width="2.882" stroke="black" fill="none" stroke-linecap="round"></path><path d="M 198.000,111.063 C 184.395,119.002 184.902,119.368 170.000,125.063" stroke-width="2.119" stroke="black" fill="none" stroke-linecap="round"></path><path d="M 170.000,125.063 C 155.580,130.316 155.895,131.002 141.000,135.063" stroke-width="2.038" stroke="black" fill="none" stroke-linecap="round"></path><path d="M 141.000,135.063 C 128.545,137.826 134.080,137.316 127.000,139.063" stroke-width="2.644" stroke="black" fill="none" stroke-linecap="round"></path><path d="M 127.000,139.063 C 131.575,139.800 126.045,139.826 136.000,139.063" stroke-width="3.679" stroke="black" fill="none" stroke-linecap="round"></path><path d="M 136.000,139.063 C 155.505,135.089 155.575,135.800 175.000,131.063" stroke-width="2.010" stroke="black" fill="none" stroke-linecap="round"></path><path d="M 175.000,131.063 C 201.424,125.173 201.505,125.589 228.000,120.063" stroke-width="1.493" stroke="black" fill="none" stroke-linecap="round"></path><path d="M 228.000,120.063 C 266.440,112.684 266.424,112.673 305.000,106.063" stroke-width="1.125" stroke="black" fill="none" stroke-linecap="round"></path><path d="M 305.000,106.063 C 322.705,101.741 315.940,104.184 327.000,103.063" stroke-width="1.763" stroke="black" fill="none" stroke-linecap="round"></path><path d="M 327.000,103.063 C 323.212,107.796 329.205,103.741 318.000,110.063" stroke-width="3.059" stroke="black" fill="none" stroke-linecap="round"></path><path d="M 318.000,110.063 C 265.964,134.735 265.712,132.796 212.000,153.063" stroke-width="1.188" stroke="black" fill="none" stroke-linecap="round"></path><path d="M 212.000,153.063 C 185.616,159.693 186.464,161.735 159.000,164.063" stroke-width="1.293" stroke="black" fill="none" stroke-linecap="round"></path><path d="M 159.000,164.063 C 147.267,165.034 152.116,165.193 145.000,164.063" stroke-width="2.179" stroke="black" fill="none" stroke-linecap="round"></path><path d="M 145.000,164.063 C 148.716,162.978 143.767,163.534 152.000,161.063" stroke-width="3.458" stroke="black" fill="none" stroke-linecap="round"></path><path d="M 152.000,161.063 C 165.952,151.043 166.716,152.478 181.000,143.063" stroke-width="2.361" stroke="black" fill="none" stroke-linecap="round"></path><path d="M 181.000,143.063 C 199.331,134.179 198.952,133.543 218.000,126.063" stroke-width="2.240" stroke="black" fill="none" stroke-linecap="round"></path><path d="M 218.000,126.063 C 284.274,98.274 256.831,109.179 296.000,93.063" stroke-width="1.230" stroke="black" fill="none" stroke-linecap="round"></path><path d="M 296.000,93.063 C 275.888,104.496 302.274,90.274 254.000,110.063" stroke-width="2.204" stroke="black" fill="none" stroke-linecap="round"></path><path d="M 254.000,110.063 C 188.938,126.586 189.388,126.496 123.000,137.063" stroke-width="1.125" stroke="black" fill="none" stroke-linecap="round"></path><path d="M 123.000,137.063 C 81.564,141.725 81.938,143.586 40.000,144.063" stroke-width="1.125" stroke="black" fill="none" stroke-linecap="round"></path><path d="M 40.000,144.063 C 1.144,147.932 1.564,146.225 -37.000,146.063" stroke-width="1.145" stroke="black" fill="none" stroke-linecap="round"></path><path d="M -37.000,146.063 C -63.708,147.138 -49.856,145.432 -62.000,139.063" stroke-width="1.976" stroke="black" fill="none" stroke-linecap="round"></path><path d="M -62.000,139.063 C -47.291,113.035 -58.208,121.138 -26.000,94.063" stroke-width="1.380" stroke="black" fill="none" stroke-linecap="round"></path><path d="M -26.000,94.063 C 5.087,69.139 3.209,68.035 39.000,49.063" stroke-width="1.125" stroke="black" fill="none" stroke-linecap="round"></path><path d="M 39.000,49.063 C 68.341,32.956 67.587,32.139 99.000,20.063" stroke-width="1.126" stroke="black" fill="none" stroke-linecap="round"></path><path d="M 99.000,20.063 C 122.306,11.291 121.841,10.456 146.000,4.063" stroke-width="1.287" stroke="black" fill="none" stroke-linecap="round"></path><path d="M 146.000,4.063 C 158.558,-0.171 151.806,2.291 158.000,2.063" stroke-width="2.239" stroke="black" fill="none" stroke-linecap="round"></path><path d="M 158.000,2.063 C 150.538,9.104 157.058,5.829 143.000,16.063" stroke-width="2.998" stroke="black" fill="none" stroke-linecap="round"></path><path d="M 143.000,16.063 C 131.146,27.225 131.038,27.104 119.000,38.063" stroke-width="2.093" stroke="black" fill="none" stroke-linecap="round"></path><path d="M 119.000,38.063 C 95.904,53.690 98.646,56.225 78.000,74.063" stroke-width="1.499" stroke="black" fill="none" stroke-linecap="round"></path><path d="M 78.000,74.063 C 47.564,106.798 52.404,103.190 32.000,137.063" stroke-width="1.928" stroke="black" fill="none" stroke-linecap="round"></path><path d="M 32.000,137.063 C 36.335,142.072 29.564,141.798 42.000,144.063" stroke-width="2.744" stroke="black" fill="none" stroke-linecap="round"></path><path d="M 42.000,144.063 C 55.349,148.225 54.835,148.572 69.000,150.063" stroke-width="2.228" stroke="black" fill="none" stroke-linecap="round"></path><path d="M 69.000,150.063 C 81.494,150.839 81.349,151.725 94.000,151.063" stroke-width="2.204" stroke="black" fill="none" stroke-linecap="round"></path><path d="M 94.000,151.063 C 109.500,151.063 109.494,151.339 125.000,151.063" stroke-width="2.051" stroke="black" fill="none" stroke-linecap="round"></path><path d="M 125.000,151.063 C 144.024,150.368 144.000,151.063 163.000,151.063" stroke-width="1.822" stroke="black" fill="none" stroke-linecap="round"></path><path d="M 163.000,151.063 C 185.055,152.037 185.024,151.868 207.000,154.063" stroke-width="1.634" stroke="black" fill="none" stroke-linecap="round"></path><path d="M 207.000,154.063 C 217.522,155.425 217.555,155.037 228.000,157.063" stroke-width="2.114" stroke="black" fill="none" stroke-linecap="round"></path><path d="M 228.000,157.063 C 240.519,157.205 233.522,157.925 239.000,159.063" stroke-width="2.830" stroke="black" fill="none" stroke-linecap="round"></path><path d="M 239.000,159.063 C 229.578,165.635 236.019,162.705 219.000,168.063" stroke-width="3.535" stroke="black" fill="none" stroke-linecap="round"></path><path d="M 219.000,168.063 C 198.531,170.843 199.078,172.635 178.000,173.063" stroke-width="1.885" stroke="black" fill="none" stroke-linecap="round"></path><path d="M 178.000,173.063 C 143.050,177.559 143.031,176.843 108.000,180.063" stroke-width="1.252" stroke="black" fill="none" stroke-linecap="round"></path><path d="M 108.000,180.063 C 94.000,180.063 94.050,181.059 80.000,180.063" stroke-width="1.758" stroke="black" fill="none" stroke-linecap="round"></path><path d="M 80.000,180.063 C 72.120,181.463 75.500,180.063 71.000,180.063" stroke-width="2.739" stroke="black" fill="none" stroke-linecap="round"></path><path d="M 71.000,180.063 C 72.975,176.866 70.120,178.963 76.000,175.063" stroke-width="3.500" stroke="black" fill="none" stroke-linecap="round"></path><path d="M 76.000,175.063 C 98.266,159.329 98.975,161.366 123.000,149.063" stroke-width="1.593" stroke="black" fill="none" stroke-linecap="round"></path><path d="M 123.000,149.063 C 177.630,124.254 177.766,126.329 235.000,109.063" stroke-width="1.125" stroke="black" fill="none" stroke-linecap="round"></path><path d="M 235.000,109.063 C 338.650,80.341 338.130,81.754 444.000,64.063" stroke-width="1.125" stroke="black" fill="none" stroke-linecap="round"></path><path d="M 444.000,64.063 C 511.039,57.567 510.150,53.841 578.000,56.063" stroke-width="1.125" stroke="black" fill="none" stroke-linecap="round"></path><path d="M 578.000,56.063 C 614.350,49.954 600.039,55.567 622.000,60.063" stroke-width="1.290" stroke="black" fill="none" stroke-linecap="round"></path><path d="M 622.000,60.063 C 618.901,81.096 628.350,68.454 606.000,93.063" stroke-width="1.638" stroke="black" fill="none" stroke-linecap="round"></path><path d="M 606.000,93.063 C 580.529,110.628 584.401,113.096 553.000,124.063" stroke-width="1.274" stroke="black" fill="none" stroke-linecap="round"></path><path d="M 553.000,124.063 C 518.257,143.092 518.029,141.128 481.000,154.063" stroke-width="1.125" stroke="black" fill="none" stroke-linecap="round"></path><path d="M 481.000,154.063 C 427.386,167.908 428.257,169.592 373.000,177.063" stroke-width="1.125" stroke="black" fill="none" stroke-linecap="round"></path><path d="M 373.000,177.063 C 326.152,186.986 326.386,184.908 279.000,188.063" stroke-width="1.125" stroke="black" fill="none" stroke-linecap="round"></path><path d="M 279.000,188.063 C 215.342,188.682 216.652,189.486 154.000,182.063" stroke-width="1.125" stroke="black" fill="none" stroke-linecap="round"></path><path d="M 154.000,182.063 C 144.379,178.789 145.842,181.182 140.000,173.063" stroke-width="1.484" stroke="black" fill="none" stroke-linecap="round"></path><path d="M 140.000,173.063 C 139.090,168.500 137.879,170.289 141.000,165.063" stroke-width="2.594" stroke="black" fill="none" stroke-linecap="round"></path><path d="M 141.000,165.063 C 146.320,153.857 146.590,155.000 155.000,146.063" stroke-width="2.480" stroke="black" fill="none" stroke-linecap="round"></path><path d="M 155.000,146.063 C 171.809,132.432 170.820,131.857 190.000,121.063" stroke-width="1.785" stroke="black" fill="none" stroke-linecap="round"></path><path d="M 190.000,121.063 C 204.401,113.362 203.809,112.432 219.000,106.063" stroke-width="2.058" stroke="black" fill="none" stroke-linecap="round"></path><path d="M 219.000,106.063 C 228.127,100.589 228.401,101.362 238.000,97.063" stroke-width="2.696" stroke="black" fill="none" stroke-linecap="round"></path><path d="M 238.000,97.063 C 256.377,90.718 256.127,90.589 275.000,86.063" stroke-width="2.101" stroke="black" fill="none" stroke-linecap="round"></path><path d="M 275.000,86.063 C 282.170,84.194 278.377,85.218 282.000,86.063" stroke-width="3.339" stroke="black" fill="none" stroke-linecap="round"></path><path d="M 282.000,86.063 C 280.125,94.330 281.670,89.694 274.000,97.063" stroke-width="3.864" stroke="black" fill="none" stroke-linecap="round"></path><path d="M 274.000,97.063 C 213.941,124.706 215.125,123.330 152.000,144.063" stroke-width="1.125" stroke="black" fill="none" stroke-linecap="round"></path><path d="M 152.000,144.063 C 132.882,147.394 133.941,149.706 114.000,147.063" stroke-width="1.442" stroke="black" fill="none" stroke-linecap="round"></path><path d="M 114.000,147.063 C 92.454,148.556 104.382,146.894 95.000,143.063" stroke-width="2.143" stroke="black" fill="none" stroke-linecap="round"></path><path d="M 95.000,143.063 C 112.432,122.517 101.954,128.056 133.000,106.063" stroke-width="2.488" stroke="black" fill="none" stroke-linecap="round"></path><path d="M 133.000,106.063 C 148.531,95.666 147.432,94.517 165.000,87.063" stroke-width="1.933" stroke="black" fill="none" stroke-linecap="round"></path><path d="M 165.000,87.063 C 182.143,77.986 182.031,78.166 200.000,71.063" stroke-width="1.727" stroke="black" fill="none" stroke-linecap="round"></path><path d="M 200.000,71.063 C 211.038,66.285 206.643,68.486 214.000,68.063" stroke-width="2.764" stroke="black" fill="none" stroke-linecap="round"></path><path d="M 214.000,68.063 C 213.688,73.861 216.038,69.285 210.000,77.063" stroke-width="3.731" stroke="black" fill="none" stroke-linecap="round"></path><path d="M 210.000,77.063 C 169.056,115.975 168.188,113.361 123.000,147.063" stroke-width="1.125" stroke="black" fill="none" stroke-linecap="round"></path><path d="M 123.000,147.063 C 86.855,166.829 89.056,169.975 50.000,185.063" stroke-width="1.125" stroke="black" fill="none" stroke-linecap="round"></path><path d="M 50.000,185.063 C 25.675,195.419 39.355,190.329 28.000,194.063" stroke-width="1.643" stroke="black" fill="none" stroke-linecap="round"></path><path d="M 28.000,194.063 C 44.351,184.398 31.675,191.919 62.000,178.063" stroke-width="2.508" stroke="black" fill="none" stroke-linecap="round"></path><path d="M 62.000,178.063 C 103.085,163.466 102.851,163.398 145.000,152.063" stroke-width="1.125" stroke="black" fill="none" stroke-linecap="round"></path><path d="M 145.000,152.063 C 171.391,145.930 171.085,144.966 198.000,141.063" stroke-width="1.217" stroke="black" fill="none" stroke-linecap="round"></path><path d="M 198.000,141.063 C 212.463,138.516 212.391,138.430 227.000,137.063" stroke-width="1.709" stroke="black" fill="none" stroke-linecap="round"></path><path d="M 227.000,137.063 C 236.851,133.807 232.463,136.516 238.000,137.063" stroke-width="2.628" stroke="black" fill="none" stroke-linecap="round"></path><path d="M 238.000,137.063 C 238.077,147.172 239.851,142.307 233.000,154.063" stroke-width="3.371" stroke="black" fill="none" stroke-linecap="round"></path><path d="M 233.000,154.063 C 222.294,165.628 224.077,166.172 210.000,175.063" stroke-width="2.618" stroke="black" fill="none" stroke-linecap="round"></path><path d="M 210.000,175.063 C 200.446,181.928 200.794,182.128 190.000,187.063" stroke-width="2.378" stroke="black" fill="none" stroke-linecap="round"></path><path d="M 190.000,187.063 C 164.662,197.658 170.946,196.428 151.000,204.063" stroke-width="2.122" stroke="black" fill="none" stroke-linecap="round"></path><path d="M 151.000,204.063 C 154.604,203.356 148.662,205.158 158.000,202.063" stroke-width="3.214" stroke="black" fill="none" stroke-linecap="round"></path><path d="M 158.000,202.063 C 164.890,198.790 165.104,199.356 172.000,196.063" stroke-width="3.095" stroke="black" fill="none" stroke-linecap="round"></path><path d="M 172.000,196.063 C 244.154,167.584 244.390,168.290 317.000,141.063" stroke-width="1.128" stroke="black" fill="none" stroke-linecap="round"></path><path d="M 317.000,141.063 C 347.584,131.308 347.154,130.084 378.000,121.063" stroke-width="1.199" stroke="black" fill="none" stroke-linecap="round"></path><path d="M 378.000,121.063 C 394.969,114.971 395.084,115.308 412.000,109.063" stroke-width="1.603" stroke="black" fill="none" stroke-linecap="round"></path><path d="M 412.000,109.063 C 427.457,103.377 419.469,106.471 427.000,104.063" stroke-width="2.635" stroke="black" fill="none" stroke-linecap="round"></path><path d="M 427.000,104.063 C 418.787,108.789 426.457,104.877 410.000,112.063" stroke-width="3.519" stroke="black" fill="none" stroke-linecap="round"></path><path d="M 410.000,112.063 C 393.175,118.155 393.287,118.289 376.000,123.063" stroke-width="2.122" stroke="black" fill="none" stroke-linecap="round"></path><path d="M 376.000,123.063 C 340.642,133.152 340.675,133.155 305.000,142.063" stroke-width="1.194" stroke="black" fill="none" stroke-linecap="round"></path><path d="M 305.000,142.063 C 286.684,147.188 286.642,146.652 268.000,150.063" stroke-width="1.532" stroke="black" fill="none" stroke-linecap="round"></path><path d="M 268.000,150.063 C 241.057,154.083 241.184,154.188 214.000,156.063" stroke-width="1.393" stroke="black" fill="none" stroke-linecap="round"></path><path d="M 214.000,156.063 C 199.145,159.282 200.057,157.083 186.000,156.063" stroke-width="1.793" stroke="black" fill="none" stroke-linecap="round"></path><path d="M 186.000,156.063 C 173.250,151.563 174.645,153.282 165.000,144.063" stroke-width="2.133" stroke="black" fill="none" stroke-linecap="round"></path><path d="M 165.000,144.063 C 162.587,139.659 162.250,141.563 164.000,136.063" stroke-width="3.051" stroke="black" fill="none" stroke-linecap="round"></path><path d="M 164.000,136.063 C 168.811,125.155 168.087,125.659 176.000,116.063" stroke-width="2.541" stroke="black" fill="none" stroke-linecap="round"></path><path d="M 176.000,116.063 C 186.255,103.771 185.811,103.655 198.000,93.063" stroke-width="2.103" stroke="black" fill="none" stroke-linecap="round"></path><path d="M 198.000,93.063 C 220.143,72.452 220.255,72.771 244.000,54.063" stroke-width="1.462" stroke="black" fill="none" stroke-linecap="round"></path><path d="M 244.000,54.063 C 268.532,35.776 268.143,35.452 294.000,19.063" stroke-width="1.243" stroke="black" fill="none" stroke-linecap="round"></path><path d="M 294.000,19.063 C 304.300,12.063 300.532,14.776 308.000,12.063" stroke-width="2.051" stroke="black" fill="none" stroke-linecap="round"></path><path d="M 308.000,12.063 C 306.845,15.733 309.800,12.063 305.000,19.063" stroke-width="3.410" stroke="black" fill="none" stroke-linecap="round"></path><path d="M 305.000,19.063 C 287.136,53.270 286.345,52.733 267.000,86.063" stroke-width="1.678" stroke="black" fill="none" stroke-linecap="round"></path><path d="M 267.000,86.063 C 251.454,109.892 252.136,110.270 235.000,133.063" stroke-width="1.390" stroke="black" fill="none" stroke-linecap="round"></path><path d="M 235.000,133.063 C 225.591,143.511 226.954,144.392 218.000,155.063" stroke-width="1.839" stroke="black" fill="none" stroke-linecap="round"></path><path d="M 218.000,155.063 C 210.596,163.851 214.091,161.011 212.000,168.063" stroke-width="2.548" stroke="black" fill="none" stroke-linecap="round"></path><path d="M 212.000,168.063 C 217.486,170.063 213.096,171.351 223.000,170.063" stroke-width="3.704" stroke="black" fill="none" stroke-linecap="round"></path><path d="M 223.000,170.063 C 229.494,169.019 229.486,170.063 236.000,168.063" stroke-width="3.249" stroke="black" fill="none" stroke-linecap="round"></path><path d="M 236.000,168.063 C 246.437,165.831 246.494,166.519 257.000,165.063" stroke-width="2.688" stroke="black" fill="none" stroke-linecap="round"></path><path d="M 257.000,165.063 C 273.997,164.328 273.937,163.831 291.000,164.063" stroke-width="2.062" stroke="black" fill="none" stroke-linecap="round"></path><path d="M 291.000,164.063 C 306.043,163.208 305.997,163.828 321.000,164.063" stroke-width="1.987" stroke="black" fill="none" stroke-linecap="round"></path><path d="M 321.000,164.063 C 341.237,164.625 341.043,165.208 361.000,168.063" stroke-width="1.755" stroke="black" fill="none" stroke-linecap="round"></path><path d="M 361.000,168.063 C 387.928,171.962 387.237,172.625 413.000,180.063" stroke-width="1.408" stroke="black" fill="none" stroke-linecap="round"></path><path d="M 413.000,180.063 C 421.288,183.626 420.428,182.462 426.000,189.063" stroke-width="2.206" stroke="black" fill="none" stroke-linecap="round"></path><path d="M 426.000,189.063 C 426.757,192.223 427.788,191.126 426.000,195.063" stroke-width="3.286" stroke="black" fill="none" stroke-linecap="round"></path><path d="M 426.000,195.063 C 425.016,200.293 424.757,199.723 422.000,204.063" stroke-width="3.474" stroke="black" fill="none" stroke-linecap="round"></path><path d="M 422.000,204.063 C 416.787,210.764 417.016,210.293 410.000,215.063" stroke-width="3.031" stroke="black" fill="none" stroke-linecap="round"></path><path d="M 410.000,215.063 C 394.958,223.950 401.787,220.264 392.000,223.063" stroke-width="2.655" stroke="black" fill="none" stroke-linecap="round"></path><path d="M 392.000,223.063 C 394.893,216.318 389.958,222.450 400.000,212.063" stroke-width="3.686" stroke="black" fill="none" stroke-linecap="round"></path></svg>