<svg xmlns="http://www.w3.org/2000/svg" xmlns:xlink="http://www.w3.org/1999/xlink" viewBox="0 0 500 250" width="500" height="250"><path d="M 92.000,171.063 C 96.005,167.005 96.500,168.063 101.000,165.063" stroke-width="5.326" stroke="black" fill="none" stroke-linecap="round"></path><path d="M 101.000,165.063 C 114.420,160.779 114.005,160.005 128.000,157.063" stroke-width="2.501" stroke="black" fill="none" stroke-linecap="round"></path><path d="M 128.000,157.063 C 162.070,148.316 161.920,147.779 196.000,139.063" stroke-width="1.317" stroke="black" fill="none" stroke-linecap="round"></path><path d="M 196.000,139.063 C 217.010,133.097 217.070,133.316 238.000,127.063" stroke-width="1.445" stroke="black" fill="none" stroke-linecap="round"></path><path d="M 238.000,127.063 C 272.852,115.776 257.010,121.597 276.000,116.063" stroke-width="1.609" stroke="black" fill="none" stroke-linecap="round"></path><path d="M 276.000,116.063 C 263.060,123.636 278.352,116.276 249.000,128.063" stroke-width="2.611" stroke="black" fill="none" stroke-linecap="round"></path><path d="M 249.000,128.063 C 208.803,140.301 209.060,140.636 168.000,150.063" stroke-width="1.125" stroke="black" fill="none" stroke-linecap="round"></path><path d="M 168.000,150.063 C 104.008,164.097 104.303,165.301 40.000,178.063" stroke-width="1.125" stroke="black" fill="none" stroke-linecap="round"></path><path d="M 40.000,178.063 C 10.007,186.730 21.508,182.097 3.000,186.063" stroke-width="1.212" stroke="black" fill="none" stroke-linecap="round"></path><path d="M 3.000,186.063 C 11.351,181.570 -0.493,185.730 19.000,176.063" stroke-width="2.278" stroke="black" fill="none" stroke-linecap="round"></path><path d="M 19.000,176.063 C 35.494,162.354 36.351,163.570 53.000,150.063" stroke-width="2.007" stroke="black" fill="none" stroke-linecap="round"></path><path d="M 53.000,150.063 C 83.364,130.580 82.494,129.354 113.000,110.063" stroke-width="1.426" stroke="black" fill="none" stroke-linecap="round"></path><path d="M 113.000,110.063 C 129.327,99.521 128.864,99.080 144.000,87.063" stroke-width="1.575" stroke="black" fill="none" stroke-linecap="round"></path><path d="M 144.000,87.063 C 155.958,76.711 155.827,77.021 166.000,65.063" stroke-width="2.037" stroke="black" fill="none" stroke-linecap="round"></path><path d="M 166.000,65.063 C 170.844,59.169 168.458,62.211 169.000,58.063" stroke-width="3.054" stroke="black" fill="none" stroke-linecap="round"></path><path d="M 169.000,58.063 C 161.520,56.027 165.844,56.169 156.000,59.063" stroke-width="3.698" stroke="black" fill="none" stroke-linecap="round"></path><path d="M 156.000,59.063 C 138.665,66.987 141.520,67.027 129.000,80.063" stroke-width="2.193" stroke="black" fill="none" stroke-linecap="round"></path><path d="M 129.000,80.063 C 123.952,92.567 121.665,89.987 122.000,105.063" stroke-width="2.159" stroke="black" fill="none" stroke-linecap="round"></path><path d="M 122.000,105.063 C 121.267,110.193 121.452,108.567 124.000,112.063" stroke-width="3.158" stroke="black" fill="none" stroke-linecap="round"></path><path d="M 124.000,112.063 C 132.334,117.581 130.767,116.693 141.000,118.063" stroke-width="2.846" stroke="black" fill="none" stroke-linecap="round"></path><path d="M 141.000,118.063 C 150.821,117.122 150.334,118.581 160.000,114.063" stroke-width="2.688" stroke="black" fill="none" stroke-linecap="round"></path><path d="M 160.000,114.063 C 177.705,107.546 177.821,108.122 195.000,100.063" stroke-width="1.953" stroke="black" fill="none" stroke-linecap="round"></path><path d="M 195.000,100.063 C 229.369,84.258 229.705,85.046 264.000,69.063" stroke-width="1.154" stroke="black" fill="none" stroke-linecap="round"></path><path d="M 264.000,69.063 C 278.157,61.785 278.369,62.758 293.000,57.063" stroke-width="1.628" stroke="black" fill="none" stroke-linecap="round"></path><path d="M 293.000,57.063 C 300.603,54.767 300.157,54.785 308.000,55.063" stroke-width="2.384" stroke="black" fill="none" stroke-linecap="round"></path><path d="M 308.000,55.063 C 314.569,54.489 313.103,55.267 318.000,58.063" stroke-width="3.017" stroke="black" fill="none" stroke-linecap="round"></path><path d="M 318.000,58.063 C 326.595,68.314 326.569,66.989 332.000,80.063" stroke-width="2.411" stroke="black" fill="none" stroke-linecap="round"></path><path d="M 332.000,80.063 C 337.372,93.855 338.095,93.314 341.000,108.063" stroke-width="2.154" stroke="black" fill="none" stroke-linecap="round"></path><path d="M 341.000,108.063 C 342.777,117.527 343.372,117.355 344.000,127.063" stroke-width="2.472" stroke="black" fill="none" stroke-linecap="round"></path><path d="M 344.000,127.063 C 344.405,137.173 345.277,137.027 346.000,147.063" stroke-width="2.487" stroke="black" fill="none" stroke-linecap="round"></path><path d="M 346.000,147.063 C 347.302,152.629 346.905,152.673 349.000,158.063" stroke-width="3.087" stroke="black" fill="none" stroke-linecap="round"></path><path d="M 349.000,158.063 C 352.000,163.777 349.802,160.629 351.000,163.063" stroke-width="3.920" stroke="black" fill="none" stroke-linecap="round"></path><path d="M 351.000,163.063 C 347.551,156.718 348.500,161.277 342.000,153.063" stroke-width="4.386" stroke="black" fill="none" stroke-linecap="round"></path><path d="M 342.000,153.063 C 326.630,143.165 327.051,143.218 310.000,136.063" stroke-width="2.183" stroke="black" fill="none" stroke-linecap="round"></path><path d="M 310.000,136.063 C 278.527,122.401 278.630,122.665 246.000,112.063" stroke-width="1.362" stroke="black" fill="none" stroke-linecap="round"></path><path d="M 246.000,112.063 C 213.698,102.659 214.027,101.901 181.000,95.063" stroke-width="1.153" stroke="black" fill="none" stroke-linecap="round"></path><path d="M 181.000,95.063 C 159.544,92.523 164.198,91.159 147.000,89.063" stroke-width="1.531" stroke="black" fill="none" stroke-linecap="round"></path><path d="M 147.000,89.063 C 149.553,88.184 145.044,88.523 152.000,87.063" stroke-width="2.940" stroke="black" fill="none" stroke-linecap="round"></path><path d="M 152.000,87.063 C 161.304,82.113 161.553,82.684 171.000,78.063" stroke-width="2.629" stroke="black" fill="none" stroke-linecap="round"></path><path d="M 171.000,78.063 C 200.758,65.403 200.804,65.613 231.000,54.063" stroke-width="1.349" stroke="black" fill="none" stroke-linecap="round"></path><path d="M 231.000,54.063 C 248.695,46.639 248.758,47.403 267.000,42.063" stroke-width="1.601" stroke="black" fill="none" stroke-linecap="round"></path><path d="M 267.000,42.063 C 283.522,36.317 276.695,39.639 287.000,40.063" stroke-width="2.179" stroke="black" fill="none" stroke-linecap="round"></path><path d="M 287.000,40.063 C 286.325,50.288 290.022,43.317 280.000,56.063" stroke-width="3.049" stroke="black" fill="none" stroke-linecap="round"></path><path d="M 280.000,56.063 C 250.857,82.594 251.825,81.788 218.000,103.063" stroke-width="1.262" stroke="black" fill="none" stroke-linecap="round"></path><path d="M 218.000,103.063 C 187.560,116.710 189.857,120.594 158.000,132.063" stroke-width="1.136" stroke="black" fill="none" stroke-linecap="round"></path><path d="M 158.000,132.063 C 123.163,150.490 123.060,150.210 89.000,170.063" stroke-width="1.125" stroke="black" fill="none" stroke-linecap="round"></path><path d="M 89.000,170.063 C 68.937,179.354 75.163,177.990 62.000,187.063" stroke-width="1.495" stroke="black" fill="none" stroke-linecap="round"></path><path d="M 62.000,187.063 C 66.581,191.045 59.937,189.354 71.000,190.063" stroke-width="2.786" stroke="black" fill="none" stroke-linecap="round"></path><path d="M 71.000,190.063 C 84.353,184.180 84.581,187.045 98.000,179.063" stroke-width="2.306" stroke="black" fill="none" stroke-linecap="round"></path><path d="M 98.000,179.063 C 128.444,167.905 128.353,167.680 159.000,157.063" stroke-width="1.652" stroke="black" fill="none" stroke-linecap="round"></path><path d="M 159.000,157.063 C 189.487,140.853 190.444,145.905 222.000,135.063" stroke-width="1.567" stroke="black" fill="none" stroke-linecap="round"></path><path d="M 222.000,135.063 C 279.481,122.313 262.487,127.853 305.000,131.063" stroke-width="1.125" stroke="black" fill="none" stroke-linecap="round"></path><path d="M 305.000,131.063 C 303.176,149.210 314.481,134.313 292.000,159.063" stroke-width="1.930" stroke="black" fill="none" stroke-linecap="round"></path><path d="M 292.000,159.063 C 262.007,182.233 265.176,182.710 229.000,198.063" stroke-width="1.168" stroke="black" fill="none" stroke-linecap="round"></path><path d="M 229.000,198.063 C 211.545,202.278 213.007,205.733 194.000,206.063" stroke-width="1.553" stroke="black" fill="none" stroke-linecap="round"></path><path d="M 194.000,206.063 C 172.777,209.682 186.045,207.778 178.000,209.063" stroke-width="2.289" stroke="black" fill="none" stroke-linecap="round"></path><path d="M 178.000,209.063 C 215.785,205.716 202.277,206.182 253.000,199.063" stroke-width="1.849" stroke="black" fill="none" stroke-linecap="round"></path><path d="M 253.000,199.063 C 305.179,188.851 305.285,189.716 357.000,177.063" stroke-width="1.125" stroke="black" fill="none" stroke-linecap="round"></path><path d="M 357.000,177.063 C 410.222,162.753 410.679,164.851 464.000,151.063" stroke-width="1.125" stroke="black" fill="none" stroke-linecap="round"></path><path d="M 464.000,151.063 C 502.365,142.858 502.222,142.753 541.000,137.063" stroke-width="1.125" stroke="black" fill="none" stroke-linecap="round"></path><path d="M 541.000,137.063 C 561.354,134.004 552.365,135.358 564.000,136.063" stroke-width="1.784" stroke="black" fill="none" stroke-linecap="round"></path><path d="M 564.000,136.063 C 557.765,142.166 565.854,137.504 550.000,144.063" stroke-width="2.938" stroke="black" fill="none" stroke-linecap="round"></path><path d="M 550.000,144.063 C 514.253,154.041 514.765,152.666 478.000,157.063" stroke-width="1.312" stroke="black" fill="none" stroke-linecap="round"></path><path d="M 478.000,157.063 C 447.297,159.091 448.253,159.541 418.000,155.063" stroke-width="1.219" stroke="black" fill="none" stroke-linecap="round"></path><path d="M 418.000,155.063 C 407.297,151.641 407.297,153.591 398.000,146.063" stroke-width="1.883" stroke="black" fill="none" stroke-linecap="round"></path><path d="M 398.000,146.063 C 392.506,142.019 392.297,142.641 388.000,137.063" stroke-width="2.616" stroke="black" fill="none" stroke-linecap="round"></path><path d="M 388.000,137.063 C 382.781,130.722 382.506,131.019 378.000,124.063" stroke-width="2.784" stroke="black" fill="none" stroke-linecap="round"></path><path d="M 378.000,124.063 C 370.265,109.882 368.781,111.222 360.000,98.063" stroke-width="2.157" stroke="black" fill="none" stroke-linecap="round"></path><path d="M 360.000,98.063 C 353.119,91.039 353.765,90.882 345.000,86.063" stroke-width="2.422" stroke="black" fill="none" stroke-linecap="round"></path><path d="M 345.000,86.063 C 337.273,81.746 337.619,81.539 329.000,79.063" stroke-width="2.658" stroke="black" fill="none" stroke-linecap="round"></path><path d="M 329.000,79.063 C 318.651,75.273 318.773,75.746 308.000,74.063" stroke-width="2.530" stroke="black" fill="none" stroke-linecap="round"></path><path d="M 308.000,74.063 C 296.190,72.241 296.651,72.773 285.000,74.063" stroke-width="2.370" stroke="black" fill="none" stroke-linecap="round"></path><path d="M 285.000,74.063 C 271.314,76.721 274.690,75.741 265.000,81.063" stroke-width="2.462" stroke="black" fill="none" stroke-linecap="round"></path><path d="M 265.000,81.063 C 266.357,84.851 263.314,82.221 269.000,85.063" stroke-width="3.745" stroke="black" fill="none" stroke-linecap="round"></path><path d="M 269.000,85.063 C 279.647,84.985 278.857,85.851 290.000,83.063" stroke-width="2.713" stroke="black" fill="none" stroke-linecap="round"></path><path d="M 290.000,83.063 C 314.515,77.627 314.647,78.485 339.000,72.063" stroke-width="1.659" stroke="black" fill="none" stroke-linecap="round"></path><path d="M 339.000,72.063 C 358.329,66.534 358.515,67.627 378.000,63.063" stroke-width="1.672" stroke="black" fill="none" stroke-linecap="round"></path><path d="M 378.000,63.063 C 392.798,59.689 392.329,60.534 407.000,60.063" stroke-width="1.884" stroke="black" fill="none" stroke-linecap="round"></path><path d="M 407.000,60.063 C 414.349,60.211 411.798,60.189 416.000,64.063" stroke-width="2.843" stroke="black" fill="none" stroke-linecap="round"></path><path d="M 416.000,64.063 C 419.026,73.317 418.849,70.711 416.000,81.063" stroke-width="2.761" stroke="black" fill="none" stroke-linecap="round"></path><path d="M 416.000,81.063 C 406.676,106.913 406.526,105.317 391.000,128.063" stroke-width="1.606" stroke="black" fill="none" stroke-linecap="round"></path><path d="M 391.000,128.063 C 373.334,148.633 375.176,149.413 353.000,166.063" stroke-width="1.419" stroke="black" fill="none" stroke-linecap="round"></path><path d="M 353.000,166.063 C 333.568,180.159 334.834,181.633 314.000,194.063" stroke-width="1.410" stroke="black" fill="none" stroke-linecap="round"></path><path d="M 314.000,194.063 C 295.439,206.977 295.568,207.159 277.000,220.063" stroke-width="1.451" stroke="black" fill="none" stroke-linecap="round"></path><path d="M 277.000,220.063 C 255.318,240.359 264.439,228.977 252.000,238.063" stroke-width="1.797" stroke="black" fill="none" stroke-linecap="round"></path><path d="M 252.000,238.063 C 257.622,224.385 248.818,235.859 264.000,211.063" stroke-width="2.740" stroke="black" fill="none" stroke-linecap="round"></path><path d="M 264.000,211.063 C 280.574,177.599 280.122,177.385 297.000,144.063" stroke-width="1.281" stroke="black" fill="none" stroke-linecap="round"></path><path d="M 297.000,144.063 C 306.095,129.041 304.574,128.599 312.000,113.063" stroke-width="1.637" stroke="black" fill="none" stroke-linecap="round"></path><path d="M 312.000,113.063 C 318.167,101.039 314.595,106.041 314.000,98.063" stroke-width="2.351" stroke="black" fill="none" stroke-linecap="round"></path><path d="M 314.000,98.063 C 301.829,94.994 307.667,93.539 291.000,98.063" stroke-width="2.974" stroke="black" fill="none" stroke-linecap="round"></path><path d="M 291.000,98.063 C 271.685,105.171 271.829,103.494 254.000,115.063" stroke-width="1.911" stroke="black" fill="none" stroke-linecap="round"></path><path d="M 254.000,115.063 C 242.705,122.699 242.185,121.671 232.000,131.063" stroke-width="2.028" stroke="black" fill="none" stroke-linecap="round"></path><path d="M 232.000,131.063 C 218.413,140.063 226.705,135.199 222.000,140.063" stroke-width="2.697" stroke="black" fill="none" stroke-linecap="round"></path><path d="M 222.000,140.063 C 241.072,135.849 232.413,140.063 260.000,131.063" stroke-width="3.021" stroke="black" fill="none" stroke-linecap="round"></path><path d="M 260.000,131.063 C 284.322,123.796 284.572,124.849 309.000,118.063" stroke-width="1.618" stroke="black" fill="none" stroke-linecap="round"></path><path d="M 309.000,118.063 C 333.784,111.408 333.822,112.296 359.000,108.063" stroke-width="1.416" stroke="black" fill="none" stroke-linecap="round"></path><path d="M 359.000,108.063 C 383.664,103.532 382.784,104.908 407.000,105.063" stroke-width="1.495" stroke="black" fill="none" stroke-linecap="round"></path><path d="M 407.000,105.063 C 417.734,106.776 414.164,105.532 420.000,112.063" stroke-width="2.308" stroke="black" fill="none" stroke-linecap="round"></path><path d="M 420.000,112.063 C 419.420,119.736 422.234,117.276 416.000,126.063" stroke-width="2.859" stroke="black" fill="none" stroke-linecap="round"></path><path d="M 416.000,126.063 C 408.709,138.120 409.420,138.236 400.000,149.063" stroke-width="2.236" stroke="black" fill="none" stroke-linecap="round"></path><path d="M 400.000,149.063 C 387.719,161.441 389.209,162.620 377.000,175.063" stroke-width="1.950" stroke="black" fill="none" stroke-linecap="round"></path><path d="M 377.000,175.063 C 362.739,191.889 363.719,191.941 352.000,210.063" stroke-width="1.832" stroke="black" fill="none" stroke-linecap="round"></path><path d="M 352.000,210.063 C 348.819,216.227 349.739,213.889 351.000,219.063" stroke-width="2.788" stroke="black" fill="none" stroke-linecap="round"></path><path d="M 351.000,219.063 C 356.364,223.485 353.819,222.727 362.000,223.063" stroke-width="3.782" stroke="black" fill="none" stroke-linecap="round"></path></svg>