<svg xmlns="http://www.w3.org/2000/svg" xmlns:xlink="http://www.w3.org/1999/xlink" viewBox="0 0 500 250" width="500" height="250"><path d="M 149.000,121.063 C 144.063,130.758 142.500,128.563 136.000,136.063" stroke-width="5.100" stroke="black" fill="none" stroke-linecap="round"></path><path d="M 136.000,136.063 C 123.666,141.522 125.063,143.258 111.000,146.063" stroke-width="2.629" stroke="black" fill="none" stroke-linecap="round"></path><path d="M 111.000,146.063 C 97.049,150.720 97.166,151.022 83.000,155.063" stroke-width="2.203" stroke="black" fill="none" stroke-linecap="round"></path><path d="M 83.000,155.063 C 69.326,158.621 69.549,159.220 56.000,163.063" stroke-width="2.085" stroke="black" fill="none" stroke-linecap="round"></path><path d="M 56.000,163.063 C 47.598,166.863 52.826,164.121 50.000,166.063" stroke-width="3.150" stroke="black" fill="none" stroke-linecap="round"></path><path d="M 50.000,166.063 C 72.080,156.130 67.098,160.363 95.000,150.063" stroke-width="3.433" stroke="black" fill="none" stroke-linecap="round"></path><path d="M 95.000,150.063 C 106.476,148.506 106.080,147.130 118.000,148.063" stroke-width="2.626" stroke="black" fill="none" stroke-linecap="round"></path><path d="M 118.000,148.063 C 132.605,146.658 132.476,147.506 147.000,148.063" stroke-width="2.217" stroke="black" fill="none" stroke-linecap="round"></path><path d="M 147.000,148.063 C 174.197,149.786 173.605,150.658 200.000,156.063" stroke-width="1.533" stroke="black" fill="none" stroke-linecap="round"></path><path d="M 200.000,156.063 C 211.024,160.179 211.197,158.786 221.000,166.063" stroke-width="1.996" stroke="black" fill="none" stroke-linecap="round"></path><path d="M 221.000,166.063 C 230.782,171.725 230.524,171.679 239.000,179.063" stroke-width="2.287" stroke="black" fill="none" stroke-linecap="round"></path><path d="M 239.000,179.063 C 244.453,184.766 244.782,184.225 249.000,191.063" stroke-width="2.703" stroke="black" fill="none" stroke-linecap="round"></path><path d="M 249.000,191.063 C 253.263,195.378 250.953,193.766 252.000,197.063" stroke-width="3.514" stroke="black" fill="none" stroke-linecap="round"></path><path d="M 252.000,197.063 C 247.559,198.864 250.263,199.378 243.000,199.063" stroke-width="4.106" stroke="black" fill="none" stroke-linecap="round"></path><path d="M 243.000,199.063 C 235.755,199.700 236.059,199.364 229.000,198.063" stroke-width="3.261" stroke="black" fill="none" stroke-linecap="round"></path><path d="M 229.000,198.063 C 218.824,195.876 219.255,195.700 210.000,191.063" stroke-width="2.674" stroke="black" fill="none" stroke-linecap="round"></path><path d="M 210.000,191.063 C 196.267,183.922 196.824,183.876 185.000,174.063" stroke-width="2.184" stroke="black" fill="none" stroke-linecap="round"></path><path d="M 185.000,174.063 C 176.153,165.908 176.267,166.422 170.000,156.063" stroke-width="2.308" stroke="black" fill="none" stroke-linecap="round"></path><path d="M 170.000,156.063 C 163.881,145.430 163.653,145.908 160.000,134.063" stroke-width="2.318" stroke="black" fill="none" stroke-linecap="round"></path><path d="M 160.000,134.063 C 157.309,124.662 156.881,124.930 156.000,115.063" stroke-width="2.470" stroke="black" fill="none" stroke-linecap="round"></path><path d="M 156.000,115.063 C 154.642,102.577 154.309,102.662 154.000,90.063" stroke-width="2.328" stroke="black" fill="none" stroke-linecap="round"></path><path d="M 154.000,90.063 C 154.000,83.063 153.642,83.077 154.000,76.063" stroke-width="2.811" stroke="black" fill="none" stroke-linecap="round"></path><path d="M 154.000,76.063 C 151.506,68.307 154.000,71.063 154.000,66.063" stroke-width="3.237" stroke="black" fill="none" stroke-linecap="round"></path><path d="M 154.000,66.063 C 160.031,64.274 156.506,63.807 164.000,67.063" stroke-width="4.138" stroke="black" fill="none" stroke-linecap="round"></path><path d="M 164.000,67.063 C 177.688,79.365 178.531,77.274 191.000,92.063" stroke-width="2.070" stroke="black" fill="none" stroke-linecap="round"></path><path d="M 191.000,92.063 C 210.106,110.455 210.188,110.365 229.000,129.063" stroke-width="1.521" stroke="black" fill="none" stroke-linecap="round"></path><path d="M 229.000,129.063 C 242.870,143.195 243.106,142.955 257.000,157.063" stroke-width="1.635" stroke="black" fill="none" stroke-linecap="round"></path><path d="M 257.000,157.063 C 270.485,169.144 269.870,169.695 283.000,182.063" stroke-width="1.748" stroke="black" fill="none" stroke-linecap="round"></path><path d="M 283.000,182.063 C 287.188,185.271 285.985,185.144 288.000,189.063" stroke-width="2.755" stroke="black" fill="none" stroke-linecap="round"></path><path d="M 288.000,189.063 C 288.672,194.459 288.688,192.271 286.000,196.063" stroke-width="3.847" stroke="black" fill="none" stroke-linecap="round"></path><path d="M 286.000,196.063 C 279.550,197.718 281.172,198.959 273.000,198.063" stroke-width="3.282" stroke="black" fill="none" stroke-linecap="round"></path><path d="M 273.000,198.063 C 260.500,198.063 260.550,198.718 248.000,198.063" stroke-width="2.507" stroke="black" fill="none" stroke-linecap="round"></path><path d="M 248.000,198.063 C 238.319,200.388 241.000,198.063 234.000,198.063" stroke-width="2.885" stroke="black" fill="none" stroke-linecap="round"></path><path d="M 234.000,198.063 C 233.001,193.775 231.819,196.888 235.000,191.063" stroke-width="3.920" stroke="black" fill="none" stroke-linecap="round"></path><path d="M 235.000,191.063 C 241.625,185.192 240.001,184.275 248.000,179.063" stroke-width="3.026" stroke="black" fill="none" stroke-linecap="round"></path><path d="M 248.000,179.063 C 254.648,172.703 254.625,172.692 261.000,166.063" stroke-width="2.728" stroke="black" fill="none" stroke-linecap="round"></path><path d="M 261.000,166.063 C 265.982,161.419 265.648,161.203 270.000,156.063" stroke-width="3.054" stroke="black" fill="none" stroke-linecap="round"></path><path d="M 270.000,156.063 C 276.302,149.995 273.482,151.419 276.000,146.063" stroke-width="3.191" stroke="black" fill="none" stroke-linecap="round"></path><path d="M 276.000,146.063 C 272.647,142.238 275.802,143.495 269.000,143.063" stroke-width="4.269" stroke="black" fill="none" stroke-linecap="round"></path><path d="M 269.000,143.063 C 230.664,154.727 230.647,151.738 192.000,165.063" stroke-width="1.639" stroke="black" fill="none" stroke-linecap="round"></path><path d="M 192.000,165.063 C 180.071,168.002 180.164,168.227 168.000,170.063" stroke-width="2.008" stroke="black" fill="none" stroke-linecap="round"></path><path d="M 168.000,170.063 C 153.722,176.145 159.571,171.502 151.000,172.063" stroke-width="2.505" stroke="black" fill="none" stroke-linecap="round"></path><path d="M 151.000,172.063 C 152.012,161.446 147.722,167.145 156.000,152.063" stroke-width="3.540" stroke="black" fill="none" stroke-linecap="round"></path><path d="M 156.000,152.063 C 161.340,141.609 160.512,141.446 168.000,132.063" stroke-width="2.632" stroke="black" fill="none" stroke-linecap="round"></path><path d="M 168.000,132.063 C 176.805,120.403 176.340,120.109 186.000,109.063" stroke-width="2.148" stroke="black" fill="none" stroke-linecap="round"></path><path d="M 186.000,109.063 C 191.775,101.854 191.805,101.903 198.000,95.063" stroke-width="2.506" stroke="black" fill="none" stroke-linecap="round"></path><path d="M 198.000,95.063 C 210.001,85.663 202.775,89.854 208.000,85.063" stroke-width="2.824" stroke="black" fill="none" stroke-linecap="round"></path><path d="M 208.000,85.063 C 198.026,88.639 205.001,84.163 188.000,92.063" stroke-width="3.703" stroke="black" fill="none" stroke-linecap="round"></path><path d="M 188.000,92.063 C 177.687,96.472 177.526,95.639 167.000,99.063" stroke-width="2.721" stroke="black" fill="none" stroke-linecap="round"></path><path d="M 167.000,99.063 C 160.990,99.464 161.187,100.472 155.000,100.063" stroke-width="3.097" stroke="black" fill="none" stroke-linecap="round"></path><path d="M 155.000,100.063 C 145.818,101.738 150.990,100.464 147.000,101.063" stroke-width="3.521" stroke="black" fill="none" stroke-linecap="round"></path><path d="M 147.000,101.063 C 154.330,97.962 149.318,99.738 162.000,96.063" stroke-width="4.176" stroke="black" fill="none" stroke-linecap="round"></path><path d="M 162.000,96.063 C 206.895,85.086 206.830,84.962 252.000,75.063" stroke-width="1.197" stroke="black" fill="none" stroke-linecap="round"></path><path d="M 252.000,75.063 C 283.466,68.369 283.395,68.086 315.000,62.063" stroke-width="1.182" stroke="black" fill="none" stroke-linecap="round"></path><path d="M 315.000,62.063 C 323.829,59.945 318.466,61.369 322.000,61.063" stroke-width="2.308" stroke="black" fill="none" stroke-linecap="round"></path><path d="M 322.000,61.063 C 309.958,68.376 314.829,65.445 297.000,73.063" stroke-width="3.092" stroke="black" fill="none" stroke-linecap="round"></path><path d="M 297.000,73.063 C 285.992,75.526 286.458,76.876 275.000,78.063" stroke-width="2.586" stroke="black" fill="none" stroke-linecap="round"></path><path d="M 275.000,78.063 C 259.959,81.399 259.992,81.526 245.000,85.063" stroke-width="2.146" stroke="black" fill="none" stroke-linecap="round"></path><path d="M 245.000,85.063 C 235.544,87.749 235.459,87.399 226.000,90.063" stroke-width="2.398" stroke="black" fill="none" stroke-linecap="round"></path><path d="M 226.000,90.063 C 219.061,91.976 219.044,91.749 212.000,93.063" stroke-width="2.822" stroke="black" fill="none" stroke-linecap="round"></path></svg>