<svg xmlns="http://www.w3.org/2000/svg" xmlns:xlink="http://www.w3.org/1999/xlink" viewBox="0 0 500 250" width="500" height="250"><path d="M 368.681,140.035 C 362.569,140.035 362.569,140.035 356.458,140.035" stroke-width="2.718" stroke="black" fill="none" stroke-linecap="round"></path><path d="M 356.458,140.035 C 348.125,140.035 348.125,140.035 339.792,140.035" stroke-width="3.209" stroke="black" fill="none" stroke-linecap="round"></path><path d="M 339.792,140.035 C 333.118,139.797 333.125,140.035 326.458,140.035" stroke-width="3.409" stroke="black" fill="none" stroke-linecap="round"></path><path d="M 326.458,140.035 C 317.547,140.340 317.562,140.352 308.681,141.146" stroke-width="2.849" stroke="black" fill="none" stroke-linecap="round"></path><path d="M 308.681,141.146 C 299.253,142.422 299.214,142.006 289.792,143.368" stroke-width="2.710" stroke="black" fill="none" stroke-linecap="round"></path><path d="M 289.792,143.368 C 271.490,145.554 271.476,145.200 253.125,146.701" stroke-width="1.982" stroke="black" fill="none" stroke-linecap="round"></path><path d="M 253.125,146.701 C 235.906,147.371 235.935,147.776 218.681,147.813" stroke-width="1.894" stroke="black" fill="none" stroke-linecap="round"></path><path d="M 218.681,147.813 C 192.573,148.721 192.573,148.482 166.458,148.924" stroke-width="1.503" stroke="black" fill="none" stroke-linecap="round"></path><path d="M 166.458,148.924 C 120.903,148.924 120.907,149.277 75.347,148.924" stroke-width="1.125" stroke="black" fill="none" stroke-linecap="round"></path><path d="M 75.347,148.924 C 52.440,150.362 52.569,148.924 29.792,148.924" stroke-width="1.303" stroke="black" fill="none" stroke-linecap="round"></path><path d="M 29.792,148.924 C 6.417,149.829 17.440,148.139 5.347,144.479" stroke-width="1.825" stroke="black" fill="none" stroke-linecap="round"></path><path d="M 5.347,144.479 C 14.367,134.188 4.195,138.718 25.347,126.701" stroke-width="2.585" stroke="black" fill="none" stroke-linecap="round"></path><path d="M 25.347,126.701 C 39.339,117.941 38.811,117.521 54.236,111.146" stroke-width="2.017" stroke="black" fill="none" stroke-linecap="round"></path><path d="M 54.236,111.146 C 71.175,103.648 71.006,103.497 88.681,97.813" stroke-width="1.840" stroke="black" fill="none" stroke-linecap="round"></path><path d="M 88.681,97.813 C 112.827,89.330 112.842,89.759 137.569,83.368" stroke-width="1.514" stroke="black" fill="none" stroke-linecap="round"></path><path d="M 137.569,83.368 C 159.125,78.494 158.938,78.219 180.903,75.590" stroke-width="1.504" stroke="black" fill="none" stroke-linecap="round"></path><path d="M 180.903,75.590 C 195.160,72.318 192.458,74.050 204.236,74.479" stroke-width="2.020" stroke="black" fill="none" stroke-linecap="round"></path><path d="M 204.236,74.479 C 206.099,78.584 206.826,75.096 204.236,81.146" stroke-width="3.363" stroke="black" fill="none" stroke-linecap="round"></path><path d="M 204.236,81.146 C 196.626,91.721 197.210,90.806 186.458,98.924" stroke-width="2.515" stroke="black" fill="none" stroke-linecap="round"></path><path d="M 186.458,98.924 C 168.807,109.157 169.960,110.610 150.903,118.924" stroke-width="1.782" stroke="black" fill="none" stroke-linecap="round"></path><path d="M 150.903,118.924 C 137.939,125.262 138.252,125.824 125.347,132.257" stroke-width="1.985" stroke="black" fill="none" stroke-linecap="round"></path><path d="M 125.347,132.257 C 110.157,136.674 117.939,136.373 110.903,141.146" stroke-width="2.454" stroke="black" fill="none" stroke-linecap="round"></path><path d="M 110.903,141.146 C 119.027,148.771 111.824,146.674 128.681,152.257" stroke-width="3.113" stroke="black" fill="none" stroke-linecap="round"></path><path d="M 128.681,152.257 C 139.718,154.746 139.027,155.993 150.903,155.590" stroke-width="2.528" stroke="black" fill="none" stroke-linecap="round"></path><path d="M 150.903,155.590 C 169.236,156.701 169.162,156.968 187.569,156.701" stroke-width="1.954" stroke="black" fill="none" stroke-linecap="round"></path><path d="M 187.569,156.701 C 206.069,157.667 205.903,156.701 224.236,155.590" stroke-width="1.830" stroke="black" fill="none" stroke-linecap="round"></path><path d="M 224.236,155.590 C 244.642,150.361 244.958,153.222 265.347,147.813" stroke-width="1.682" stroke="black" fill="none" stroke-linecap="round"></path><path d="M 265.347,147.813 C 301.769,144.223 280.753,145.916 296.458,146.701" stroke-width="2.088" stroke="black" fill="none" stroke-linecap="round"></path><path d="M 296.458,146.701 C 264.442,156.033 285.103,152.001 232.014,163.368" stroke-width="2.476" stroke="black" fill="none" stroke-linecap="round"></path><path d="M 232.014,163.368 C 207.461,165.645 217.775,166.589 203.125,167.813" stroke-width="2.339" stroke="black" fill="none" stroke-linecap="round"></path><path d="M 203.125,167.813 C 210.888,170.235 200.794,168.978 218.681,170.035" stroke-width="3.499" stroke="black" fill="none" stroke-linecap="round"></path><path d="M 218.681,170.035 C 232.981,170.071 232.555,169.679 246.458,166.701" stroke-width="2.338" stroke="black" fill="none" stroke-linecap="round"></path><path d="M 246.458,166.701 C 262.064,162.091 261.870,162.849 276.458,155.590" stroke-width="2.261" stroke="black" fill="none" stroke-linecap="round"></path><path d="M 276.458,155.590 C 282.107,151.949 279.286,154.313 280.903,151.146" stroke-width="3.327" stroke="black" fill="none" stroke-linecap="round"></path><path d="M 280.903,151.146 C 275.347,151.146 278.774,149.727 269.792,151.146" stroke-width="4.118" stroke="black" fill="none" stroke-linecap="round"></path><path d="M 269.792,151.146 C 262.563,151.379 262.569,151.146 255.347,151.146" stroke-width="3.300" stroke="black" fill="none" stroke-linecap="round"></path><path d="M 255.347,151.146 C 245.111,151.597 245.341,150.823 235.347,150.035" stroke-width="2.763" stroke="black" fill="none" stroke-linecap="round"></path><path d="M 235.347,150.035 C 230.040,149.481 231.222,149.375 227.569,146.701" stroke-width="3.346" stroke="black" fill="none" stroke-linecap="round"></path><path d="M 227.569,146.701 C 226.458,143.368 225.596,144.481 226.458,140.035" stroke-width="4.174" stroke="black" fill="none" stroke-linecap="round"></path><path d="M 226.458,140.035 C 226.395,136.500 226.458,136.701 227.569,133.368" stroke-width="4.114" stroke="black" fill="none" stroke-linecap="round"></path><path d="M 227.569,133.368 C 230.481,127.875 229.728,127.611 233.125,122.257" stroke-width="3.402" stroke="black" fill="none" stroke-linecap="round"></path><path d="M 233.125,122.257 C 234.887,118.407 234.926,118.430 236.458,114.479" stroke-width="3.642" stroke="black" fill="none" stroke-linecap="round"></path><path d="M 236.458,114.479 C 238.029,109.996 238.221,110.073 239.792,105.590" stroke-width="3.563" stroke="black" fill="none" stroke-linecap="round"></path><path d="M 239.792,105.590 C 241.973,101.846 241.363,101.663 243.125,97.813" stroke-width="3.696" stroke="black" fill="none" stroke-linecap="round"></path><path d="M 243.125,97.813 C 245.292,90.299 244.195,94.068 244.236,90.035" stroke-width="3.749" stroke="black" fill="none" stroke-linecap="round"></path><path d="M 244.236,90.035 C 241.175,93.157 243.070,89.743 238.681,96.701" stroke-width="4.543" stroke="black" fill="none" stroke-linecap="round"></path><path d="M 238.681,96.701 C 229.461,107.616 230.619,108.157 223.125,120.035" stroke-width="2.602" stroke="black" fill="none" stroke-linecap="round"></path><path d="M 223.125,120.035 C 215.262,135.084 215.572,134.838 210.903,151.146" stroke-width="2.124" stroke="black" fill="none" stroke-linecap="round"></path><path d="M 210.903,151.146 C 203.975,174.275 204.707,173.973 202.014,197.813" stroke-width="2.097" stroke="black" fill="none" stroke-linecap="round"></path><path d="M 202.014,197.813 C 192.793,226.083 200.086,220.941 203.125,244.479" stroke-width="1.694" stroke="black" fill="none" stroke-linecap="round"></path><path d="M 203.125,244.479 C 224.070,265.433 215.571,266.639 247.569,278.924" stroke-width="1.402" stroke="black" fill="none" stroke-linecap="round"></path><path d="M 247.569,278.924 C 255.560,280.134 254.070,282.656 263.125,278.924" stroke-width="2.211" stroke="black" fill="none" stroke-linecap="round"></path><path d="M 263.125,278.924 C 270.621,278.497 269.449,277.912 275.347,274.479" stroke-width="2.768" stroke="black" fill="none" stroke-linecap="round"></path><path d="M 275.347,274.479 C 281.465,267.800 281.732,269.052 285.347,260.035" stroke-width="2.767" stroke="black" fill="none" stroke-linecap="round"></path><path d="M 285.347,260.035 C 287.962,252.908 288.687,253.355 289.792,245.590" stroke-width="2.854" stroke="black" fill="none" stroke-linecap="round"></path><path d="M 289.792,245.590 C 291.602,239.542 291.296,239.575 292.014,233.368" stroke-width="3.120" stroke="black" fill="none" stroke-linecap="round"></path><path d="M 292.014,233.368 C 293.090,222.655 292.713,222.876 292.014,212.257" stroke-width="2.666" stroke="black" fill="none" stroke-linecap="round"></path><path d="M 292.014,212.257 C 291.976,205.760 291.423,206.544 288.681,201.146" stroke-width="3.153" stroke="black" fill="none" stroke-linecap="round"></path><path d="M 288.681,201.146 C 280.593,189.319 280.865,190.204 269.792,181.146" stroke-width="2.306" stroke="black" fill="none" stroke-linecap="round"></path><path d="M 269.792,181.146 C 259.242,174.008 260.037,173.764 247.569,170.035" stroke-width="2.233" stroke="black" fill="none" stroke-linecap="round"></path><path d="M 247.569,170.035 C 232.675,166.137 233.131,165.120 217.569,163.368" stroke-width="2.067" stroke="black" fill="none" stroke-linecap="round"></path><path d="M 217.569,163.368 C 199.322,159.831 199.341,160.026 180.903,157.813" stroke-width="1.792" stroke="black" fill="none" stroke-linecap="round"></path><path d="M 180.903,157.813 C 158.696,155.914 158.766,155.387 136.458,154.479" stroke-width="1.713" stroke="black" fill="none" stroke-linecap="round"></path><path d="M 136.458,154.479 C 106.978,153.272 107.029,152.580 77.569,151.146" stroke-width="1.500" stroke="black" fill="none" stroke-linecap="round"></path><path d="M 77.569,151.146 C 57.071,152.947 60.867,149.938 44.236,147.813" stroke-width="2.008" stroke="black" fill="none" stroke-linecap="round"></path><path d="M 44.236,147.813 C 40.544,140.604 40.405,146.280 44.236,137.813" stroke-width="3.026" stroke="black" fill="none" stroke-linecap="round"></path><path d="M 44.236,137.813 C 66.317,124.135 63.322,123.382 89.792,113.368" stroke-width="1.598" stroke="black" fill="none" stroke-linecap="round"></path><path d="M 89.792,113.368 C 140.755,91.345 140.206,90.246 192.014,70.035" stroke-width="1.125" stroke="black" fill="none" stroke-linecap="round"></path><path d="M 192.014,70.035 C 239.788,50.582 239.644,50.234 287.569,31.146" stroke-width="1.125" stroke="black" fill="none" stroke-linecap="round"></path><path d="M 287.569,31.146 C 338.074,10.463 338.122,10.582 388.681,-9.965" stroke-width="1.125" stroke="black" fill="none" stroke-linecap="round"></path><path d="M 388.681,-9.965 C 410.526,-17.974 398.630,-13.982 408.681,-17.743" stroke-width="1.787" stroke="black" fill="none" stroke-linecap="round"></path><path d="M 408.681,-17.743 C 394.273,-13.175 406.081,-17.418 379.792,-8.854" stroke-width="2.040" stroke="black" fill="none" stroke-linecap="round"></path><path d="M 379.792,-8.854 C 325.721,8.617 325.384,7.380 270.903,23.368" stroke-width="1.125" stroke="black" fill="none" stroke-linecap="round"></path><path d="M 270.903,23.368 C 172.500,48.100 172.943,49.728 74.236,73.368" stroke-width="1.125" stroke="black" fill="none" stroke-linecap="round"></path><path d="M 74.236,73.368 C 16.517,86.748 16.945,88.100 -40.208,103.368" stroke-width="1.125" stroke="black" fill="none" stroke-linecap="round"></path><path d="M -40.208,103.368 C -80.965,114.857 -70.705,112.303 -100.208,124.479" stroke-width="1.135" stroke="black" fill="none" stroke-linecap="round"></path><path d="M -100.208,124.479 C -93.556,127.137 -104.298,126.524 -86.875,126.701" stroke-width="2.132" stroke="black" fill="none" stroke-linecap="round"></path><path d="M -86.875,126.701 C -67.870,124.559 -68.001,125.470 -49.097,121.146" stroke-width="1.836" stroke="black" fill="none" stroke-linecap="round"></path><path d="M -49.097,121.146 C -31.260,117.515 -31.203,117.892 -13.542,113.368" stroke-width="1.804" stroke="black" fill="none" stroke-linecap="round"></path><path d="M -13.542,113.368 C 20.767,104.420 20.962,105.293 55.347,96.701" stroke-width="1.188" stroke="black" fill="none" stroke-linecap="round"></path><path d="M 55.347,96.701 C 82.812,87.733 82.989,90.531 110.903,85.590" stroke-width="1.263" stroke="black" fill="none" stroke-linecap="round"></path><path d="M 110.903,85.590 C 149.711,82.327 148.368,82.733 186.458,86.701" stroke-width="1.125" stroke="black" fill="none" stroke-linecap="round"></path><path d="M 186.458,86.701 C 197.790,89.641 196.378,87.882 204.236,96.701" stroke-width="1.790" stroke="black" fill="none" stroke-linecap="round"></path><path d="M 204.236,96.701 C 208.607,104.203 209.456,102.419 209.792,112.257" stroke-width="2.422" stroke="black" fill="none" stroke-linecap="round"></path><path d="M 209.792,112.257 C 211.818,123.769 211.385,123.092 209.792,134.479" stroke-width="2.433" stroke="black" fill="none" stroke-linecap="round"></path><path d="M 209.792,134.479 C 206.281,144.093 207.929,144.324 202.014,153.368" stroke-width="2.621" stroke="black" fill="none" stroke-linecap="round"></path><path d="M 202.014,153.368 C 191.685,171.217 193.503,171.871 184.236,190.035" stroke-width="2.031" stroke="black" fill="none" stroke-linecap="round"></path><path d="M 184.236,190.035 C 181.264,198.399 181.129,197.884 180.903,206.701" stroke-width="2.746" stroke="black" fill="none" stroke-linecap="round"></path><path d="M 180.903,206.701 C 179.073,215.934 180.708,211.177 183.125,215.590" stroke-width="3.502" stroke="black" fill="none" stroke-linecap="round"></path><path d="M 183.125,215.590 C 215.586,210.969 211.851,213.156 246.458,201.146" stroke-width="1.398" stroke="black" fill="none" stroke-linecap="round"></path><path d="M 246.458,201.146 C 288.266,185.391 288.920,187.635 329.792,168.924" stroke-width="1.125" stroke="black" fill="none" stroke-linecap="round"></path><path d="M 329.792,168.924 C 384.840,146.819 384.932,147.057 439.792,124.479" stroke-width="1.125" stroke="black" fill="none" stroke-linecap="round"></path><path d="M 439.792,124.479 C 503.569,98.092 503.729,98.486 567.569,72.257" stroke-width="1.125" stroke="black" fill="none" stroke-linecap="round"></path><path d="M 567.569,72.257 C 624.668,49.141 624.680,49.203 682.014,26.701" stroke-width="1.125" stroke="black" fill="none" stroke-linecap="round"></path><path d="M 682.014,26.701 C 697.636,22.448 688.557,24.141 695.347,22.257" stroke-width="1.612" stroke="black" fill="none" stroke-linecap="round"></path><path d="M 695.347,22.257 C 681.934,23.422 690.970,21.892 668.681,25.590" stroke-width="1.925" stroke="black" fill="none" stroke-linecap="round"></path><path d="M 668.681,25.590 C 651.569,29.567 651.378,28.422 634.236,32.257" stroke-width="2.348" stroke="black" fill="none" stroke-linecap="round"></path><path d="M 634.236,32.257 C 490.497,55.013 490.458,54.567 346.458,75.590" stroke-width="1.125" stroke="black" fill="none" stroke-linecap="round"></path><path d="M 346.458,75.590 C 288.132,82.870 288.274,83.902 229.792,90.035" stroke-width="1.125" stroke="black" fill="none" stroke-linecap="round"></path><path d="M 229.792,90.035 C 193.084,94.184 193.132,94.537 156.458,98.924" stroke-width="1.125" stroke="black" fill="none" stroke-linecap="round"></path><path d="M 156.458,98.924 C 137.177,104.086 145.862,100.295 135.347,102.257" stroke-width="1.587" stroke="black" fill="none" stroke-linecap="round"></path><path d="M 135.347,102.257 C 142.165,96.601 133.843,100.753 149.792,92.257" stroke-width="2.792" stroke="black" fill="none" stroke-linecap="round"></path><path d="M 149.792,92.257 C 185.224,69.559 186.054,71.601 223.125,52.257" stroke-width="1.235" stroke="black" fill="none" stroke-linecap="round"></path><path d="M 223.125,52.257 C 262.852,36.471 261.891,34.559 303.125,22.257" stroke-width="1.125" stroke="black" fill="none" stroke-linecap="round"></path><path d="M 303.125,22.257 C 328.844,12.363 328.963,13.138 355.347,5.590" stroke-width="1.162" stroke="black" fill="none" stroke-linecap="round"></path><path d="M 355.347,5.590 C 379.194,0.690 378.844,-0.414 403.125,-3.299" stroke-width="1.549" stroke="black" fill="none" stroke-linecap="round"></path><path d="M 403.125,-3.299 C 410.090,-4.864 405.861,-3.755 408.681,-3.299" stroke-width="2.821" stroke="black" fill="none" stroke-linecap="round"></path><path d="M 408.681,-3.299 C 396.956,9.264 400.090,6.247 383.125,18.924" stroke-width="2.415" stroke="black" fill="none" stroke-linecap="round"></path><path d="M 383.125,18.924 C 362.069,34.500 361.956,33.708 338.681,45.590" stroke-width="1.647" stroke="black" fill="none" stroke-linecap="round"></path><path d="M 338.681,45.590 C 244.074,92.310 243.736,90.611 146.458,131.146" stroke-width="1.125" stroke="black" fill="none" stroke-linecap="round"></path><path d="M 146.458,131.146 C 87.867,151.263 89.074,153.976 28.681,168.924" stroke-width="1.125" stroke="black" fill="none" stroke-linecap="round"></path><path d="M 28.681,168.924 C 13.441,174.088 18.978,171.819 8.681,172.257" stroke-width="1.347" stroke="black" fill="none" stroke-linecap="round"></path><path d="M 8.681,172.257 C 11.120,167.580 6.219,171.310 14.236,163.368" stroke-width="2.628" stroke="black" fill="none" stroke-linecap="round"></path><path d="M 14.236,163.368 C 42.172,127.752 41.120,127.025 68.681,91.146" stroke-width="1.561" stroke="black" fill="none" stroke-linecap="round"></path><path d="M 68.681,91.146 C 77.296,79.375 77.172,79.419 84.236,66.701" stroke-width="1.891" stroke="black" fill="none" stroke-linecap="round"></path><path d="M 84.236,66.701 C 89.252,55.597 90.073,56.042 94.236,44.479" stroke-width="2.167" stroke="black" fill="none" stroke-linecap="round"></path><path d="M 94.236,44.479 C 96.235,33.256 96.474,39.486 98.681,34.479" stroke-width="2.874" stroke="black" fill="none" stroke-linecap="round"></path><path d="M 98.681,34.479 C 103.435,42.659 102.902,36.590 107.569,51.146" stroke-width="3.765" stroke="black" fill="none" stroke-linecap="round"></path><path d="M 107.569,51.146 C 114.683,64.075 113.990,64.326 119.792,77.813" stroke-width="2.313" stroke="black" fill="none" stroke-linecap="round"></path><path d="M 119.792,77.813 C 141.214,131.071 139.683,131.297 157.569,185.590" stroke-width="1.125" stroke="black" fill="none" stroke-linecap="round"></path><path d="M 157.569,185.590 C 160.604,203.890 162.880,203.294 163.125,222.257" stroke-width="1.445" stroke="black" fill="none" stroke-linecap="round"></path><path d="M 163.125,222.257 C 163.322,232.471 164.493,232.223 165.347,242.257" stroke-width="2.086" stroke="black" fill="none" stroke-linecap="round"></path><path d="M 165.347,242.257 C 167.155,248.546 166.656,248.582 169.792,254.479" stroke-width="2.979" stroke="black" fill="none" stroke-linecap="round"></path><path d="M 169.792,254.479 C 173.060,264.907 173.822,263.546 178.681,272.257" stroke-width="2.633" stroke="black" fill="none" stroke-linecap="round"></path><path d="M 178.681,272.257 C 181.862,274.357 180.283,274.352 184.236,273.368" stroke-width="3.781" stroke="black" fill="none" stroke-linecap="round"></path><path d="M 184.236,273.368 C 187.874,269.712 188.529,271.579 192.014,266.701" stroke-width="3.528" stroke="black" fill="none" stroke-linecap="round"></path><path d="M 192.014,266.701 C 212.335,251.907 212.319,251.934 233.125,237.813" stroke-width="1.732" stroke="black" fill="none" stroke-linecap="round"></path><path d="M 233.125,237.813 C 245.402,230.119 245.113,229.685 257.569,222.257" stroke-width="1.912" stroke="black" fill="none" stroke-linecap="round"></path><path d="M 257.569,222.257 C 281.580,206.884 281.513,206.786 305.347,191.146" stroke-width="1.431" stroke="black" fill="none" stroke-linecap="round"></path><path d="M 305.347,191.146 C 322.228,178.924 322.691,179.662 339.792,167.813" stroke-width="1.566" stroke="black" fill="none" stroke-linecap="round"></path><path d="M 339.792,167.813 C 349.901,162.444 349.450,161.702 359.792,156.701" stroke-width="2.068" stroke="black" fill="none" stroke-linecap="round"></path><path d="M 359.792,156.701 C 377.145,147.085 367.123,152.444 374.236,147.813" stroke-width="2.491" stroke="black" fill="none" stroke-linecap="round"></path><path d="M 374.236,147.813 C 358.616,155.945 368.256,149.308 342.014,161.146" stroke-width="3.230" stroke="black" fill="none" stroke-linecap="round"></path><path d="M 342.014,161.146 C 312.497,171.661 312.505,170.390 282.014,176.701" stroke-width="1.490" stroke="black" fill="none" stroke-linecap="round"></path><path d="M 282.014,176.701 C 241.558,182.667 241.941,183.328 200.903,184.479" stroke-width="1.125" stroke="black" fill="none" stroke-linecap="round"></path><path d="M 200.903,184.479 C 154.206,185.312 154.335,186.555 107.569,184.479" stroke-width="1.125" stroke="black" fill="none" stroke-linecap="round"></path><path d="M 107.569,184.479 C 91.812,184.859 91.984,184.201 76.458,182.257" stroke-width="1.495" stroke="black" fill="none" stroke-linecap="round"></path><path d="M 76.458,182.257 C 26.068,173.394 26.257,173.748 -23.542,162.257" stroke-width="1.140" stroke="black" fill="none" stroke-linecap="round"></path><path d="M -23.542,162.257 C -35.010,160.668 -28.376,161.172 -32.431,157.813" stroke-width="2.299" stroke="black" fill="none" stroke-linecap="round"></path><path d="M -32.431,157.813 C -14.578,139.054 -19.454,143.446 7.569,127.813" stroke-width="1.610" stroke="black" fill="none" stroke-linecap="round"></path><path d="M 7.569,127.813 C 60.891,105.563 58.755,101.832 114.236,83.368" stroke-width="1.125" stroke="black" fill="none" stroke-linecap="round"></path><path d="M 114.236,83.368 C 136.644,72.958 137.002,73.896 159.792,64.479" stroke-width="1.179" stroke="black" fill="none" stroke-linecap="round"></path><path d="M 159.792,64.479 C 232.362,38.290 232.200,37.958 305.347,13.368" stroke-width="1.125" stroke="black" fill="none" stroke-linecap="round"></path><path d="M 305.347,13.368 C 339.606,0.752 323.473,7.179 342.014,2.257" stroke-width="1.166" stroke="black" fill="none" stroke-linecap="round"></path><path d="M 342.014,2.257 C 328.911,12.163 344.050,3.530 314.236,18.924" stroke-width="1.985" stroke="black" fill="none" stroke-linecap="round"></path><path d="M 314.236,18.924 C 278.869,33.850 279.466,34.941 243.125,47.813" stroke-width="1.194" stroke="black" fill="none" stroke-linecap="round"></path><path d="M 243.125,47.813 C 207.018,59.826 207.758,61.628 172.014,74.479" stroke-width="1.125" stroke="black" fill="none" stroke-linecap="round"></path><path d="M 172.014,74.479 C 133.808,88.375 135.352,89.826 99.792,107.813" stroke-width="1.125" stroke="black" fill="none" stroke-linecap="round"></path><path d="M 99.792,107.813 C 88.391,116.410 91.030,112.819 86.458,123.368" stroke-width="1.721" stroke="black" fill="none" stroke-linecap="round"></path><path d="M 86.458,123.368 C 89.913,127.092 85.613,126.410 94.236,127.813" stroke-width="2.714" stroke="black" fill="none" stroke-linecap="round"></path><path d="M 94.236,127.813 C 107.033,129.356 106.580,129.870 119.792,128.924" stroke-width="2.368" stroke="black" fill="none" stroke-linecap="round"></path><path d="M 119.792,128.924 C 139.890,128.102 139.811,128.245 159.792,125.590" stroke-width="1.835" stroke="black" fill="none" stroke-linecap="round"></path><path d="M 159.792,125.590 C 196.944,119.363 197.112,120.880 234.236,114.479" stroke-width="1.192" stroke="black" fill="none" stroke-linecap="round"></path><path d="M 234.236,114.479 C 247.267,109.788 243.611,113.252 253.125,113.368" stroke-width="1.943" stroke="black" fill="none" stroke-linecap="round"></path><path d="M 253.125,113.368 C 256.308,120.693 257.267,115.899 254.236,126.701" stroke-width="3.037" stroke="black" fill="none" stroke-linecap="round"></path><path d="M 254.236,126.701 C 248.686,136.550 250.752,136.804 242.014,145.590" stroke-width="2.578" stroke="black" fill="none" stroke-linecap="round"></path><path d="M 242.014,145.590 C 229.349,158.634 231.464,159.884 219.792,173.368" stroke-width="1.932" stroke="black" fill="none" stroke-linecap="round"></path><path d="M 219.792,173.368 C 214.606,181.516 216.016,179.189 215.347,186.701" stroke-width="2.614" stroke="black" fill="none" stroke-linecap="round"></path><path d="M 215.347,186.701 C 218.729,189.716 215.718,189.294 222.014,188.924" stroke-width="3.763" stroke="black" fill="none" stroke-linecap="round"></path><path d="M 222.014,188.924 C 235.176,184.756 234.840,185.828 247.569,178.924" stroke-width="2.469" stroke="black" fill="none" stroke-linecap="round"></path><path d="M 247.569,178.924 C 263.346,170.977 263.509,171.423 278.681,162.257" stroke-width="1.983" stroke="black" fill="none" stroke-linecap="round"></path><path d="M 278.681,162.257 C 291.158,153.936 291.679,154.866 304.236,146.701" stroke-width="2.072" stroke="black" fill="none" stroke-linecap="round"></path><path d="M 304.236,146.701 C 317.625,140.143 317.269,139.492 330.903,133.368" stroke-width="1.996" stroke="black" fill="none" stroke-linecap="round"></path><path d="M 330.903,133.368 C 356.066,119.904 344.847,126.254 358.681,118.924" stroke-width="1.929" stroke="black" fill="none" stroke-linecap="round"></path><path d="M 358.681,118.924 C 349.969,126.091 360.511,118.237 339.792,130.035" stroke-width="3.125" stroke="black" fill="none" stroke-linecap="round"></path><path d="M 339.792,130.035 C 305.234,143.337 305.525,143.313 269.792,153.368" stroke-width="1.259" stroke="black" fill="none" stroke-linecap="round"></path><path d="M 269.792,153.368 C 246.020,159.069 246.345,160.004 222.014,163.368" stroke-width="1.347" stroke="black" fill="none" stroke-linecap="round"></path><path d="M 222.014,163.368 C 208.706,165.449 208.797,165.735 195.347,166.701" stroke-width="1.839" stroke="black" fill="none" stroke-linecap="round"></path><path d="M 195.347,166.701 C 184.398,167.800 190.929,167.116 186.458,166.701" stroke-width="2.835" stroke="black" fill="none" stroke-linecap="round"></path><path d="M 186.458,166.701 C 198.967,161.318 192.731,163.356 212.014,157.813" stroke-width="3.037" stroke="black" fill="none" stroke-linecap="round"></path><path d="M 212.014,157.813 C 236.368,151.824 236.189,151.318 260.903,146.701" stroke-width="1.813" stroke="black" fill="none" stroke-linecap="round"></path><path d="M 260.903,146.701 C 286.973,141.479 286.923,141.269 313.125,136.701" stroke-width="1.422" stroke="black" fill="none" stroke-linecap="round"></path><path d="M 313.125,136.701 C 344.694,130.312 344.751,130.924 376.458,125.590" stroke-width="1.282" stroke="black" fill="none" stroke-linecap="round"></path><path d="M 376.458,125.590 C 390.446,122.217 385.805,124.201 395.347,124.479" stroke-width="2.289" stroke="black" fill="none" stroke-linecap="round"></path><path d="M 395.347,124.479 C 394.398,129.584 397.668,125.550 390.903,132.257" stroke-width="3.075" stroke="black" fill="none" stroke-linecap="round"></path><path d="M 390.903,132.257 C 375.327,144.929 375.509,144.029 357.569,153.368" stroke-width="1.958" stroke="black" fill="none" stroke-linecap="round"></path><path d="M 357.569,153.368 C 319.146,172.812 319.216,171.595 278.681,185.590" stroke-width="1.125" stroke="black" fill="none" stroke-linecap="round"></path><path d="M 278.681,185.590 C 244.384,193.783 245.257,196.145 209.792,200.035" stroke-width="1.125" stroke="black" fill="none" stroke-linecap="round"></path><path d="M 209.792,200.035 C 187.281,205.000 198.273,202.117 186.458,202.257" stroke-width="1.728" stroke="black" fill="none" stroke-linecap="round"></path><path d="M 186.458,202.257 C 196.073,194.958 185.615,199.444 206.458,188.924" stroke-width="2.607" stroke="black" fill="none" stroke-linecap="round"></path><path d="M 206.458,188.924 C 237.213,171.029 237.185,171.069 268.681,154.479" stroke-width="1.262" stroke="black" fill="none" stroke-linecap="round"></path><path d="M 268.681,154.479 C 312.749,132.604 312.213,131.584 356.458,110.035" stroke-width="1.125" stroke="black" fill="none" stroke-linecap="round"></path><path d="M 356.458,110.035 C 397.685,88.584 397.749,88.715 438.681,66.701" stroke-width="1.125" stroke="black" fill="none" stroke-linecap="round"></path><path d="M 438.681,66.701 C 481.347,46.725 479.907,44.695 520.903,22.257" stroke-width="1.125" stroke="black" fill="none" stroke-linecap="round"></path><path d="M 520.903,22.257 C 539.900,9.654 535.235,13.391 546.458,0.035" stroke-width="1.751" stroke="black" fill="none" stroke-linecap="round"></path></svg>