<svg xmlns="http://www.w3.org/2000/svg" xmlns:xlink="http://www.w3.org/1999/xlink" viewBox="0 0 370.37036382939436 185.18518191469718" width="370.37036382939436" height="185.18518191469718"><circle r="1.5" cx="180.1504364013672" cy="145.52084350585938" fill="black"></circle><path d="M 180.150,145.521 C 177.565,142.546 177.187,143.299 174.225,141.076" stroke-width="5.355" stroke="black" fill="none" stroke-linecap="round"></path><path d="M 174.225,141.076 C 167.915,139.269 168.306,138.472 161.632,137.373" stroke-width="4.068" stroke="black" fill="none" stroke-linecap="round"></path><path d="M 161.632,137.373 C 148.228,133.515 148.285,133.343 134.965,129.225" stroke-width="2.626" stroke="black" fill="none" stroke-linecap="round"></path><path d="M 134.965,129.225 C 123.191,124.903 123.043,125.367 111.262,121.076" stroke-width="2.306" stroke="black" fill="none" stroke-linecap="round"></path><path d="M 111.262,121.076 C 103.422,119.043 103.562,118.607 95.706,116.632" stroke-width="2.681" stroke="black" fill="none" stroke-linecap="round"></path><path d="M 95.706,116.632 C 91.597,115.240 91.571,115.340 87.558,113.669" stroke-width="3.336" stroke="black" fill="none" stroke-linecap="round"></path><path d="M 87.558,113.669 C 82.373,113.147 84.930,112.647 82.373,111.447" stroke-width="3.872" stroke="black" fill="none" stroke-linecap="round"></path><path d="M 82.373,111.447 C 84.177,107.211 82.373,109.073 87.558,105.521" stroke-width="4.618" stroke="black" fill="none" stroke-linecap="round"></path><path d="M 87.558,105.521 C 94.462,102.863 93.807,102.397 101.632,101.817" stroke-width="3.379" stroke="black" fill="none" stroke-linecap="round"></path><path d="M 101.632,101.817 C 112.400,101.332 112.240,100.270 123.113,100.336" stroke-width="2.627" stroke="black" fill="none" stroke-linecap="round"></path><path d="M 123.113,100.336 C 128.268,99.170 128.326,99.851 133.484,98.854" stroke-width="3.171" stroke="black" fill="none" stroke-linecap="round"></path><path d="M 133.484,98.854 C 140.604,98.181 140.491,98.430 147.558,98.854" stroke-width="3.044" stroke="black" fill="none" stroke-linecap="round"></path><path d="M 147.558,98.854 C 152.441,99.191 152.085,99.292 156.447,101.076" stroke-width="3.447" stroke="black" fill="none" stroke-linecap="round"></path><path d="M 156.447,101.076 C 158.489,102.763 158.737,102.154 160.150,104.780" stroke-width="4.038" stroke="black" fill="none" stroke-linecap="round"></path><path d="M 160.150,104.780 C 164.039,108.907 163.674,109.059 166.817,113.669" stroke-width="3.507" stroke="black" fill="none" stroke-linecap="round"></path><path d="M 166.817,113.669 C 169.127,117.978 169.225,117.796 170.521,122.558" stroke-width="3.565" stroke="black" fill="none" stroke-linecap="round"></path><path d="M 170.521,122.558 C 171.150,126.656 171.720,126.497 172.002,130.706" stroke-width="3.663" stroke="black" fill="none" stroke-linecap="round"></path><path d="M 172.002,130.706 C 173.251,133.606 172.631,133.693 173.484,136.632" stroke-width="3.983" stroke="black" fill="none" stroke-linecap="round"></path><path d="M 173.484,136.632 C 175.211,143.746 173.992,143.236 173.484,149.965" stroke-width="3.295" stroke="black" fill="none" stroke-linecap="round"></path><path d="M 173.484,149.965 C 170.637,157.278 171.508,157.080 166.076,163.299" stroke-width="3.116" stroke="black" fill="none" stroke-linecap="round"></path><path d="M 166.076,163.299 C 161.120,169.645 161.378,169.501 154.965,174.410" stroke-width="2.916" stroke="black" fill="none" stroke-linecap="round"></path><path d="M 154.965,174.410 C 149.445,178.852 149.639,178.533 143.113,181.076" stroke-width="3.002" stroke="black" fill="none" stroke-linecap="round"></path><path d="M 143.113,181.076 C 135.410,183.150 135.741,183.667 127.558,184.039" stroke-width="3.048" stroke="black" fill="none" stroke-linecap="round"></path><path d="M 127.558,184.039 C 115.711,184.928 115.781,185.373 103.854,185.521" stroke-width="2.643" stroke="black" fill="none" stroke-linecap="round"></path><path d="M 103.854,185.521 C 98.502,187.243 100.896,185.669 97.928,185.521" stroke-width="3.520" stroke="black" fill="none" stroke-linecap="round"></path><path d="M 97.928,185.521 C 97.728,179.974 97.021,182.798 100.891,176.632" stroke-width="4.377" stroke="black" fill="none" stroke-linecap="round"></path><path d="M 100.891,176.632 C 117.837,158.665 117.358,159.233 137.188,144.039" stroke-width="1.951" stroke="black" fill="none" stroke-linecap="round"></path><path d="M 137.188,144.039 C 150.259,134.947 149.689,134.591 164.595,128.484" stroke-width="1.911" stroke="black" fill="none" stroke-linecap="round"></path><path d="M 164.595,128.484 C 195.818,115.169 195.444,114.576 227.558,103.299" stroke-width="1.236" stroke="black" fill="none" stroke-linecap="round"></path><path d="M 227.558,103.299 C 241.566,98.631 241.374,98.132 255.706,94.410" stroke-width="1.676" stroke="black" fill="none" stroke-linecap="round"></path><path d="M 255.706,94.410 C 266.328,90.757 266.381,91.223 277.187,88.484" stroke-width="2.143" stroke="black" fill="none" stroke-linecap="round"></path><path d="M 277.187,88.484 C 289.380,84.859 282.254,87.423 287.558,87.743" stroke-width="2.937" stroke="black" fill="none" stroke-linecap="round"></path><path d="M 287.558,87.743 C 275.352,104.830 280.491,98.933 259.410,116.632" stroke-width="3.304" stroke="black" fill="none" stroke-linecap="round"></path><path d="M 259.410,116.632 C 245.639,125.499 246.834,125.941 230.521,129.965" stroke-width="2.231" stroke="black" fill="none" stroke-linecap="round"></path><path d="M 230.521,129.965 C 212.422,133.292 213.046,135.128 194.225,135.891" stroke-width="1.894" stroke="black" fill="none" stroke-linecap="round"></path><path d="M 194.225,135.891 C 183.845,136.929 183.903,137.366 173.484,138.113" stroke-width="2.296" stroke="black" fill="none" stroke-linecap="round"></path><path d="M 173.484,138.113 C 167.792,139.741 170.882,138.411 168.299,138.854" stroke-width="3.408" stroke="black" fill="none" stroke-linecap="round"></path><path d="M 168.299,138.854 C 172.125,135.501 169.273,137.148 176.447,132.928" stroke-width="4.200" stroke="black" fill="none" stroke-linecap="round"></path><path d="M 176.447,132.928 C 187.794,126.376 187.681,126.241 199.410,120.336" stroke-width="2.653" stroke="black" fill="none" stroke-linecap="round"></path><path d="M 199.410,120.336 C 215.476,111.694 215.572,111.931 232.002,104.039" stroke-width="1.920" stroke="black" fill="none" stroke-linecap="round"></path><path d="M 232.002,104.039 C 250.449,94.682 250.661,95.397 269.780,87.743" stroke-width="1.719" stroke="black" fill="none" stroke-linecap="round"></path><path d="M 269.780,87.743 C 293.917,79.116 293.782,79.127 318.669,72.928" stroke-width="1.486" stroke="black" fill="none" stroke-linecap="round"></path><path d="M 318.669,72.928 C 345.893,66.079 345.769,66.153 373.484,61.817" stroke-width="1.654" stroke="black" fill="none" stroke-linecap="round"></path><path d="M 373.484,61.817 C 392.811,56.699 391.449,59.042 409.780,58.854" stroke-width="2.111" stroke="black" fill="none" stroke-linecap="round"></path><path d="M 409.780,58.854 C 415.407,62.856 416.144,59.662 420.150,67.743" stroke-width="2.845" stroke="black" fill="none" stroke-linecap="round"></path><path d="M 420.150,67.743 C 426.334,76.765 427.629,75.448 434.225,84.039" stroke-width="2.516" stroke="black" fill="none" stroke-linecap="round"></path><path d="M 434.225,84.039 C 450.420,98.445 450.038,98.617 467.558,111.447" stroke-width="2.296" stroke="black" fill="none" stroke-linecap="round"></path><path d="M 467.558,111.447 C 472.226,114.399 471.901,114.742 477.187,116.632" stroke-width="2.940" stroke="black" fill="none" stroke-linecap="round"></path><path d="M 477.187,116.632 C 482.961,117.672 479.634,117.733 482.373,118.113" stroke-width="3.760" stroke="black" fill="none" stroke-linecap="round"></path><path d="M 482.373,118.113 C 478.304,118.556 481.480,118.783 474.225,118.854" stroke-width="4.652" stroke="black" fill="none" stroke-linecap="round"></path><path d="M 474.225,118.854 C 463.128,120.047 463.119,119.667 452.002,120.336" stroke-width="2.761" stroke="black" fill="none" stroke-linecap="round"></path><path d="M 452.002,120.336 C 434.595,120.336 434.610,120.787 417.187,120.336" stroke-width="2.325" stroke="black" fill="none" stroke-linecap="round"></path><path d="M 417.187,120.336 C 375.701,120.624 375.706,120.336 334.225,120.336" stroke-width="1.162" stroke="black" fill="none" stroke-linecap="round"></path><path d="M 334.225,120.336 C 322.352,120.277 322.368,120.253 310.521,119.595" stroke-width="1.763" stroke="black" fill="none" stroke-linecap="round"></path><path d="M 310.521,119.595 C 302.958,119.456 303.093,119.166 295.706,118.113" stroke-width="2.478" stroke="black" fill="none" stroke-linecap="round"></path><path d="M 295.706,118.113 C 291.262,117.743 292.958,117.605 290.521,115.891" stroke-width="3.748" stroke="black" fill="none" stroke-linecap="round"></path><path d="M 290.521,115.891 C 290.517,112.339 289.780,114.039 292.743,110.706" stroke-width="4.649" stroke="black" fill="none" stroke-linecap="round"></path><path d="M 292.743,110.706 C 307.891,100.337 307.183,100.116 323.854,91.447" stroke-width="2.263" stroke="black" fill="none" stroke-linecap="round"></path><path d="M 323.854,91.447 C 337.101,83.661 337.151,84.041 351.262,78.113" stroke-width="2.024" stroke="black" fill="none" stroke-linecap="round"></path><path d="M 351.262,78.113 C 373.326,70.185 373.027,69.587 395.706,63.299" stroke-width="1.624" stroke="black" fill="none" stroke-linecap="round"></path><path d="M 395.706,63.299 C 411.861,58.257 411.845,58.333 428.299,54.410" stroke-width="1.797" stroke="black" fill="none" stroke-linecap="round"></path><path d="M 428.299,54.410 C 446.747,50.000 446.676,50.109 465.336,47.002" stroke-width="1.709" stroke="black" fill="none" stroke-linecap="round"></path><path d="M 465.336,47.002 C 472.933,44.972 469.710,46.297 474.225,47.002" stroke-width="2.767" stroke="black" fill="none" stroke-linecap="round"></path><path d="M 474.225,47.002 C 473.742,52.542 475.525,49.046 470.521,55.150" stroke-width="4.004" stroke="black" fill="none" stroke-linecap="round"></path><path d="M 470.521,55.150 C 464.785,58.066 465.965,58.839 458.669,59.595" stroke-width="3.424" stroke="black" fill="none" stroke-linecap="round"></path><path d="M 458.669,59.595 C 448.409,62.501 448.489,62.140 437.928,63.299" stroke-width="2.660" stroke="black" fill="none" stroke-linecap="round"></path><path d="M 437.928,63.299 C 414.226,64.072 414.335,65.094 390.521,64.780" stroke-width="1.711" stroke="black" fill="none" stroke-linecap="round"></path><path d="M 390.521,64.780 C 364.597,65.607 364.596,65.554 338.669,66.262" stroke-width="1.519" stroke="black" fill="none" stroke-linecap="round"></path><path d="M 338.669,66.262 C 291.266,67.715 291.264,67.459 243.854,68.484" stroke-width="1.125" stroke="black" fill="none" stroke-linecap="round"></path><path d="M 243.854,68.484 C 222.743,68.484 222.747,68.826 201.632,68.484" stroke-width="1.621" stroke="black" fill="none" stroke-linecap="round"></path><path d="M 201.632,68.484 C 184.225,68.484 184.225,68.484 166.817,68.484" stroke-width="1.939" stroke="black" fill="none" stroke-linecap="round"></path><path d="M 166.817,68.484 C 160.841,70.039 163.484,68.484 160.150,68.484" stroke-width="3.049" stroke="black" fill="none" stroke-linecap="round"></path><path d="M 160.150,68.484 C 161.658,64.891 159.360,66.705 163.854,61.817" stroke-width="4.215" stroke="black" fill="none" stroke-linecap="round"></path><path d="M 163.854,61.817 C 165.558,59.798 165.362,59.706 167.558,58.113" stroke-width="4.274" stroke="black" fill="none" stroke-linecap="round"></path><path d="M 167.558,58.113 C 172.444,53.542 172.595,53.872 177.928,49.965" stroke-width="4.092" stroke="black" fill="none" stroke-linecap="round"></path><path d="M 177.928,49.965 C 181.086,47.931 180.962,47.987 184.595,47.002" stroke-width="3.982" stroke="black" fill="none" stroke-linecap="round"></path><path d="M 184.595,47.002 C 193.769,44.293 193.678,44.598 203.113,43.299" stroke-width="2.958" stroke="black" fill="none" stroke-linecap="round"></path><path d="M 203.113,43.299 C 211.314,42.576 211.177,42.441 219.410,43.299" stroke-width="2.836" stroke="black" fill="none" stroke-linecap="round"></path><path d="M 219.410,43.299 C 232.794,42.754 232.055,44.428 244.595,47.002" stroke-width="2.401" stroke="black" fill="none" stroke-linecap="round"></path><path d="M 244.595,47.002 C 261.256,53.017 260.572,52.754 274.965,63.299" stroke-width="1.993" stroke="black" fill="none" stroke-linecap="round"></path><path d="M 274.965,63.299 C 300.982,86.596 302.738,84.128 327.558,109.225" stroke-width="1.222" stroke="black" fill="none" stroke-linecap="round"></path><path d="M 327.558,109.225 C 338.884,117.858 338.390,118.448 349.780,127.002" stroke-width="1.730" stroke="black" fill="none" stroke-linecap="round"></path><path d="M 349.780,127.002 C 359.135,135.858 359.625,135.265 369.039,144.039" stroke-width="2.008" stroke="black" fill="none" stroke-linecap="round"></path><path d="M 369.039,144.039 C 376.548,149.468 376.172,149.932 383.854,155.150" stroke-width="2.443" stroke="black" fill="none" stroke-linecap="round"></path><path d="M 383.854,155.150 C 386.539,157.273 386.548,157.246 389.039,159.595" stroke-width="3.364" stroke="black" fill="none" stroke-linecap="round"></path><path d="M 389.039,159.595 C 391.198,162.889 391.724,162.088 394.225,164.780" stroke-width="3.741" stroke="black" fill="none" stroke-linecap="round"></path><path d="M 394.225,164.780 C 397.735,167.501 397.124,166.593 400.891,167.002" stroke-width="4.606" stroke="black" fill="none" stroke-linecap="round"></path><path d="M 400.891,167.002 C 404.759,165.028 404.772,166.390 408.299,162.558" stroke-width="4.062" stroke="black" fill="none" stroke-linecap="round"></path><path d="M 408.299,162.558 C 420.291,153.325 420.685,153.916 432.743,144.780" stroke-width="2.962" stroke="black" fill="none" stroke-linecap="round"></path><path d="M 432.743,144.780 C 439.460,140.786 439.180,140.362 446.076,136.632" stroke-width="2.940" stroke="black" fill="none" stroke-linecap="round"></path><path d="M 446.076,136.632 C 455.512,130.964 455.386,130.786 464.595,124.780" stroke-width="2.516" stroke="black" fill="none" stroke-linecap="round"></path><path d="M 464.595,124.780 C 472.529,118.503 472.919,119.112 480.891,112.928" stroke-width="2.556" stroke="black" fill="none" stroke-linecap="round"></path><path d="M 480.891,112.928 C 483.985,111.664 483.641,111.095 486.817,109.965" stroke-width="3.445" stroke="black" fill="none" stroke-linecap="round"></path><path d="M 486.817,109.965 C 492.002,105.765 489.541,108.331 492.002,106.262" stroke-width="3.873" stroke="black" fill="none" stroke-linecap="round"></path><path d="M 492.002,106.262 C 489.651,109.463 492.002,106.876 486.817,112.188" stroke-width="4.760" stroke="black" fill="none" stroke-linecap="round"></path><path d="M 486.817,112.188 C 481.032,120.409 480.021,118.722 472.743,124.780" stroke-width="2.991" stroke="black" fill="none" stroke-linecap="round"></path><path d="M 472.743,124.780 C 439.728,141.868 440.292,141.891 405.336,155.150" stroke-width="1.882" stroke="black" fill="none" stroke-linecap="round"></path><path d="M 405.336,155.150 C 385.435,161.093 386.024,162.609 365.336,166.262" stroke-width="1.701" stroke="black" fill="none" stroke-linecap="round"></path><path d="M 365.336,166.262 C 346.576,171.391 346.546,171.093 327.558,175.150" stroke-width="1.757" stroke="black" fill="none" stroke-linecap="round"></path><path d="M 327.558,175.150 C 314.628,177.325 314.724,177.687 301.632,178.854" stroke-width="1.951" stroke="black" fill="none" stroke-linecap="round"></path><path d="M 301.632,178.854 C 295.710,179.337 295.739,179.547 289.780,179.595" stroke-width="2.739" stroke="black" fill="none" stroke-linecap="round"></path><path d="M 289.780,179.595 C 285.074,181.847 287.191,179.707 284.595,179.595" stroke-width="3.677" stroke="black" fill="none" stroke-linecap="round"></path><path d="M 284.595,179.595 C 281.392,161.944 281.370,164.440 282.373,144.780" stroke-width="3.679" stroke="black" fill="none" stroke-linecap="round"></path><path d="M 282.373,144.780 C 283.685,135.656 282.873,136.018 287.558,127.743" stroke-width="2.973" stroke="black" fill="none" stroke-linecap="round"></path><path d="M 287.558,127.743 C 292.794,118.289 292.204,118.249 299.410,109.965" stroke-width="2.619" stroke="black" fill="none" stroke-linecap="round"></path><path d="M 299.410,109.965 C 304.526,103.882 304.275,103.844 310.521,98.854" stroke-width="2.769" stroke="black" fill="none" stroke-linecap="round"></path><path d="M 310.521,98.854 C 315.792,93.429 316.008,94.252 322.373,90.706" stroke-width="2.958" stroke="black" fill="none" stroke-linecap="round"></path><path d="M 322.373,90.706 C 337.671,84.191 337.274,84.540 353.484,81.076" stroke-width="2.087" stroke="black" fill="none" stroke-linecap="round"></path><path d="M 353.484,81.076 C 362.578,79.755 362.116,79.376 371.262,81.076" stroke-width="2.510" stroke="black" fill="none" stroke-linecap="round"></path><path d="M 371.262,81.076 C 380.122,82.246 379.615,82.348 387.558,86.262" stroke-width="2.709" stroke="black" fill="none" stroke-linecap="round"></path><path d="M 387.558,86.262 C 398.164,93.355 398.641,92.246 408.299,101.076" stroke-width="2.307" stroke="black" fill="none" stroke-linecap="round"></path><path d="M 408.299,101.076 C 428.748,117.767 429.275,117.058 449.780,133.669" stroke-width="1.561" stroke="black" fill="none" stroke-linecap="round"></path><path d="M 449.780,133.669 C 459.425,140.314 459.119,140.730 469.039,147.002" stroke-width="2.049" stroke="black" fill="none" stroke-linecap="round"></path><path d="M 469.039,147.002 C 477.349,151.409 476.462,152.166 483.854,157.373" stroke-width="2.480" stroke="black" fill="none" stroke-linecap="round"></path><path d="M 483.854,157.373 C 488.517,161.299 486.238,159.557 486.817,163.299" stroke-width="3.698" stroke="black" fill="none" stroke-linecap="round"></path><path d="M 486.817,163.299 C 479.756,169.995 482.221,168.706 471.262,172.188" stroke-width="2.899" stroke="black" fill="none" stroke-linecap="round"></path><path d="M 471.262,172.188 C 456.115,174.323 456.793,175.921 440.891,175.150" stroke-width="2.216" stroke="black" fill="none" stroke-linecap="round"></path><path d="M 440.891,175.150 C 422.004,175.688 422.041,176.175 403.113,175.891" stroke-width="1.864" stroke="black" fill="none" stroke-linecap="round"></path><path d="M 403.113,175.891 C 387.555,175.664 387.559,176.058 372.002,175.891" stroke-width="1.949" stroke="black" fill="none" stroke-linecap="round"></path><path d="M 372.002,175.891 C 336.819,176.771 336.815,176.405 301.632,177.373" stroke-width="1.211" stroke="black" fill="none" stroke-linecap="round"></path><path d="M 301.632,177.373 C 293.480,177.153 293.485,177.512 285.336,177.373" stroke-width="2.035" stroke="black" fill="none" stroke-linecap="round"></path><path d="M 285.336,177.373 C 266.076,178.601 266.072,177.893 246.817,178.854" stroke-width="1.749" stroke="black" fill="none" stroke-linecap="round"></path><path d="M 246.817,178.854 C 237.782,179.206 237.927,178.971 229.039,178.113" stroke-width="2.346" stroke="black" fill="none" stroke-linecap="round"></path><path d="M 229.039,178.113 C 225.178,177.956 225.930,177.725 223.113,175.891" stroke-width="3.349" stroke="black" fill="none" stroke-linecap="round"></path><path d="M 223.113,175.891 C 219.736,172.540 220.734,173.511 220.150,169.225" stroke-width="4.140" stroke="black" fill="none" stroke-linecap="round"></path><path d="M 220.150,169.225 C 220.573,161.516 220.847,163.652 225.336,158.113" stroke-width="4.113" stroke="black" fill="none" stroke-linecap="round"></path><path d="M 225.336,158.113 C 240.201,148.450 238.721,148.553 256.447,143.299" stroke-width="2.224" stroke="black" fill="none" stroke-linecap="round"></path><path d="M 256.447,143.299 C 271.209,140.603 270.572,138.820 286.076,138.854" stroke-width="2.089" stroke="black" fill="none" stroke-linecap="round"></path><path d="M 286.076,138.854 C 296.439,137.572 296.394,137.640 306.817,137.373" stroke-width="2.327" stroke="black" fill="none" stroke-linecap="round"></path><path d="M 306.817,137.373 C 316.053,136.215 315.698,137.202 324.595,138.113" stroke-width="2.607" stroke="black" fill="none" stroke-linecap="round"></path><path d="M 324.595,138.113 C 333.263,140.045 332.720,139.919 340.150,144.780" stroke-width="2.752" stroke="black" fill="none" stroke-linecap="round"></path><path d="M 340.150,144.780 C 351.795,152.369 351.041,152.267 360.150,162.558" stroke-width="2.329" stroke="black" fill="none" stroke-linecap="round"></path><path d="M 360.150,162.558 C 366.098,171.865 366.980,170.887 370.521,181.817" stroke-width="2.362" stroke="black" fill="none" stroke-linecap="round"></path><path d="M 370.521,181.817 C 373.766,188.696 373.505,188.532 374.965,195.891" stroke-width="2.782" stroke="black" fill="none" stroke-linecap="round"></path><path d="M 374.965,195.891 C 377.371,203.303 375.988,202.030 374.965,208.484" stroke-width="3.082" stroke="black" fill="none" stroke-linecap="round"></path><path d="M 374.965,208.484 C 370.586,213.271 372.556,213.673 365.336,216.632" stroke-width="3.126" stroke="black" fill="none" stroke-linecap="round"></path><path d="M 365.336,216.632 C 361.041,218.974 361.327,219.197 356.447,220.336" stroke-width="3.438" stroke="black" fill="none" stroke-linecap="round"></path><path d="M 356.447,220.336 C 350.946,221.878 351.041,221.937 345.336,222.558" stroke-width="3.335" stroke="black" fill="none" stroke-linecap="round"></path></svg>