<svg xmlns="http://www.w3.org/2000/svg" xmlns:xlink="http://www.w3.org/1999/xlink" viewBox="0 0 500 250" width="500" height="250"><path d="M 113.000,154.063 C 110.623,152.329 110.500,152.563 108.000,151.063" stroke-width="5.424" stroke="black" fill="none" stroke-linecap="round"></path><path d="M 108.000,151.063 C 95.802,145.963 96.123,145.329 84.000,140.063" stroke-width="2.681" stroke="black" fill="none" stroke-linecap="round"></path><path d="M 84.000,140.063 C 68.693,132.594 68.802,132.463 54.000,124.063" stroke-width="2.061" stroke="black" fill="none" stroke-linecap="round"></path><path d="M 54.000,124.063 C 37.175,115.099 37.693,114.594 22.000,104.063" stroke-width="1.775" stroke="black" fill="none" stroke-linecap="round"></path><path d="M 22.000,104.063 C 9.261,97.233 15.175,99.099 10.000,92.063" stroke-width="2.394" stroke="black" fill="none" stroke-linecap="round"></path><path d="M 10.000,92.063 C 16.961,86.447 10.761,86.733 25.000,83.063" stroke-width="2.592" stroke="black" fill="none" stroke-linecap="round"></path><path d="M 25.000,83.063 C 54.707,68.850 54.961,70.447 86.000,60.063" stroke-width="1.394" stroke="black" fill="none" stroke-linecap="round"></path><path d="M 86.000,60.063 C 128.267,49.791 127.707,48.350 171.000,42.063" stroke-width="1.125" stroke="black" fill="none" stroke-linecap="round"></path><path d="M 171.000,42.063 C 222.233,31.372 222.267,32.791 274.000,26.063" stroke-width="1.125" stroke="black" fill="none" stroke-linecap="round"></path><path d="M 274.000,26.063 C 320.187,21.329 319.733,21.372 366.000,22.063" stroke-width="1.125" stroke="black" fill="none" stroke-linecap="round"></path><path d="M 366.000,22.063 C 383.877,22.435 382.687,22.329 399.000,28.063" stroke-width="1.368" stroke="black" fill="none" stroke-linecap="round"></path><path d="M 399.000,28.063 C 405.514,32.252 405.377,30.435 409.000,38.063" stroke-width="2.236" stroke="black" fill="none" stroke-linecap="round"></path><path d="M 409.000,38.063 C 412.731,43.656 411.514,42.252 411.000,48.063" stroke-width="3.000" stroke="black" fill="none" stroke-linecap="round"></path><path d="M 411.000,48.063 C 406.220,58.984 407.231,57.656 398.000,66.063" stroke-width="2.518" stroke="black" fill="none" stroke-linecap="round"></path><path d="M 398.000,66.063 C 387.047,73.754 388.220,74.484 375.000,79.063" stroke-width="2.288" stroke="black" fill="none" stroke-linecap="round"></path><path d="M 375.000,79.063 C 356.776,85.013 357.547,86.754 339.000,92.063" stroke-width="1.867" stroke="black" fill="none" stroke-linecap="round"></path><path d="M 339.000,92.063 C 327.863,96.786 327.776,96.513 317.000,102.063" stroke-width="2.114" stroke="black" fill="none" stroke-linecap="round"></path><path d="M 317.000,102.063 C 308.436,109.950 310.363,105.286 304.000,109.063" stroke-width="2.670" stroke="black" fill="none" stroke-linecap="round"></path><path d="M 304.000,109.063 C 302.000,104.052 300.936,108.450 302.000,99.063" stroke-width="3.910" stroke="black" fill="none" stroke-linecap="round"></path><path d="M 302.000,99.063 C 303.432,94.610 302.000,94.552 304.000,90.063" stroke-width="3.722" stroke="black" fill="none" stroke-linecap="round"></path><path d="M 304.000,90.063 C 305.364,85.790 304.432,86.610 304.000,83.063" stroke-width="4.321" stroke="black" fill="none" stroke-linecap="round"></path><path d="M 304.000,83.063 C 301.830,79.984 302.864,80.790 299.000,80.063" stroke-width="4.227" stroke="black" fill="none" stroke-linecap="round"></path><path d="M 299.000,80.063 C 283.350,81.248 283.830,80.484 268.000,84.063" stroke-width="2.357" stroke="black" fill="none" stroke-linecap="round"></path><path d="M 268.000,84.063 C 253.402,87.193 253.350,86.748 239.000,91.063" stroke-width="2.067" stroke="black" fill="none" stroke-linecap="round"></path><path d="M 239.000,91.063 C 219.996,96.548 219.902,96.193 201.000,102.063" stroke-width="1.841" stroke="black" fill="none" stroke-linecap="round"></path><path d="M 201.000,102.063 C 188.784,105.012 188.996,105.548 177.000,109.063" stroke-width="2.173" stroke="black" fill="none" stroke-linecap="round"></path><path d="M 177.000,109.063 C 167.391,114.403 172.784,110.512 169.000,113.063" stroke-width="3.114" stroke="black" fill="none" stroke-linecap="round"></path><path d="M 169.000,113.063 C 179.119,106.226 173.391,109.403 189.000,99.063" stroke-width="3.487" stroke="black" fill="none" stroke-linecap="round"></path><path d="M 189.000,99.063 C 199.549,92.217 199.119,91.726 209.000,84.063" stroke-width="2.541" stroke="black" fill="none" stroke-linecap="round"></path><path d="M 209.000,84.063 C 224.664,69.732 225.049,70.217 240.000,55.063" stroke-width="1.808" stroke="black" fill="none" stroke-linecap="round"></path><path d="M 240.000,55.063 C 248.672,43.040 247.664,47.732 255.000,40.063" stroke-width="2.196" stroke="black" fill="none" stroke-linecap="round"></path><path d="M 255.000,40.063 C 257.247,43.455 257.172,39.040 257.000,47.063" stroke-width="3.618" stroke="black" fill="none" stroke-linecap="round"></path><path d="M 257.000,47.063 C 253.059,80.023 254.747,79.955 250.000,113.063" stroke-width="1.860" stroke="black" fill="none" stroke-linecap="round"></path><path d="M 250.000,113.063 C 248.748,134.085 248.059,134.023 247.000,155.063" stroke-width="1.631" stroke="black" fill="none" stroke-linecap="round"></path><path d="M 247.000,155.063 C 246.123,164.080 246.248,164.085 245.000,173.063" stroke-width="2.268" stroke="black" fill="none" stroke-linecap="round"></path><path d="M 245.000,173.063 C 245.801,180.122 244.623,176.080 244.000,179.063" stroke-width="3.319" stroke="black" fill="none" stroke-linecap="round"></path><path d="M 244.000,179.063 C 236.125,170.934 237.301,175.122 228.000,163.063" stroke-width="3.884" stroke="black" fill="none" stroke-linecap="round"></path><path d="M 228.000,163.063 C 220.026,155.535 220.125,155.434 212.000,148.063" stroke-width="2.761" stroke="black" fill="none" stroke-linecap="round"></path><path d="M 212.000,148.063 C 205.995,141.425 205.526,142.035 199.000,136.063" stroke-width="2.758" stroke="black" fill="none" stroke-linecap="round"></path><path d="M 199.000,136.063 C 187.690,132.091 190.995,129.925 182.000,125.063" stroke-width="2.559" stroke="black" fill="none" stroke-linecap="round"></path><path d="M 182.000,125.063 C 179.027,118.348 179.190,121.591 182.000,115.063" stroke-width="3.594" stroke="black" fill="none" stroke-linecap="round"></path><path d="M 182.000,115.063 C 191.527,109.608 188.527,107.848 201.000,104.063" stroke-width="2.641" stroke="black" fill="none" stroke-linecap="round"></path><path d="M 201.000,104.063 C 211.781,97.160 212.027,97.608 223.000,91.063" stroke-width="2.352" stroke="black" fill="none" stroke-linecap="round"></path><path d="M 223.000,91.063 C 234.698,84.335 234.781,84.660 247.000,79.063" stroke-width="2.230" stroke="black" fill="none" stroke-linecap="round"></path><path d="M 247.000,79.063 C 257.500,73.063 255.698,75.335 265.000,73.063" stroke-width="2.513" stroke="black" fill="none" stroke-linecap="round"></path><path d="M 265.000,73.063 C 267.129,75.974 267.500,73.063 267.000,79.063" stroke-width="3.736" stroke="black" fill="none" stroke-linecap="round"></path><path d="M 267.000,79.063 C 266.645,88.406 266.629,87.974 264.000,97.063" stroke-width="2.956" stroke="black" fill="none" stroke-linecap="round"></path><path d="M 264.000,97.063 C 261.496,107.001 261.145,106.406 256.000,115.063" stroke-width="2.638" stroke="black" fill="none" stroke-linecap="round"></path><path d="M 256.000,115.063 C 246.464,129.845 246.496,129.001 234.000,141.063" stroke-width="2.051" stroke="black" fill="none" stroke-linecap="round"></path><path d="M 234.000,141.063 C 225.328,146.777 226.464,147.845 216.000,151.063" stroke-width="2.373" stroke="black" fill="none" stroke-linecap="round"></path><path d="M 216.000,151.063 C 206.720,155.795 206.828,155.277 197.000,158.063" stroke-width="2.449" stroke="black" fill="none" stroke-linecap="round"></path><path d="M 197.000,158.063 C 184.133,159.930 191.720,159.295 186.000,158.063" stroke-width="3.096" stroke="black" fill="none" stroke-linecap="round"></path><path d="M 186.000,158.063 C 197.334,149.781 190.633,153.430 210.000,145.063" stroke-width="3.193" stroke="black" fill="none" stroke-linecap="round"></path><path d="M 210.000,145.063 C 223.413,141.626 222.834,140.281 237.000,139.063" stroke-width="2.616" stroke="black" fill="none" stroke-linecap="round"></path><path d="M 237.000,139.063 C 276.532,132.239 276.413,131.626 316.000,125.063" stroke-width="1.159" stroke="black" fill="none" stroke-linecap="round"></path><path d="M 316.000,125.063 C 396.462,108.392 375.532,114.239 435.000,103.063" stroke-width="1.125" stroke="black" fill="none" stroke-linecap="round"></path><path d="M 435.000,103.063 C 422.715,108.270 443.462,101.892 410.000,112.063" stroke-width="2.130" stroke="black" fill="none" stroke-linecap="round"></path><path d="M 410.000,112.063 C 394.228,117.437 394.215,116.770 378.000,120.063" stroke-width="1.973" stroke="black" fill="none" stroke-linecap="round"></path><path d="M 378.000,120.063 C 359.998,121.537 360.228,122.937 342.000,123.063" stroke-width="1.794" stroke="black" fill="none" stroke-linecap="round"></path><path d="M 342.000,123.063 C 330.492,123.985 330.498,124.037 319.000,125.063" stroke-width="2.171" stroke="black" fill="none" stroke-linecap="round"></path><path d="M 319.000,125.063 C 313.785,123.980 314.492,125.485 310.000,126.063" stroke-width="3.040" stroke="black" fill="none" stroke-linecap="round"></path><path d="M 310.000,126.063 C 305.899,133.700 303.785,129.480 299.000,136.063" stroke-width="4.221" stroke="black" fill="none" stroke-linecap="round"></path><path d="M 299.000,136.063 C 268.376,145.876 269.399,146.200 237.000,151.063" stroke-width="1.446" stroke="black" fill="none" stroke-linecap="round"></path><path d="M 237.000,151.063 C 207.555,155.132 207.876,155.876 178.000,156.063" stroke-width="1.349" stroke="black" fill="none" stroke-linecap="round"></path><path d="M 178.000,156.063 C 143.706,158.008 144.055,157.132 110.000,155.063" stroke-width="1.184" stroke="black" fill="none" stroke-linecap="round"></path><path d="M 110.000,155.063 C 92.072,152.339 92.206,153.508 75.000,147.063" stroke-width="1.522" stroke="black" fill="none" stroke-linecap="round"></path><path d="M 75.000,147.063 C 63.068,144.637 64.572,143.839 55.000,138.063" stroke-width="2.032" stroke="black" fill="none" stroke-linecap="round"></path><path d="M 55.000,138.063 C 50.021,132.024 49.568,133.637 48.000,125.063" stroke-width="2.630" stroke="black" fill="none" stroke-linecap="round"></path><path d="M 48.000,125.063 C 46.463,116.092 45.521,116.524 46.000,107.063" stroke-width="2.695" stroke="black" fill="none" stroke-linecap="round"></path><path d="M 46.000,107.063 C 45.672,96.548 45.463,96.592 46.000,86.063" stroke-width="2.567" stroke="black" fill="none" stroke-linecap="round"></path><path d="M 46.000,86.063 C 44.742,72.482 46.172,80.548 47.000,75.063" stroke-width="3.056" stroke="black" fill="none" stroke-linecap="round"></path><path d="M 47.000,75.063 C 54.986,94.137 55.242,84.482 67.000,110.063" stroke-width="3.533" stroke="black" fill="none" stroke-linecap="round"></path><path d="M 67.000,110.063 C 77.365,122.531 76.486,122.637 90.000,132.063" stroke-width="2.329" stroke="black" fill="none" stroke-linecap="round"></path><path d="M 90.000,132.063 C 106.431,143.672 105.865,144.031 124.000,153.063" stroke-width="1.832" stroke="black" fill="none" stroke-linecap="round"></path><path d="M 124.000,153.063 C 135.519,159.942 135.431,159.172 148.000,163.063" stroke-width="2.039" stroke="black" fill="none" stroke-linecap="round"></path><path d="M 148.000,163.063 C 162.032,166.063 161.519,166.442 176.000,166.063" stroke-width="2.093" stroke="black" fill="none" stroke-linecap="round"></path><path d="M 176.000,166.063 C 186.017,164.660 186.032,166.063 196.000,163.063" stroke-width="2.405" stroke="black" fill="none" stroke-linecap="round"></path><path d="M 196.000,163.063 C 198.625,162.926 198.517,162.660 201.000,162.063" stroke-width="3.490" stroke="black" fill="none" stroke-linecap="round"></path><path d="M 201.000,162.063 C 204.262,160.958 204.125,160.926 207.000,159.063" stroke-width="4.229" stroke="black" fill="none" stroke-linecap="round"></path><path d="M 207.000,159.063 C 211.106,156.536 210.762,156.458 214.000,153.063" stroke-width="4.345" stroke="black" fill="none" stroke-linecap="round"></path><path d="M 214.000,153.063 C 215.864,150.187 216.106,150.536 217.000,147.063" stroke-width="4.586" stroke="black" fill="none" stroke-linecap="round"></path><path d="M 217.000,147.063 C 219.686,143.230 217.864,144.687 218.000,142.063" stroke-width="4.796" stroke="black" fill="none" stroke-linecap="round"></path><path d="M 218.000,142.063 C 211.180,138.780 213.186,138.730 204.000,138.063" stroke-width="3.406" stroke="black" fill="none" stroke-linecap="round"></path><path d="M 204.000,138.063 C 190.998,137.874 191.180,136.780 178.000,138.063" stroke-width="2.482" stroke="black" fill="none" stroke-linecap="round"></path><path d="M 178.000,138.063 C 156.485,138.177 156.498,138.374 135.000,139.063" stroke-width="1.725" stroke="black" fill="none" stroke-linecap="round"></path><path d="M 135.000,139.063 C 108.006,140.797 107.985,140.177 81.000,142.063" stroke-width="1.391" stroke="black" fill="none" stroke-linecap="round"></path><path d="M 81.000,142.063 C 75.979,141.770 76.006,142.297 71.000,142.063" stroke-width="2.443" stroke="black" fill="none" stroke-linecap="round"></path><path d="M 71.000,142.063 C 65.450,144.926 67.479,142.270 64.000,143.063" stroke-width="3.345" stroke="black" fill="none" stroke-linecap="round"></path><path d="M 64.000,143.063 C 61.415,137.057 61.950,140.426 64.000,133.063" stroke-width="3.952" stroke="black" fill="none" stroke-linecap="round"></path><path d="M 64.000,133.063 C 73.823,119.786 72.415,120.057 86.000,109.063" stroke-width="2.280" stroke="black" fill="none" stroke-linecap="round"></path><path d="M 86.000,109.063 C 107.731,90.474 107.323,90.286 131.000,74.063" stroke-width="1.485" stroke="black" fill="none" stroke-linecap="round"></path><path d="M 131.000,74.063 C 156.088,58.199 155.231,56.974 181.000,42.063" stroke-width="1.269" stroke="black" fill="none" stroke-linecap="round"></path><path d="M 181.000,42.063 C 199.861,29.341 200.088,29.699 219.000,17.063" stroke-width="1.441" stroke="black" fill="none" stroke-linecap="round"></path><path d="M 219.000,17.063 C 234.581,5.738 226.361,12.341 234.000,8.063" stroke-width="2.402" stroke="black" fill="none" stroke-linecap="round"></path><path d="M 234.000,8.063 C 226.088,19.671 233.081,11.738 216.000,29.063" stroke-width="2.982" stroke="black" fill="none" stroke-linecap="round"></path><path d="M 216.000,29.063 C 196.514,46.238 197.088,46.671 176.000,62.063" stroke-width="1.654" stroke="black" fill="none" stroke-linecap="round"></path><path d="M 176.000,62.063 C 161.072,72.668 161.514,73.238 146.000,83.063" stroke-width="1.742" stroke="black" fill="none" stroke-linecap="round"></path><path d="M 146.000,83.063 C 131.807,92.296 132.072,92.668 118.000,102.063" stroke-width="1.837" stroke="black" fill="none" stroke-linecap="round"></path><path d="M 118.000,102.063 C 108.011,109.051 111.307,106.796 105.000,112.063" stroke-width="2.408" stroke="black" fill="none" stroke-linecap="round"></path><path d="M 105.000,112.063 C 107.457,110.947 104.011,113.051 110.000,110.063" stroke-width="3.858" stroke="black" fill="none" stroke-linecap="round"></path><path d="M 110.000,110.063 C 130.167,101.876 130.457,102.947 151.000,96.063" stroke-width="2.058" stroke="black" fill="none" stroke-linecap="round"></path><path d="M 151.000,96.063 C 173.359,89.774 173.167,89.876 196.000,86.063" stroke-width="1.590" stroke="black" fill="none" stroke-linecap="round"></path><path d="M 196.000,86.063 C 204.249,85.006 203.859,84.774 212.000,86.063" stroke-width="2.325" stroke="black" fill="none" stroke-linecap="round"></path><path d="M 212.000,86.063 C 216.796,86.453 215.249,86.506 218.000,89.063" stroke-width="3.305" stroke="black" fill="none" stroke-linecap="round"></path><path d="M 218.000,89.063 C 220.251,94.797 219.796,92.953 218.000,99.063" stroke-width="3.413" stroke="black" fill="none" stroke-linecap="round"></path><path d="M 218.000,99.063 C 210.651,114.325 210.751,112.797 199.000,125.063" stroke-width="2.161" stroke="black" fill="none" stroke-linecap="round"></path><path d="M 199.000,125.063 C 183.822,137.209 185.151,137.825 167.000,146.063" stroke-width="1.894" stroke="black" fill="none" stroke-linecap="round"></path><path d="M 167.000,146.063 C 154.797,151.609 155.322,152.209 142.000,155.063" stroke-width="2.043" stroke="black" fill="none" stroke-linecap="round"></path><path d="M 142.000,155.063 C 123.142,160.422 123.297,160.109 104.000,163.063" stroke-width="1.800" stroke="black" fill="none" stroke-linecap="round"></path><path d="M 104.000,163.063 C 94.000,163.063 94.142,164.422 84.000,163.063" stroke-width="2.286" stroke="black" fill="none" stroke-linecap="round"></path><path d="M 84.000,163.063 C 71.721,165.238 79.000,163.063 74.000,163.063" stroke-width="3.040" stroke="black" fill="none" stroke-linecap="round"></path><path d="M 74.000,163.063 C 89.124,150.975 82.721,154.738 106.000,142.063" stroke-width="2.721" stroke="black" fill="none" stroke-linecap="round"></path><path d="M 106.000,142.063 C 134.171,128.293 133.624,127.475 163.000,116.063" stroke-width="1.385" stroke="black" fill="none" stroke-linecap="round"></path><path d="M 163.000,116.063 C 200.142,100.084 200.171,100.293 238.000,86.063" stroke-width="1.125" stroke="black" fill="none" stroke-linecap="round"></path><path d="M 238.000,86.063 C 268.050,76.199 267.642,75.084 298.000,66.063" stroke-width="1.125" stroke="black" fill="none" stroke-linecap="round"></path><path d="M 298.000,66.063 C 304.613,62.822 300.550,65.199 303.000,64.063" stroke-width="2.323" stroke="black" fill="none" stroke-linecap="round"></path><path d="M 303.000,64.063 C 288.151,76.093 291.613,72.822 272.000,86.063" stroke-width="2.546" stroke="black" fill="none" stroke-linecap="round"></path><path d="M 272.000,86.063 C 246.966,100.001 247.651,101.093 222.000,114.063" stroke-width="1.454" stroke="black" fill="none" stroke-linecap="round"></path><path d="M 222.000,114.063 C 202.743,123.656 203.466,124.501 185.000,135.063" stroke-width="1.557" stroke="black" fill="none" stroke-linecap="round"></path><path d="M 185.000,135.063 C 177.153,140.249 181.743,137.156 180.000,141.063" stroke-width="2.646" stroke="black" fill="none" stroke-linecap="round"></path><path d="M 180.000,141.063 C 199.960,144.580 194.653,145.249 220.000,145.063" stroke-width="2.598" stroke="black" fill="none" stroke-linecap="round"></path><path d="M 220.000,145.063 C 241.568,144.824 241.460,145.580 263.000,143.063" stroke-width="1.740" stroke="black" fill="none" stroke-linecap="round"></path><path d="M 263.000,143.063 C 278.214,142.075 278.068,141.824 293.000,139.063" stroke-width="1.929" stroke="black" fill="none" stroke-linecap="round"></path></svg>